<svg width="27" height="27" viewBox="0 0 27 27" fill="none" xmlns="http://www.w3.org/2000/svg">
<path opacity="0.2" d="M23.3127 13.5001C23.3127 15.4766 22.7266 17.4087 21.6285 19.052C20.5304 20.6954 18.9697 21.9763 17.1437 22.7326C15.3176 23.489 13.3083 23.6869 11.3698 23.3013C9.43134 22.9157 7.65071 21.964 6.25313 20.5664C4.85555 19.1688 3.90379 17.3882 3.51819 15.4497C3.1326 13.5112 3.3305 11.5019 4.08687 9.67583C4.84323 7.84981 6.12409 6.28907 7.76747 5.191C9.41086 4.09293 11.3429 3.50684 13.3194 3.50684C15.9698 3.50684 18.5116 4.55969 20.3857 6.43379C22.2598 8.30789 23.3127 10.8497 23.3127 13.5001Z" fill="white"/>
<path d="M13.3182 2.67383C11.177 2.67383 9.08393 3.30876 7.3036 4.49834C5.52327 5.68792 4.13567 7.37871 3.31627 9.35691C2.49688 11.3351 2.28249 13.5119 2.70021 15.6119C3.11794 17.7119 4.14901 19.641 5.66306 21.155C7.17711 22.669 9.10612 23.7001 11.2062 24.1178C13.3062 24.5356 15.483 24.3212 17.4611 23.5018C19.4393 22.6824 21.1301 21.2948 22.3197 19.5145C23.5093 17.7341 24.1442 15.641 24.1442 13.4998C24.1412 10.6295 22.9996 7.87766 20.97 5.84804C18.9404 3.81843 16.1885 2.67686 13.3182 2.67383ZM14.151 22.6218V15.9982H16.6493C16.8702 15.9982 17.082 15.9104 17.2382 15.7542C17.3943 15.5981 17.4821 15.3863 17.4821 15.1654C17.4821 14.9445 17.3943 14.7327 17.2382 14.5765C17.082 14.4204 16.8702 14.3326 16.6493 14.3326H14.151V11.8343C14.151 11.3926 14.3265 10.9689 14.6388 10.6566C14.9512 10.3442 15.3748 10.1688 15.8165 10.1688H17.4821C17.7029 10.1688 17.9147 10.081 18.0709 9.92485C18.2271 9.76868 18.3148 9.55686 18.3148 9.33599C18.3148 9.11513 18.2271 8.90331 18.0709 8.74714C17.9147 8.59096 17.7029 8.50322 17.4821 8.50322H15.8165C14.9331 8.50322 14.0858 8.85418 13.4611 9.47887C12.8364 10.1036 12.4854 10.9508 12.4854 11.8343V14.3326H9.98713C9.76626 14.3326 9.55445 14.4204 9.39827 14.5765C9.2421 14.7327 9.15436 14.9445 9.15436 15.1654C9.15436 15.3863 9.2421 15.5981 9.39827 15.7542C9.55445 15.9104 9.76626 15.9982 9.98713 15.9982H12.4854V22.6218C10.1379 22.4075 7.96325 21.2964 6.41396 19.5197C4.86467 17.743 4.05996 15.4374 4.16722 13.0824C4.27448 10.7275 5.28546 8.50463 6.98986 6.8761C8.69426 5.24757 10.9609 4.33879 13.3182 4.33879C15.6756 4.33879 17.9422 5.24757 19.6466 6.8761C21.351 8.50463 22.3619 10.7275 22.4692 13.0824C22.5765 15.4374 21.7718 17.743 20.2225 19.5197C18.6732 21.2964 16.4986 22.4075 14.151 22.6218Z" fill="white"/>
</svg>
