<svg width="27" height="27" viewBox="0 0 27 27" fill="none" xmlns="http://www.w3.org/2000/svg">
<path opacity="0.2" d="M18.316 3.50684H8.3228C6.99761 3.50684 5.7267 4.03326 4.78965 4.97031C3.8526 5.90736 3.32617 7.17827 3.32617 8.50346V18.4967C3.32617 19.8219 3.8526 21.0928 4.78965 22.0299C5.7267 22.9669 6.99761 23.4933 8.3228 23.4933H18.316C19.6412 23.4933 20.9121 22.9669 21.8492 22.0299C22.7862 21.0928 23.3127 19.8219 23.3127 18.4967V8.50346C23.3127 7.17827 22.7862 5.90736 21.8492 4.97031C20.9121 4.03326 19.6412 3.50684 18.316 3.50684ZM13.3194 17.6639C12.4959 17.6639 11.6909 17.4197 11.0061 16.9622C10.3214 16.5047 9.78767 15.8544 9.47252 15.0935C9.15737 14.3327 9.07491 13.4955 9.23557 12.6878C9.39624 11.88 9.79281 11.1381 10.3751 10.5558C10.9575 9.97347 11.6994 9.5769 12.5071 9.41624C13.3148 9.25558 14.152 9.33803 14.9129 9.65319C15.6737 9.96834 16.324 10.502 16.7815 11.1868C17.2391 11.8715 17.4833 12.6766 17.4833 13.5001C17.4833 14.6044 17.0446 15.6635 16.2637 16.4444C15.4828 17.2252 14.4237 17.6639 13.3194 17.6639Z" fill="white"/>
<path d="M18.3148 2.67383H8.32158C6.77604 2.67548 5.29427 3.29018 4.2014 4.38304C3.10854 5.47591 2.49384 6.95768 2.49219 8.50322V18.4965C2.49384 20.042 3.10854 21.5238 4.2014 22.6167C5.29427 23.7095 6.77604 24.3242 8.32158 24.3259H18.3148C19.8604 24.3242 21.3421 23.7095 22.435 22.6167C23.5279 21.5238 24.1426 20.042 24.1442 18.4965V8.50322C24.1426 6.95768 23.5279 5.47591 22.435 4.38304C21.3421 3.29018 19.8604 2.67548 18.3148 2.67383ZM22.4787 18.4965C22.4787 19.6008 22.04 20.6599 21.2591 21.4408C20.4782 22.2216 19.4192 22.6603 18.3148 22.6603H8.32158C7.21726 22.6603 6.15817 22.2216 5.37729 21.4408C4.59642 20.6599 4.15773 19.6008 4.15773 18.4965V8.50322C4.15773 7.3989 4.59642 6.33981 5.37729 5.55893C6.15817 4.77806 7.21726 4.33937 8.32158 4.33937H18.3148C19.4192 4.33937 20.4782 4.77806 21.2591 5.55893C22.04 6.33981 22.4787 7.3989 22.4787 8.50322V18.4965ZM13.3182 8.50322C12.33 8.50322 11.3639 8.79627 10.5422 9.34531C9.72054 9.89434 9.08011 10.6747 8.70193 11.5877C8.32375 12.5007 8.2248 13.5054 8.41759 14.4746C8.61039 15.4439 9.08627 16.3342 9.78506 17.033C10.4839 17.7318 11.3742 18.2077 12.3434 18.4005C13.3127 18.5933 14.3173 18.4943 15.2303 18.1161C16.1433 17.7379 16.9237 17.0975 17.4727 16.2758C18.0218 15.4541 18.3148 14.4881 18.3148 13.4998C18.3135 12.1751 17.7866 10.905 16.8498 9.96822C15.9131 9.03147 14.643 8.5046 13.3182 8.50322ZM13.3182 16.8309C12.6594 16.8309 12.0154 16.6356 11.4676 16.2695C10.9198 15.9035 10.4928 15.3833 10.2407 14.7746C9.98857 14.1659 9.9226 13.4962 10.0511 12.85C10.1797 12.2038 10.4969 11.6103 10.9628 11.1444C11.4286 10.6786 12.0222 10.3613 12.6683 10.2328C13.3145 10.1042 13.9843 10.1702 14.593 10.4223C15.2016 10.6744 15.7219 11.1014 16.0879 11.6492C16.4539 12.197 16.6493 12.841 16.6493 13.4998C16.6493 14.3833 16.2983 15.2306 15.6736 15.8553C15.0489 16.48 14.2017 16.8309 13.3182 16.8309ZM19.9804 8.08684C19.9804 8.3339 19.9071 8.57541 19.7699 8.78083C19.6326 8.98625 19.4375 9.14636 19.2092 9.24091C18.981 9.33545 18.7298 9.36019 18.4875 9.31199C18.2452 9.26379 18.0226 9.14482 17.8479 8.97012C17.6732 8.79543 17.5543 8.57285 17.5061 8.33054C17.4579 8.08822 17.4826 7.83706 17.5771 7.60881C17.6717 7.38055 17.8318 7.18546 18.0372 7.0482C18.2426 6.91094 18.4842 6.83768 18.7312 6.83768C19.0625 6.83768 19.3802 6.96929 19.6145 7.20355C19.8488 7.43781 19.9804 7.75554 19.9804 8.08684Z" fill="white"/>
</svg>
