<svg width="27" height="27" viewBox="0 0 27 27" fill="none" xmlns="http://www.w3.org/2000/svg">
<path opacity="0.2" d="M23.3137 13.5001C23.3137 15.4767 22.7276 17.4089 21.6294 19.0523C20.5313 20.6958 18.9705 21.9767 17.1444 22.7331C15.3182 23.4895 13.3088 23.6874 11.3702 23.3018C9.43164 22.9162 7.65093 21.9644 6.25328 20.5667C4.85563 19.1691 3.90381 17.3884 3.5182 15.4498C3.13259 13.5112 3.3305 11.5018 4.08691 9.67565C4.84331 7.84954 6.12423 6.28873 7.7677 5.1906C9.41116 4.09247 11.3433 3.50635 13.3199 3.50635C15.9704 3.50635 18.5124 4.55926 20.3866 6.43345C22.2608 8.30764 23.3137 10.8496 23.3137 13.5001Z" fill="white"/>
<path d="M13.3188 2.67383C11.1775 2.67383 9.08426 3.30879 7.30384 4.49843C5.52342 5.68807 4.13575 7.37895 3.31632 9.35724C2.49688 11.3355 2.28248 13.5124 2.70022 15.6125C3.11797 17.7127 4.1491 19.6418 5.66322 21.1559C7.17734 22.67 9.10645 23.7012 11.2066 24.1189C13.3067 24.5367 15.4836 24.3223 17.4619 23.5028C19.4402 22.6834 21.1311 21.2957 22.3207 19.5153C23.5103 17.7349 24.1453 15.6417 24.1453 13.5004C24.1423 10.6299 23.0007 7.87792 20.9709 5.8482C18.9412 3.81849 16.1892 2.67686 13.3188 2.67383ZM13.3188 22.6613C11.5069 22.6613 9.73572 22.124 8.22921 21.1174C6.7227 20.1108 5.54852 18.6801 4.85515 17.0061C4.16178 15.3322 3.98037 13.4902 4.33384 11.7132C4.68732 9.93613 5.55981 8.30381 6.84099 7.02263C8.12217 5.74145 9.7545 4.86895 11.5315 4.51548C13.3086 4.162 15.1506 4.34342 16.8245 5.03679C18.4984 5.73016 19.9292 6.90434 20.9358 8.41085C21.9424 9.91735 22.4797 11.6885 22.4797 13.5004C22.4769 15.9292 21.5109 18.2577 19.7935 19.9751C18.0761 21.6925 15.7475 22.6586 13.3188 22.6613ZM16.5532 17.8456C16.4499 18.0408 16.2733 18.1869 16.0623 18.2519C15.8513 18.3169 15.6231 18.2955 15.4279 18.1922C14.7795 17.8437 14.0549 17.6613 13.3188 17.6613C12.5827 17.6613 11.858 17.8437 11.2097 18.1922C11.015 18.2901 10.7897 18.3078 10.5822 18.2415C10.3746 18.1752 10.2013 18.0302 10.0994 17.8376C9.99754 17.645 9.97519 17.4201 10.0372 17.2113C10.0992 17.0024 10.2405 16.8261 10.431 16.7203C11.3208 16.2496 12.3121 16.0036 13.3188 16.0036C14.3254 16.0036 15.3167 16.2496 16.2065 16.7203C16.4017 16.8235 16.5478 17.0001 16.6129 17.2111C16.6779 17.4222 16.6564 17.6504 16.5532 17.8456ZM19.8844 12.0159C19.8329 12.1125 19.7629 12.1979 19.6784 12.2674C19.5938 12.3369 19.4964 12.389 19.3917 12.4208C19.287 12.4526 19.1771 12.4635 19.0682 12.4528C18.9593 12.442 18.8535 12.41 18.757 12.3584C17.0847 11.4627 15.2169 10.994 13.3198 10.994C11.4227 10.994 9.55492 11.4627 7.88257 12.3584C7.68765 12.4625 7.45936 12.4849 7.24793 12.4206C7.0365 12.3564 6.85924 12.2108 6.75515 12.0159C6.65106 11.821 6.62867 11.5927 6.6929 11.3813C6.75713 11.1698 6.90272 10.9926 7.09765 10.8885C9.01164 9.86415 11.1489 9.32819 13.3198 9.32819C15.4907 9.32819 17.6279 9.86415 19.5419 10.8885C19.6387 10.9401 19.7243 11.0103 19.7938 11.095C19.8634 11.1797 19.9155 11.2774 19.9472 11.3823C19.9789 11.4873 19.9896 11.5974 19.9787 11.7065C19.9677 11.8156 19.9354 11.9214 19.8834 12.018L19.8844 12.0159ZM18.2188 14.9307C18.115 15.1256 17.938 15.2713 17.7268 15.3357C17.5155 15.4002 17.2874 15.3781 17.0924 15.2743C15.9312 14.6556 14.6356 14.332 13.3198 14.332C12.004 14.332 10.7084 14.6556 9.54715 15.2743C9.35265 15.3736 9.12691 15.3926 8.91856 15.3271C8.71021 15.2616 8.53593 15.1169 8.43327 14.9241C8.3306 14.7313 8.30777 14.5059 8.36969 14.2965C8.43161 14.0871 8.57333 13.9103 8.76431 13.8044C10.1664 13.0567 11.7309 12.6656 13.3198 12.6656C14.9087 12.6656 16.4732 13.0567 17.8753 13.8044C17.972 13.8559 18.0575 13.9259 18.1271 14.0106C18.1967 14.0952 18.2488 14.1927 18.2807 14.2975C18.3125 14.4024 18.3233 14.5124 18.3125 14.6214C18.3017 14.7305 18.2695 14.8363 18.2178 14.9328L18.2188 14.9307Z" fill="white"/>
</svg>
