<svg width="27" height="27" viewBox="0 0 27 27" fill="none" xmlns="http://www.w3.org/2000/svg">
<path opacity="0.2" d="M23.3127 12.6671C21.2208 12.671 19.181 12.0154 17.4833 10.7933V16.4145C17.4833 18.2919 16.7375 20.0924 15.41 21.4198C14.0825 22.7473 12.2821 23.4931 10.4047 23.4931C8.52737 23.4931 6.72692 22.7473 5.39943 21.4198C4.07195 20.0924 3.32617 18.2919 3.32617 16.4145C3.32617 12.9315 5.84218 9.92622 9.15557 9.33599V13.7799C8.68434 14.0034 8.28172 14.3493 7.9897 14.7814C7.69769 15.2136 7.52698 15.7161 7.49538 16.2367C7.46378 16.7573 7.57245 17.2769 7.81006 17.7412C8.04766 18.2055 8.4055 18.5975 8.84623 18.8764C9.28697 19.1552 9.79447 19.3107 10.3158 19.3267C10.8371 19.3426 11.3531 19.2183 11.8101 18.9668C12.267 18.7154 12.6481 18.3459 12.9136 17.897C13.179 17.448 13.3192 16.9361 13.3194 16.4145V2.67383H17.4833C17.4833 4.21988 18.0974 5.70261 19.1907 6.79583C20.2839 7.88906 21.7666 8.50322 23.3127 8.50322V12.6671Z" fill="white"/>
<path d="M23.3115 7.6707C21.9867 7.66933 20.7166 7.14245 19.7798 6.2057C18.8431 5.26895 18.3162 3.99884 18.3148 2.67408C18.3148 2.45321 18.2271 2.2414 18.0709 2.08522C17.9147 1.92905 17.7029 1.84131 17.4821 1.84131H13.3182C13.0973 1.84131 12.8855 1.92905 12.7293 2.08522C12.5732 2.2414 12.4854 2.45321 12.4854 2.67408V16.4148C12.4853 16.7873 12.3851 17.153 12.1955 17.4737C12.0058 17.7943 11.7336 18.0582 11.4072 18.2378C11.0808 18.4174 10.7122 18.5062 10.3399 18.4948C9.9675 18.4834 9.605 18.3723 9.2902 18.1731C8.9754 17.9739 8.71982 17.6938 8.55012 17.3622C8.38042 17.0305 8.30282 16.6594 8.32542 16.2876C8.34801 15.9157 8.46997 15.5567 8.67858 15.2481C8.88719 14.9394 9.17479 14.6924 9.5114 14.5327C9.65379 14.4652 9.77408 14.3586 9.85829 14.2253C9.9425 14.0921 9.98718 13.9377 9.98712 13.7801V9.33624C9.98718 9.21451 9.96054 9.09425 9.90909 8.98393C9.85765 8.8736 9.78264 8.7759 9.68935 8.69769C9.59606 8.61949 9.48676 8.56269 9.36915 8.53129C9.25154 8.49989 9.12847 8.49466 9.00862 8.51597C5.29342 9.17802 2.49219 12.5736 2.49219 16.4148C2.49219 18.513 3.3257 20.5253 4.80936 22.0089C6.29302 23.4926 8.3053 24.3261 10.4035 24.3261C12.5017 24.3261 14.514 23.4926 15.9977 22.0089C17.4813 20.5253 18.3148 18.513 18.3148 16.4148V12.2811C19.8572 13.0858 21.5718 13.5041 23.3115 13.5001C23.5323 13.5001 23.7441 13.4124 23.9003 13.2562C24.0565 13.1 24.1442 12.8882 24.1442 12.6673V8.50347C24.1442 8.28261 24.0565 8.07079 23.9003 7.91462C23.7441 7.75844 23.5323 7.6707 23.3115 7.6707ZM22.4787 11.7971C20.8513 11.6529 19.293 11.0721 17.9682 10.1159C17.8437 10.0264 17.6969 9.973 17.5439 9.96161C17.391 9.95022 17.2379 9.98128 17.1015 10.0514C16.9651 10.1215 16.8507 10.2278 16.7709 10.3588C16.6911 10.4898 16.649 10.6402 16.6493 10.7936V16.4148C16.6493 18.0713 15.9913 19.6599 14.8199 20.8312C13.6486 22.0025 12.06 22.6606 10.4035 22.6606C8.74703 22.6606 7.15839 22.0025 5.98708 20.8312C4.81576 19.6599 4.15773 18.0713 4.15773 16.4148C4.15773 13.7187 5.88989 11.3005 8.32158 10.4188V13.2992C7.78325 13.6589 7.34729 14.1519 7.05619 14.7302C6.76509 15.3085 6.62878 15.9524 6.66056 16.599C6.69233 17.2457 6.8911 17.8731 7.23749 18.4201C7.58389 18.9671 8.06608 19.415 8.63709 19.7202C9.20809 20.0254 9.84842 20.1774 10.4957 20.1615C11.1429 20.1455 11.775 19.9622 12.3303 19.6293C12.8856 19.2964 13.3452 18.8254 13.6643 18.262C13.9834 17.6986 14.151 17.0622 14.151 16.4148V3.50685H16.7013C16.8886 4.97365 17.5575 6.33679 18.6031 7.38239C19.6488 8.428 21.0119 9.09691 22.4787 9.2842V11.7971Z" fill="white"/>
</svg>
