<svg width="27" height="27" viewBox="0 0 27 27" fill="none" xmlns="http://www.w3.org/2000/svg">
<path opacity="0.2" d="M24.9785 7.67062L21.6473 11.0019C21.2038 17.96 15.3928 23.4941 8.32227 23.4941C4.99102 23.4941 4.1582 22.2448 4.1582 22.2448C4.1582 22.2448 7.48945 20.9956 9.15508 18.4972C9.15508 18.4972 3.41388 15.1659 4.2394 6.005C4.2394 6.005 8.36807 10.1691 13.3191 11.0019V9.33625C13.3191 7.04601 15.193 5.14408 17.4832 5.17218C18.2914 5.18157 19.0802 5.42173 19.7565 5.86436C20.4328 6.307 20.9685 6.93369 21.3006 7.67062H24.9785Z" fill="white"/>
<path d="M25.748 7.352C25.685 7.19981 25.5783 7.06972 25.4413 6.97818C25.3044 6.88664 25.1434 6.83777 24.9787 6.83773H21.8109C21.368 6.08416 20.7377 5.45801 19.9812 5.0202C19.2247 4.58239 18.3678 4.34782 17.4938 4.3393C16.8428 4.33066 16.1966 4.4524 15.5934 4.69733C14.9902 4.94227 14.4421 5.30545 13.9814 5.76549C13.5066 6.23086 13.1298 6.78652 12.8731 7.39975C12.6163 8.01297 12.4849 8.67137 12.4865 9.33617V9.97015C8.29536 8.86459 4.86729 5.45527 4.83086 5.41883C4.71913 5.30611 4.57751 5.22766 4.42269 5.19273C4.26787 5.15779 4.1063 5.16783 3.95699 5.22164C3.80768 5.27546 3.67685 5.37082 3.57992 5.4965C3.48299 5.62217 3.42399 5.77293 3.40987 5.93101C2.96224 10.906 4.40612 14.2352 5.70011 16.1517C6.33135 17.0992 7.09925 17.9481 7.97889 18.671C6.38926 20.4959 3.8929 21.4546 3.86688 21.465C3.74936 21.5091 3.64331 21.5791 3.55665 21.6698C3.46999 21.7606 3.40496 21.8698 3.36642 21.9892C3.32788 22.1086 3.31683 22.2352 3.33409 22.3595C3.35134 22.4838 3.39647 22.6026 3.46609 22.707C3.54312 22.8236 3.85647 23.2327 4.61953 23.6147C5.56477 24.0874 6.81087 24.3268 8.32242 24.3268C15.6803 24.3268 21.8265 18.6616 22.4552 11.3724L25.5679 8.25976C25.6843 8.14323 25.7636 7.99478 25.7956 7.8332C25.8277 7.67161 25.8111 7.50415 25.748 7.352ZM21.0634 10.4136C20.9206 10.5568 20.8348 10.7469 20.8219 10.9487C20.3982 17.5165 14.91 22.6612 8.32242 22.6612C7.22311 22.6612 6.4486 22.5154 5.90519 22.3405C7.10444 21.6899 8.77423 20.5708 9.84855 18.9593C9.91148 18.865 9.95447 18.7587 9.97488 18.6472C9.9953 18.5356 9.9927 18.421 9.96726 18.3105C9.94182 18.1999 9.89407 18.0958 9.82694 18.0043C9.7598 17.9129 9.6747 17.8362 9.57685 17.7788C9.56331 17.7705 8.2381 16.9731 7.02844 15.1461C5.672 13.0953 4.99117 10.6249 4.99117 7.78402C6.6568 9.13734 9.70177 11.2381 13.1829 11.8232C13.3022 11.843 13.4243 11.8365 13.5408 11.8044C13.6574 11.7722 13.7655 11.7151 13.8577 11.6369C13.95 11.5588 14.0241 11.4615 14.0749 11.3518C14.1257 11.2421 14.1521 11.1227 14.1521 11.0018V9.33617C14.1512 8.89192 14.2391 8.45196 14.4107 8.0422C14.5824 7.63244 14.8342 7.26114 15.1515 6.95016C15.4554 6.64522 15.8176 6.40441 16.2163 6.24204C16.6151 6.07967 17.0424 5.99904 17.4729 6.00492C18.7909 6.02158 20.0224 6.82524 20.5377 8.00471C20.6027 8.153 20.7094 8.27914 20.845 8.3677C20.9805 8.45626 21.1389 8.5034 21.3008 8.50336H22.9664L21.0634 10.4136Z" fill="white"/>
</svg>
