<svg width="27" height="27" viewBox="0 0 27 27" fill="none" xmlns="http://www.w3.org/2000/svg">
<path opacity="0.2" d="M23.5811 7.62136C23.517 7.36458 23.3926 7.12677 23.2183 6.92764C23.0439 6.72851 22.8247 6.57379 22.5786 6.4763C19.0935 5.13554 13.3182 5.17197 13.3182 5.17197C13.3182 5.17197 7.54294 5.13554 4.05363 6.4815C3.80758 6.57899 3.58831 6.73371 3.41398 6.93284C3.23965 7.13197 3.11528 7.36978 3.05118 7.62656C2.81176 8.55927 2.49219 10.3862 2.49219 13.4997C2.49219 16.6132 2.81176 18.4401 3.05535 19.378C3.11976 19.6334 3.24383 19.8699 3.41737 20.068C3.5909 20.2662 3.80896 20.4203 4.05363 20.5179C7.54294 21.8638 13.3182 21.8274 13.3182 21.8274C13.3182 21.8274 19.0935 21.8638 22.5828 20.5179C22.8282 20.4209 23.0471 20.2669 23.2214 20.0688C23.3957 19.8706 23.5204 19.6338 23.5852 19.378C23.8288 18.4411 24.1484 16.6132 24.1484 13.4997C24.1484 10.3862 23.8247 8.55927 23.5811 7.62136ZM11.6527 16.8308V10.1686L16.6493 13.4997L11.6527 16.8308Z" fill="white"/>
<path d="M17.1103 12.8066L12.1136 9.47547C11.9882 9.39178 11.8424 9.34372 11.6918 9.33642C11.5411 9.32912 11.3913 9.36286 11.2584 9.43404C11.1254 9.50521 11.0143 9.61116 10.9369 9.74055C10.8594 9.86995 10.8186 10.018 10.8187 10.1688V16.8309C10.8186 16.9817 10.8594 17.1297 10.9369 17.2591C11.0143 17.3885 11.1254 17.4945 11.2584 17.5656C11.3913 17.6368 11.5411 17.6706 11.6918 17.6633C11.8424 17.656 11.9882 17.6079 12.1136 17.5242L17.1103 14.1931C17.2245 14.1171 17.3182 14.014 17.383 13.8931C17.4478 13.7721 17.4817 13.6371 17.4817 13.4998C17.4817 13.3626 17.4478 13.2275 17.383 13.1066C17.3182 12.9856 17.2245 12.8826 17.1103 12.8066ZM12.4842 15.2747V11.7302L15.147 13.4998L12.4842 15.2747ZM24.3856 7.41228C24.2875 7.02853 24.0995 6.6736 23.8373 6.37677C23.575 6.07994 23.2459 5.84972 22.8772 5.7051C19.3088 4.32687 13.6293 4.33936 13.317 4.33936C13.0047 4.33936 7.32521 4.32687 3.75679 5.7051C3.38804 5.84972 3.05896 6.07994 2.7967 6.37677C2.53444 6.6736 2.34651 7.02853 2.24843 7.41228C1.97882 8.45117 1.6582 10.3499 1.6582 13.4998C1.6582 16.6498 1.97882 18.5485 2.24843 19.5874C2.34637 19.9713 2.53423 20.3265 2.79649 20.6235C3.05876 20.9205 3.38792 21.1509 3.75679 21.2956C7.17531 22.6145 12.5259 22.6603 13.2483 22.6603H13.3857C14.1081 22.6603 19.4618 22.6145 22.8772 21.2956C23.2461 21.1509 23.5752 20.9205 23.8375 20.6235C24.0998 20.3265 24.2876 19.9713 24.3856 19.5874C24.6552 18.5464 24.9758 16.6498 24.9758 13.4998C24.9758 10.3499 24.6552 8.45117 24.3856 7.41228ZM22.7731 19.1752C22.7414 19.3029 22.6798 19.4213 22.5935 19.5206C22.5072 19.6199 22.3986 19.6974 22.2766 19.7467C18.9819 21.0187 13.3784 20.9958 13.3118 20.9958C13.2452 20.9958 7.65207 21.0146 4.3595 19.7467C4.23747 19.6974 4.12885 19.6199 4.04254 19.5206C3.95623 19.4213 3.89469 19.3029 3.86296 19.1752C3.61521 18.2248 3.32374 16.4739 3.32374 13.4998C3.32374 10.5258 3.61521 8.7749 3.86088 7.82971C3.89202 7.70124 3.95329 7.58202 4.03963 7.48192C4.12598 7.38182 4.23491 7.30371 4.35742 7.25406C7.65207 5.98616 13.2545 6.0049 13.3222 6.0049C13.3899 6.0049 18.9819 5.98616 22.2745 7.25406C22.3965 7.30331 22.5051 7.38078 22.5914 7.48012C22.6778 7.57945 22.7393 7.69783 22.771 7.82555C23.0188 8.7749 23.3102 10.5258 23.3102 13.4998C23.3102 16.4739 23.0188 18.2248 22.7731 19.17V19.1752Z" fill="white"/>
</svg>
