<svg width="1440" height="3019" viewBox="0 0 1440 3019" fill="none" xmlns="http://www.w3.org/2000/svg">
<g opacity="0.1" clip-path="url(#clip0_176_7242)">
<line x1="5.92259" y1="-1320" x2="5.92259" y2="3688.93" stroke="white" stroke-opacity="0.5" stroke-width="1.04049"/>
<line x1="95.4148" y1="-1320" x2="95.4148" y2="3688.93" stroke="white" stroke-opacity="0.5" stroke-width="1.04049"/>
<line x1="184.907" y1="-1320" x2="184.907" y2="3688.93" stroke="white" stroke-opacity="0.5" stroke-width="1.04049"/>
<line x1="274.399" y1="-1320" x2="274.399" y2="3688.93" stroke="white" stroke-opacity="0.5" stroke-width="1.04049"/>
<line x1="363.891" y1="-1320" x2="363.891" y2="3688.93" stroke="white" stroke-opacity="0.5" stroke-width="1.04049"/>
<line x1="453.384" y1="-1320" x2="453.384" y2="3691.01" stroke="white" stroke-opacity="0.5" stroke-width="1.04049"/>
<line x1="542.876" y1="-1320" x2="542.876" y2="3691.01" stroke="white" stroke-opacity="0.5" stroke-width="1.04049"/>
<line x1="632.368" y1="-1320" x2="632.368" y2="3691.01" stroke="white" stroke-opacity="0.5" stroke-width="1.04049"/>
<line x1="721.86" y1="-1320" x2="721.86" y2="3691.01" stroke="white" stroke-opacity="0.5" stroke-width="1.04049"/>
<line x1="811.352" y1="-1320" x2="811.352" y2="3691.01" stroke="white" stroke-opacity="0.5" stroke-width="1.04049"/>
<line x1="900.846" y1="-1320" x2="900.846" y2="3691.01" stroke="white" stroke-opacity="0.5" stroke-width="1.04049"/>
<line x1="990.339" y1="-1320" x2="990.339" y2="3691.01" stroke="white" stroke-opacity="0.5" stroke-width="1.04049"/>
<line x1="1079.83" y1="-1320" x2="1079.83" y2="3688.93" stroke="white" stroke-opacity="0.5" stroke-width="1.04049"/>
<line x1="1169.32" y1="-1320" x2="1169.32" y2="3688.93" stroke="white" stroke-opacity="0.5" stroke-width="1.04049"/>
<line x1="1258.82" y1="-1320" x2="1258.82" y2="3688.93" stroke="white" stroke-opacity="0.5" stroke-width="1.04049"/>
<line x1="1348.31" y1="-1320" x2="1348.31" y2="3688.93" stroke="white" stroke-opacity="0.5" stroke-width="1.04049"/>
<line x1="1437.8" y1="-1320" x2="1437.8" y2="3688.93" stroke="white" stroke-opacity="0.5" stroke-width="1.04049"/>
<line x1="-1158" y1="53.0803" x2="2406.73" y2="53.0803" stroke="white" stroke-opacity="0.5" stroke-width="1.04049"/>
<line x1="-1158" y1="144.654" x2="2406.73" y2="144.654" stroke="white" stroke-opacity="0.5" stroke-width="1.04049"/>
<line x1="-1158" y1="236.227" x2="2406.73" y2="236.227" stroke="white" stroke-opacity="0.5" stroke-width="1.04049"/>
<line x1="-1158" y1="327.801" x2="2406.73" y2="327.801" stroke="white" stroke-opacity="0.5" stroke-width="1.04049"/>
<line x1="-1158" y1="419.374" x2="2406.73" y2="419.374" stroke="white" stroke-opacity="0.5" stroke-width="1.04049"/>
<line x1="-1158" y1="510.948" x2="2406.73" y2="510.948" stroke="white" stroke-opacity="0.5" stroke-width="1.04049"/>
<line x1="-1158" y1="602.521" x2="2406.73" y2="602.521" stroke="white" stroke-opacity="0.5" stroke-width="1.04049"/>
<line x1="-1158" y1="694.094" x2="2406.73" y2="694.094" stroke="white" stroke-opacity="0.5" stroke-width="1.04049"/>
<line x1="-1158" y1="785.668" x2="2406.73" y2="785.668" stroke="white" stroke-opacity="0.5" stroke-width="1.04049"/>
<line x1="-1158" y1="877.241" x2="2406.73" y2="877.241" stroke="white" stroke-opacity="0.5" stroke-width="1.04049"/>
<line x1="-1158" y1="968.815" x2="2406.73" y2="968.815" stroke="white" stroke-opacity="0.5" stroke-width="1.04049"/>
<line x1="-1158" y1="1060.39" x2="2406.73" y2="1060.39" stroke="white" stroke-opacity="0.5" stroke-width="1.04049"/>
<line x1="-1158" y1="1151.96" x2="2406.73" y2="1151.96" stroke="white" stroke-opacity="0.5" stroke-width="1.04049"/>
<line x1="-1158" y1="1243.53" x2="2406.73" y2="1243.53" stroke="white" stroke-opacity="0.5" stroke-width="1.04049"/>
<line x1="-1158" y1="1335.11" x2="2406.73" y2="1335.11" stroke="white" stroke-opacity="0.5" stroke-width="1.04049"/>
<line x1="-1158" y1="1426.68" x2="2406.73" y2="1426.68" stroke="white" stroke-opacity="0.5" stroke-width="1.04049"/>
<line x1="-1158" y1="1518.26" x2="2406.73" y2="1518.26" stroke="white" stroke-opacity="0.5" stroke-width="1.04049"/>
<line x1="-1158" y1="1609.83" x2="2406.73" y2="1609.83" stroke="white" stroke-opacity="0.5" stroke-width="1.04049"/>
<line x1="-1158" y1="1701.4" x2="2406.73" y2="1701.4" stroke="white" stroke-opacity="0.5" stroke-width="1.04049"/>
<line x1="-1158" y1="1792.97" x2="2406.73" y2="1792.97" stroke="white" stroke-opacity="0.5" stroke-width="1.04049"/>
<line x1="-1158" y1="1884.55" x2="2406.73" y2="1884.55" stroke="white" stroke-opacity="0.5" stroke-width="1.04049"/>
<line x1="-1158" y1="1976.12" x2="2406.73" y2="1976.12" stroke="white" stroke-opacity="0.5" stroke-width="1.04049"/>
<line x1="-1158" y1="2067.69" x2="2406.73" y2="2067.69" stroke="white" stroke-opacity="0.5" stroke-width="1.04049"/>
<line x1="-1158" y1="2159.27" x2="2406.73" y2="2159.27" stroke="white" stroke-opacity="0.5" stroke-width="1.04049"/>
<line x1="-1158" y1="2250.84" x2="2406.73" y2="2250.84" stroke="white" stroke-opacity="0.5" stroke-width="1.04049"/>
<line x1="-1158" y1="2342.42" x2="2406.73" y2="2342.42" stroke="white" stroke-opacity="0.5" stroke-width="1.04049"/>
<line x1="-1158" y1="2433.99" x2="2406.73" y2="2433.99" stroke="white" stroke-opacity="0.5" stroke-width="1.04049"/>
<line x1="-1158" y1="2525.56" x2="2406.73" y2="2525.56" stroke="white" stroke-opacity="0.5" stroke-width="1.04049"/>
<line x1="-1158" y1="2617.14" x2="2406.73" y2="2617.14" stroke="white" stroke-opacity="0.5" stroke-width="1.04049"/>
<line x1="-1158" y1="2708.71" x2="2406.73" y2="2708.71" stroke="white" stroke-opacity="0.5" stroke-width="1.04049"/>
<line x1="-1158" y1="2800.27" x2="2406.73" y2="2800.27" stroke="white" stroke-opacity="0.5" stroke-width="1.04049"/>
<line x1="-1158" y1="2891.84" x2="2406.73" y2="2891.84" stroke="white" stroke-opacity="0.5" stroke-width="1.04049"/>
<line x1="-1158" y1="2983.42" x2="2406.73" y2="2983.42" stroke="white" stroke-opacity="0.5" stroke-width="1.04049"/>
</g>
<defs>
<clipPath id="clip0_176_7242">
<rect width="2955" height="5169.17" fill="white" transform="translate(-1158 -1320)"/>
</clipPath>
</defs>
</svg>
