<svg width="1440" height="1024" viewBox="0 0 1440 1024" fill="none" xmlns="http://www.w3.org/2000/svg">
<g opacity="0.1" clip-path="url(#clip0_72_2978)">
<line x1="5.92161" y1="-1320" x2="5.92161" y2="3688.93" stroke="white" stroke-opacity="0.5" stroke-width="1.04049"/>
<line x1="95.4138" y1="-1320" x2="95.4138" y2="3688.93" stroke="white" stroke-opacity="0.5" stroke-width="1.04049"/>
<line x1="184.906" y1="-1320" x2="184.906" y2="3688.93" stroke="white" stroke-opacity="0.5" stroke-width="1.04049"/>
<line x1="274.399" y1="-1320" x2="274.399" y2="3688.93" stroke="white" stroke-opacity="0.5" stroke-width="1.04049"/>
<line x1="363.891" y1="-1320" x2="363.891" y2="3688.93" stroke="white" stroke-opacity="0.5" stroke-width="1.04049"/>
<line x1="453.384" y1="-1320" x2="453.384" y2="3691.01" stroke="white" stroke-opacity="0.5" stroke-width="1.04049"/>
<line x1="542.876" y1="-1320" x2="542.876" y2="3691.01" stroke="white" stroke-opacity="0.5" stroke-width="1.04049"/>
<line x1="632.368" y1="-1320" x2="632.368" y2="3691.01" stroke="white" stroke-opacity="0.5" stroke-width="1.04049"/>
<line x1="721.861" y1="-1320" x2="721.861" y2="3691.01" stroke="white" stroke-opacity="0.5" stroke-width="1.04049"/>
<line x1="811.353" y1="-1320" x2="811.353" y2="3691.01" stroke="white" stroke-opacity="0.5" stroke-width="1.04049"/>
<line x1="900.845" y1="-1320" x2="900.845" y2="3691.01" stroke="white" stroke-opacity="0.5" stroke-width="1.04049"/>
<line x1="990.339" y1="-1320" x2="990.339" y2="3691.01" stroke="white" stroke-opacity="0.5" stroke-width="1.04049"/>
<line x1="1079.83" y1="-1320" x2="1079.83" y2="3688.93" stroke="white" stroke-opacity="0.5" stroke-width="1.04049"/>
<line x1="1169.32" y1="-1320" x2="1169.32" y2="3688.93" stroke="white" stroke-opacity="0.5" stroke-width="1.04049"/>
<line x1="1258.82" y1="-1320" x2="1258.82" y2="3688.93" stroke="white" stroke-opacity="0.5" stroke-width="1.04049"/>
<line x1="1348.31" y1="-1320" x2="1348.31" y2="3688.93" stroke="white" stroke-opacity="0.5" stroke-width="1.04049"/>
<line x1="1437.8" y1="-1320" x2="1437.8" y2="3688.93" stroke="white" stroke-opacity="0.5" stroke-width="1.04049"/>
<line x1="-1158" y1="53.0803" x2="2406.73" y2="53.0803" stroke="white" stroke-opacity="0.5" stroke-width="1.04049"/>
<line x1="-1158" y1="144.654" x2="2406.73" y2="144.654" stroke="white" stroke-opacity="0.5" stroke-width="1.04049"/>
<line x1="-1158" y1="236.227" x2="2406.73" y2="236.227" stroke="white" stroke-opacity="0.5" stroke-width="1.04049"/>
<line x1="-1158" y1="327.801" x2="2406.73" y2="327.801" stroke="white" stroke-opacity="0.5" stroke-width="1.04049"/>
<line x1="-1158" y1="419.374" x2="2406.73" y2="419.374" stroke="white" stroke-opacity="0.5" stroke-width="1.04049"/>
<line x1="-1158" y1="510.948" x2="2406.73" y2="510.948" stroke="white" stroke-opacity="0.5" stroke-width="1.04049"/>
<line x1="-1158" y1="602.521" x2="2406.73" y2="602.521" stroke="white" stroke-opacity="0.5" stroke-width="1.04049"/>
<line x1="-1158" y1="694.094" x2="2406.73" y2="694.094" stroke="white" stroke-opacity="0.5" stroke-width="1.04049"/>
<line x1="-1158" y1="785.668" x2="2406.73" y2="785.668" stroke="white" stroke-opacity="0.5" stroke-width="1.04049"/>
<line x1="-1158" y1="877.241" x2="2406.73" y2="877.241" stroke="white" stroke-opacity="0.5" stroke-width="1.04049"/>
<line x1="-1158" y1="968.815" x2="2406.73" y2="968.815" stroke="white" stroke-opacity="0.5" stroke-width="1.04049"/>
</g>
<defs>
<clipPath id="clip0_72_2978">
<rect width="2955" height="5169.17" fill="white" transform="translate(-1158 -1320)"/>
</clipPath>
</defs>
</svg>
