<svg width="42" height="42" viewBox="0 0 42 42" fill="none" xmlns="http://www.w3.org/2000/svg">
<path d="M20.9955 0.574951C16.9558 0.574951 13.0068 1.77287 9.64787 4.01721C6.28897 6.26156 3.67103 9.45153 2.12509 13.1837C0.579162 16.916 0.174676 21.0228 0.962786 24.9849C1.7509 28.947 3.6962 32.5864 6.55271 35.4429C9.40923 38.2994 13.0486 40.2447 17.0107 41.0328C20.9728 41.8209 25.0796 41.4164 28.8119 39.8705C32.5441 38.3246 35.734 35.7066 37.9784 32.3477C40.2227 28.9888 41.4207 25.0398 41.4207 21.0001C41.4149 15.5848 39.2612 10.3929 35.4319 6.56366C31.6027 2.73444 26.4108 0.58067 20.9955 0.574951ZM22.5667 38.2103V25.7136H27.2802C27.6969 25.7136 28.0965 25.5481 28.3911 25.2534C28.6858 24.9588 28.8513 24.5592 28.8513 24.1425C28.8513 23.7258 28.6858 23.3261 28.3911 23.0315C28.0965 22.7368 27.6969 22.5713 27.2802 22.5713H22.5667V17.8578C22.5667 17.0244 22.8977 16.2251 23.487 15.6358C24.0763 15.0465 24.8756 14.7155 25.709 14.7155H28.8513C29.268 14.7155 29.6677 14.5499 29.9623 14.2553C30.257 13.9606 30.4225 13.561 30.4225 13.1443C30.4225 12.7276 30.257 12.328 29.9623 12.0333C29.6677 11.7387 29.268 11.5731 28.8513 11.5731H25.709C24.0422 11.5731 22.4437 12.2352 21.2651 13.4139C20.0865 14.5925 19.4243 16.191 19.4243 17.8578V22.5713H14.7108C14.2941 22.5713 13.8945 22.7368 13.5998 23.0315C13.3052 23.3261 13.1397 23.7258 13.1397 24.1425C13.1397 24.5592 13.3052 24.9588 13.5998 25.2534C13.8945 25.5481 14.2941 25.7136 14.7108 25.7136H19.4243V38.2103C14.9952 37.806 10.8924 35.7097 7.96941 32.3576C5.0464 29.0055 3.52818 24.6556 3.73056 20.2126C3.93293 15.7697 5.84031 11.5758 9.05595 8.50327C12.2716 5.43076 16.5479 3.71618 20.9955 3.71618C25.443 3.71618 29.7194 5.43076 32.935 8.50327C36.1507 11.5758 38.0581 15.7697 38.2604 20.2126C38.4628 24.6556 36.9446 29.0055 34.0216 32.3576C31.0986 35.7097 26.9958 37.806 22.5667 38.2103Z" fill="white"/>
</svg>
