<svg width="84" height="84" viewBox="0 0 84 84" fill="none" xmlns="http://www.w3.org/2000/svg">
<path d="M51.6457 5.06517C51.6826 4.71975 51.5807 4.42178 51.3399 4.17127C51.0991 3.92076 50.7729 3.74854 50.3614 3.6546C50.0604 3.58592 49.786 3.5745 49.5381 3.62035C49.2924 3.6667 49.087 3.76067 48.922 3.90226C48.7592 4.04435 48.6531 4.22382 48.6036 4.44067C48.5622 4.62211 48.5697 4.78795 48.6262 4.9382C48.6854 5.08673 48.7738 5.21981 48.8913 5.33741C49.0093 5.45281 49.1372 5.55533 49.275 5.64499C49.4134 5.73244 49.5418 5.80715 49.6604 5.86913L50.3083 6.21256C50.4747 6.29943 50.657 6.40855 50.8551 6.53991C51.0555 6.67178 51.2391 6.83125 51.4059 7.01831C51.5755 7.20367 51.7005 7.42077 51.7811 7.66963C51.8616 7.91848 51.8655 8.20222 51.7928 8.52085C51.709 8.88816 51.537 9.19809 51.2768 9.45066C51.0188 9.70372 50.6862 9.87574 50.279 9.96671C49.874 10.0582 49.4104 10.0443 48.8882 9.92514C48.4015 9.81403 47.9979 9.63927 47.6775 9.40086C47.3593 9.16296 47.1305 8.88027 46.9911 8.55279C46.8539 8.22582 46.8144 7.87344 46.8727 7.49565L47.7224 7.68958C47.6859 7.9513 47.7237 8.18342 47.8358 8.38592C47.9506 8.58672 48.1148 8.75457 48.3285 8.88947C48.5448 9.02266 48.788 9.12006 49.0579 9.18167C49.3721 9.25339 49.6659 9.26689 49.9391 9.22217C50.2129 9.17524 50.4438 9.07662 50.6317 8.9263C50.8202 8.77376 50.9427 8.57358 50.9993 8.32576C51.0508 8.10007 51.0296 7.90202 50.9358 7.73162C50.842 7.56122 50.7023 7.40829 50.5168 7.27281C50.3312 7.13733 50.1265 7.00913 49.9027 6.88821L49.1208 6.45834C48.6246 6.18445 48.2539 5.87055 48.0088 5.51662C47.7637 5.16269 47.6934 4.75671 47.7979 4.29868C47.8848 3.9181 48.0634 3.60968 48.3339 3.37342C48.607 3.13546 48.9363 2.97782 49.3218 2.90052C49.7099 2.8215 50.1209 2.83149 50.5546 2.93047C50.9927 3.03047 51.3642 3.19791 51.6691 3.43278C51.9745 3.66545 52.196 3.93948 52.3335 4.25488C52.4732 4.57079 52.5095 4.90148 52.4423 5.24698L51.6457 5.06517Z" fill="white"/>
<path d="M55.8294 12.3295C55.3877 12.1168 55.0576 11.8293 54.839 11.4671C54.6204 11.1049 54.5134 10.6995 54.5179 10.2507C54.5224 9.80199 54.6379 9.34246 54.8644 8.87215C55.0948 8.39366 55.3861 8.01374 55.7382 7.7324C56.0934 7.45 56.4792 7.28186 56.8956 7.22796C57.315 7.17301 57.7374 7.24795 58.1627 7.45277C58.494 7.6123 58.763 7.81742 58.9697 8.06812C59.1765 8.31883 59.3115 8.59547 59.3749 8.89805C59.4383 9.20062 59.4195 9.50899 59.3186 9.82314L58.5947 9.47454C58.6429 9.23324 58.6118 8.98399 58.5014 8.72678C58.394 8.46851 58.1809 8.26256 57.8619 8.10894C57.5797 7.97305 57.2968 7.92751 57.0132 7.97232C56.7327 8.01608 56.4691 8.14231 56.2225 8.35102C55.9789 8.55868 55.7714 8.84041 55.6001 9.19621C55.4248 9.56019 55.3294 9.90471 55.314 10.2298C55.3005 10.5558 55.3632 10.8442 55.5019 11.0949C55.6427 11.3466 55.8562 11.5414 56.1425 11.6792C56.3306 11.7698 56.5171 11.8193 56.702 11.8277C56.8869 11.8362 57.062 11.8046 57.2274 11.7332C57.3929 11.6617 57.5394 11.5509 57.6671 11.4008L58.391 11.7494C58.2162 12.0078 57.9943 12.2095 57.7254 12.3546C57.4596 12.4987 57.1633 12.5726 56.8365 12.5764C56.5127 12.5792 56.177 12.4969 55.8294 12.3295Z" fill="white"/>
<path d="M61.1676 15.3978L64.4279 11.3095L65.0348 11.7934L64.5424 12.4109L64.5849 12.4449C64.8208 12.3021 65.0865 12.2455 65.3822 12.2751C65.6779 12.3048 65.9481 12.4173 66.193 12.6126C66.2391 12.6494 66.2961 12.6962 66.3639 12.7532C66.4317 12.8102 66.4819 12.8546 66.5145 12.8864L66.0051 13.5252C65.9881 13.5029 65.9456 13.456 65.8778 13.3845C65.8132 13.3127 65.7392 13.2435 65.6558 13.177C65.4571 13.0185 65.2464 12.9187 65.0237 12.8775C64.8042 12.8361 64.5912 12.852 64.3847 12.9253C64.1814 12.9983 64.0061 13.1271 63.8589 13.3116L61.7958 15.8987L61.1676 15.3978Z" fill="white"/>
<path d="M67.175 21.3678C66.8807 20.9987 66.7102 20.6048 66.6638 20.1861C66.6187 19.7692 66.6918 19.3567 66.8831 18.9487C67.0759 18.5424 67.3834 18.1709 67.8057 17.8341C68.2316 17.4945 68.6649 17.2753 69.1056 17.1763C69.5478 17.0792 69.967 17.099 70.3635 17.2357C70.7613 17.3742 71.1074 17.628 71.4017 17.9971C71.6961 18.3662 71.8658 18.7591 71.9108 19.1761C71.9573 19.5947 71.8833 20.0079 71.6888 20.4156C71.4957 20.825 71.1862 21.1996 70.7604 21.5392C70.3381 21.876 69.9067 22.0922 69.4663 22.188C69.0274 22.2855 68.609 22.265 68.2111 22.1265C67.8147 21.9897 67.4693 21.7368 67.175 21.3678ZM67.7393 20.9178C67.9629 21.1981 68.2187 21.3715 68.5067 21.4379C68.7948 21.5042 69.0906 21.4875 69.3942 21.3877C69.6978 21.2878 69.9862 21.1289 70.2594 20.911C70.5327 20.6931 70.7527 20.4466 70.9193 20.1714C71.086 19.8963 71.1699 19.6102 71.1711 19.3131C71.1722 19.0161 71.061 18.7274 70.8374 18.4471C70.6139 18.1667 70.3572 17.994 70.0673 17.9291C69.7775 17.8641 69.4799 17.8823 69.1745 17.9835C68.8692 18.0848 68.5799 18.2444 68.3066 18.4623C68.0334 18.6802 67.8143 18.926 67.6494 19.1998C67.4845 19.4735 67.4024 19.7582 67.403 20.0538C67.4036 20.3494 67.5157 20.6374 67.7393 20.9178Z" fill="white"/>
<path d="M77.5956 24.795L71.3138 27.8202L70.9652 27.0963L77.247 24.0712L77.5956 24.795Z" fill="white"/>
<path d="M80.4582 33.2058L73.6608 34.7573L73.4821 33.974L80.2794 32.4225L80.4582 33.2058Z" fill="white"/>
<path d="M78.3401 51.6462C78.6855 51.6831 78.9835 51.5812 79.234 51.3404C79.4845 51.0996 79.6567 50.7734 79.7507 50.3618C79.8194 50.0609 79.8308 49.7865 79.7849 49.5386C79.7386 49.2929 79.6446 49.0875 79.503 48.9225C79.3609 48.7597 79.1814 48.6536 78.9646 48.6041C78.7832 48.5627 78.6173 48.5702 78.4671 48.6267C78.3185 48.6859 78.1855 48.7743 78.0679 48.8918C77.9525 49.0097 77.8499 49.1377 77.7603 49.2755C77.6728 49.4138 77.5981 49.5423 77.5361 49.6608L77.1927 50.3088C77.1058 50.4752 76.9967 50.6575 76.8654 50.8556C76.7335 51.056 76.574 51.2396 76.387 51.4064C76.2016 51.5759 75.9845 51.701 75.7356 51.7815C75.4868 51.8621 75.203 51.866 74.8844 51.7933C74.5171 51.7094 74.2072 51.5374 73.9546 51.2773C73.7015 51.0193 73.5295 50.6867 73.4386 50.2795C73.3471 49.8745 73.3609 49.4109 73.4801 48.8887C73.5912 48.4019 73.766 47.9983 74.0044 47.678C74.2423 47.3598 74.525 47.131 74.8525 46.9916C75.1795 46.8543 75.5318 46.8149 75.9096 46.8732L75.7157 47.7228C75.454 47.6864 75.2219 47.7242 75.0194 47.8363C74.8186 47.9511 74.6507 48.1153 74.5158 48.3289C74.3826 48.5453 74.2852 48.7885 74.2236 49.0584C74.1519 49.3726 74.1384 49.6664 74.1831 49.9396C74.23 50.2134 74.3287 50.4443 74.479 50.6322C74.6315 50.8207 74.8317 50.9432 75.0795 50.9997C75.3052 51.0513 75.5032 51.0301 75.6736 50.9363C75.844 50.8425 75.997 50.7028 76.1325 50.5172C76.2679 50.3317 76.3961 50.127 76.5171 49.9031L76.9469 49.1213C77.2208 48.6251 77.5347 48.2544 77.8887 48.0093C78.2426 47.7642 78.6486 47.6939 79.1066 47.7984C79.4872 47.8853 79.7956 48.0639 80.0318 48.3343C80.2698 48.6075 80.4274 48.9368 80.5048 49.3222C80.5838 49.7104 80.5738 50.1214 80.4748 50.555C80.3748 50.9932 80.2074 51.3647 79.9725 51.6696C79.7398 51.975 79.4658 52.1964 79.1504 52.334C78.8345 52.4737 78.5038 52.51 78.1583 52.4427L78.3401 51.6462Z" fill="white"/>
<path d="M71.0748 55.8298C71.2875 55.3882 71.575 55.058 71.9372 54.8395C72.2994 54.6209 72.7048 54.5139 73.1536 54.5184C73.6023 54.5229 74.0618 54.6384 74.5321 54.8649C75.0106 55.0953 75.3906 55.3866 75.6719 55.7387C75.9543 56.0939 76.1224 56.4797 76.1763 56.8961C76.2313 57.3155 76.1563 57.7379 75.9515 58.1632C75.792 58.4945 75.5869 58.7635 75.3362 58.9702C75.0855 59.177 74.8088 59.312 74.5062 59.3754C74.2037 59.4388 73.8953 59.42 73.5812 59.3191L73.9298 58.5952C74.1711 58.6434 74.4203 58.6123 74.6775 58.5019C74.9358 58.3945 75.1417 58.1813 75.2954 57.8623C75.4313 57.5802 75.4768 57.2973 75.432 57.0137C75.3882 56.7332 75.262 56.4696 75.0533 56.223C74.8456 55.9794 74.5639 55.7719 74.2081 55.6006C73.8441 55.4253 73.4996 55.3299 73.1745 55.3145C72.8485 55.301 72.5601 55.3637 72.3094 55.5024C72.0577 55.6432 71.8629 55.8567 71.7251 56.143C71.6345 56.3311 71.585 56.5176 71.5765 56.7025C71.5681 56.8874 71.5997 57.0625 71.6711 57.2279C71.7426 57.3933 71.8534 57.5399 72.0035 57.6676L71.6549 58.3915C71.3965 58.2167 71.1948 57.9948 71.0497 57.7259C70.9056 57.4601 70.8317 57.1638 70.8279 56.8369C70.8251 56.5132 70.9074 56.1775 71.0748 55.8298Z" fill="white"/>
<path d="M68.007 61.1681L72.0953 64.4284L71.6113 65.0353L70.9938 64.5428L70.9599 64.5854C71.1027 64.8213 71.1593 65.087 71.1297 65.3827C71.1 65.6783 70.9875 65.9486 70.7922 66.1935C70.7554 66.2396 70.7086 66.2966 70.6516 66.3644C70.5946 66.4322 70.5502 66.4824 70.5184 66.515L69.8796 66.0056C69.9019 65.9886 69.9488 65.9461 70.0203 65.8783C70.0921 65.8137 70.1613 65.7397 70.2278 65.6563C70.3863 65.4576 70.4861 65.2469 70.5272 65.0242C70.5687 64.8047 70.5528 64.5917 70.4795 64.3852C70.4065 64.1819 70.2777 64.0066 70.0932 63.8594L67.506 61.7963L68.007 61.1681Z" fill="white"/>
<path d="M62.037 67.175C62.4061 66.8807 62.8 66.7103 63.2187 66.6638C63.6356 66.6187 64.048 66.6918 64.4561 66.8831C64.8623 67.0759 65.2339 67.3834 65.5706 67.8057C65.9103 68.2316 66.1295 68.6649 66.2284 69.1056C66.3256 69.5478 66.3058 69.967 66.1691 70.3635C66.0306 70.7613 65.7768 71.1074 65.4077 71.4017C65.0386 71.6961 64.6456 71.8658 64.2287 71.9108C63.8101 71.9573 63.3969 71.8833 62.9892 71.6888C62.5798 71.4957 62.2052 71.1862 61.8656 70.7604C61.5288 70.3381 61.3126 69.9067 61.2168 69.4663C61.1193 69.0274 61.1398 68.609 61.2783 68.2111C61.415 67.8147 61.6679 67.4693 62.037 67.175ZM62.487 67.7393C62.2067 67.9629 62.0333 68.2187 61.9669 68.5067C61.9005 68.7948 61.9173 69.0906 62.0171 69.3942C62.117 69.6978 62.2758 69.9862 62.4938 70.2594C62.7117 70.5327 62.9582 70.7527 63.2334 70.9193C63.5085 71.086 63.7946 71.1699 64.0916 71.1711C64.3887 71.1722 64.6774 71.061 64.9577 70.8375C65.2381 70.6139 65.4107 70.3572 65.4757 70.0673C65.5407 69.7775 65.5225 69.4799 65.4213 69.1745C65.32 68.8692 65.1604 68.5799 64.9425 68.3066C64.7246 68.0334 64.4787 67.8143 64.205 67.6494C63.9313 67.4845 63.6466 67.4024 63.351 67.403C63.0554 67.4036 62.7674 67.5157 62.487 67.7393Z" fill="white"/>
<path d="M58.6097 77.596L55.5846 71.3143L56.3085 70.9657L59.3336 77.2474L58.6097 77.596Z" fill="white"/>
<path d="M50.199 80.4582L48.6475 73.6608L49.4308 73.482L50.9823 80.2794L50.199 80.4582Z" fill="white"/>
<path d="M31.7586 78.3401C31.7217 78.6855 31.8236 78.9835 32.0644 79.234C32.3052 79.4845 32.6314 79.6567 33.0429 79.7507C33.3439 79.8194 33.6183 79.8308 33.8662 79.7849C34.1119 79.7386 34.3173 79.6446 34.4823 79.503C34.6451 79.3609 34.7512 79.1815 34.8007 78.9646C34.8421 78.7832 34.8346 78.6173 34.7781 78.4671C34.7189 78.3185 34.6305 78.1855 34.513 78.0679C34.395 77.9525 34.2671 77.8499 34.1293 77.7603C33.9909 77.6728 33.8625 77.5981 33.7439 77.5361L33.096 77.1927C32.9296 77.1058 32.7473 76.9967 32.5492 76.8654C32.3488 76.7335 32.1652 76.574 31.9984 76.387C31.8288 76.2016 31.7038 75.9845 31.6232 75.7356C31.5427 75.4868 31.5388 75.2031 31.6115 74.8844C31.6953 74.5171 31.8673 74.2072 32.1275 73.9546C32.3855 73.7015 32.7181 73.5295 33.1253 73.4386C33.5303 73.3471 33.9939 73.3609 34.516 73.4801C35.0028 73.5912 35.4064 73.766 35.7268 74.0044C36.045 74.2423 36.2738 74.525 36.4132 74.8525C36.5504 75.1795 36.5899 75.5318 36.5316 75.9096L35.6819 75.7157C35.7184 75.454 35.6806 75.2219 35.5685 75.0194C35.4537 74.8186 35.2895 74.6507 35.0758 74.5158C34.8595 74.3826 34.6163 74.2852 34.3464 74.2236C34.0322 74.1519 33.7384 74.1384 33.4652 74.1831C33.1914 74.23 32.9605 74.3287 32.7726 74.479C32.5841 74.6315 32.4616 74.8317 32.405 75.0795C32.3535 75.3052 32.3747 75.5033 32.4685 75.6737C32.5623 75.8441 32.702 75.997 32.8875 76.1325C33.0731 76.2679 33.2778 76.3961 33.5016 76.5171L34.2835 76.9469C34.7797 77.2208 35.1504 77.5347 35.3955 77.8887C35.6406 78.2426 35.7109 78.6486 35.6064 79.1066C35.5195 79.4872 35.3409 79.7956 35.0704 80.0318C34.7973 80.2698 34.468 80.4274 34.0825 80.5048C33.6944 80.5838 33.2834 80.5738 32.8497 80.4748C32.4116 80.3748 32.0401 80.2074 31.7352 79.9725C31.4298 79.7398 31.2083 79.4658 31.0708 79.1504C30.9311 78.8345 30.8948 78.5038 30.962 78.1583L31.7586 78.3401Z" fill="white"/>
<path d="M27.5749 71.0753C28.0166 71.288 28.3467 71.5755 28.5653 71.9376C28.7838 72.2998 28.8909 72.7053 28.8864 73.1541C28.8819 73.6028 28.7664 74.0623 28.5399 74.5326C28.3095 75.0111 28.0182 75.391 27.6661 75.6724C27.3109 75.9548 26.9251 76.1229 26.5087 76.1768C26.0893 76.2318 25.6669 76.1568 25.2416 75.952C24.9103 75.7925 24.6413 75.5874 24.4345 75.3367C24.2278 75.086 24.0927 74.8093 24.0294 74.5067C23.966 74.2042 23.9848 73.8958 24.0857 73.5816L24.8096 73.9302C24.7614 74.1715 24.7925 74.4208 24.9029 74.678C25.0103 74.9363 25.2234 75.1422 25.5424 75.2958C25.8246 75.4317 26.1075 75.4773 26.3911 75.4325C26.6716 75.3887 26.9352 75.2625 27.1818 75.0538C27.4254 74.8461 27.6328 74.5644 27.8042 74.2086C27.9795 73.8446 28.0749 73.5001 28.0903 73.175C28.1038 72.849 28.0411 72.5606 27.9024 72.3099C27.7616 72.0582 27.5481 71.8634 27.2618 71.7256C27.0737 71.635 26.8872 71.5855 26.7023 71.577C26.5174 71.5686 26.3423 71.6001 26.1769 71.6716C26.0114 71.7431 25.8649 71.8539 25.7372 72.004L25.0133 71.6554C25.1881 71.397 25.41 71.1953 25.6789 71.0502C25.9447 70.9061 26.241 70.8322 26.5678 70.8284C26.8916 70.8256 27.2273 70.9079 27.5749 71.0753Z" fill="white"/>
<path d="M22.2367 68.0075L18.9764 72.0958L18.3695 71.6118L18.8619 70.9943L18.8194 70.9604C18.5835 71.1032 18.3178 71.1598 18.0221 71.1301C17.7264 71.1005 17.4562 70.988 17.2113 70.7927C17.1652 70.7559 17.1082 70.709 17.0404 70.6521C16.9726 70.5951 16.9224 70.5507 16.8898 70.5189L17.3992 69.8801C17.4162 69.9024 17.4587 69.9493 17.5265 70.0208C17.5911 70.0926 17.6651 70.1618 17.7485 70.2283C17.9472 70.3868 18.1579 70.4866 18.3806 70.5277C18.6001 70.5692 18.8131 70.5533 19.0196 70.48C19.2229 70.407 19.3982 70.2782 19.5454 70.0937L21.6085 67.5065L22.2367 68.0075Z" fill="white"/>
<path d="M16.2303 62.037C16.5246 62.4061 16.695 62.8 16.7415 63.2187C16.7866 63.6356 16.7135 64.048 16.5222 64.4561C16.3294 64.8623 16.0219 65.2339 15.5996 65.5706C15.1737 65.9103 14.7404 66.1295 14.2997 66.2285C13.8575 66.3256 13.4382 66.3058 13.0418 66.1691C12.644 66.0306 12.2979 65.7768 12.0036 65.4077C11.7092 65.0386 11.5395 64.6456 11.4944 64.2287C11.4479 63.8101 11.5219 63.3969 11.7165 62.9892C11.9096 62.5798 12.219 62.2052 12.6449 61.8656C13.0672 61.5288 13.4986 61.3126 13.9389 61.2168C14.3779 61.1193 14.7963 61.1398 15.1941 61.2783C15.5906 61.415 15.9359 61.6679 16.2303 62.037ZM15.666 62.487C15.4424 62.2067 15.1866 62.0333 14.8985 61.9669C14.6105 61.9005 14.3146 61.9173 14.0111 62.0171C13.7075 62.117 13.4191 62.2758 13.1458 62.4938C12.8726 62.7117 12.6526 62.9582 12.4859 63.2334C12.3193 63.5085 12.2354 63.7946 12.2342 64.0916C12.233 64.3887 12.3442 64.6774 12.5678 64.9577C12.7914 65.2381 13.0481 65.4107 13.338 65.4757C13.6278 65.5407 13.9254 65.5225 14.2307 65.4213C14.5361 65.32 14.8254 65.1604 15.0986 64.9425C15.3719 64.7246 15.591 64.4787 15.7559 64.205C15.9208 63.9313 16.0029 63.6466 16.0023 63.351C16.0017 63.0554 15.8896 62.7674 15.666 62.487Z" fill="white"/>
<path d="M5.80874 58.6097L12.0905 55.5846L12.4391 56.3085L6.15734 59.3336L5.80874 58.6097Z" fill="white"/>
<path d="M2.94704 50.199L9.74444 48.6475L9.92322 49.4308L3.12583 50.9823L2.94704 50.199Z" fill="white"/>
<path d="M5.06517 31.7591C4.71975 31.7222 4.42179 31.8241 4.17128 32.0649C3.92077 32.3057 3.74854 32.6319 3.65461 33.0434C3.58592 33.3444 3.5745 33.6188 3.62035 33.8667C3.6667 34.1124 3.76067 34.3178 3.90226 34.4828C4.04435 34.6456 4.22382 34.7517 4.44067 34.8012C4.62211 34.8426 4.78795 34.8351 4.9382 34.7786C5.08673 34.7194 5.21981 34.631 5.33741 34.5135C5.45281 34.3955 5.55534 34.2676 5.64499 34.1298C5.73244 33.9914 5.80715 33.863 5.86913 33.7444L6.21257 33.0965C6.29944 32.9301 6.40855 32.7478 6.53992 32.5496C6.67178 32.3493 6.83125 32.1657 7.01832 31.9989C7.20367 31.8293 7.42078 31.7043 7.66963 31.6237C7.91849 31.5432 8.20223 31.5393 8.52085 31.612C8.88816 31.6958 9.1981 31.8678 9.45066 32.128C9.70373 32.386 9.87575 32.7186 9.96671 33.1258C10.0582 33.5308 10.0443 33.9944 9.92514 34.5165C9.81403 35.0033 9.63927 35.4069 9.40086 35.7273C9.16296 36.0455 8.88026 36.2743 8.55279 36.4137C8.22582 36.5509 7.87344 36.5904 7.49565 36.5321L7.68958 35.6824C7.9513 35.7189 8.18342 35.6811 8.38592 35.569C8.58672 35.4542 8.75457 35.29 8.88947 35.0763C9.02266 34.86 9.12006 34.6168 9.18168 34.3469C9.25339 34.0327 9.26689 33.7389 9.22217 33.4657C9.17525 33.1919 9.07662 32.961 8.9263 32.7731C8.77377 32.5846 8.57359 32.4621 8.32577 32.4055C8.10007 32.354 7.90202 32.3752 7.73163 32.469C7.56123 32.5628 7.40829 32.7025 7.27281 32.888C7.13734 33.0736 7.00914 33.2783 6.88821 33.5021L6.45834 34.284C6.18446 34.7802 5.87055 35.1509 5.51662 35.396C5.16269 35.6411 4.75671 35.7114 4.29868 35.6069C3.9181 35.52 3.60968 35.3414 3.37342 35.0709C3.13546 34.7978 2.97782 34.4685 2.90052 34.083C2.8215 33.6948 2.83149 33.2839 2.93048 32.8502C3.03047 32.4121 3.19791 32.0406 3.43279 31.7357C3.66545 31.4303 3.93948 31.2088 4.25488 31.0713C4.57079 30.9316 4.90149 30.8953 5.24698 30.9625L5.06517 31.7591Z" fill="white"/>
<path d="M12.3295 27.5754C12.1168 28.0171 11.8293 28.3472 11.4671 28.5658C11.1049 28.7843 10.6995 28.8914 10.2507 28.8869C9.80199 28.8824 9.34246 28.7669 8.87215 28.5404C8.39366 28.3099 8.01374 28.0187 7.7324 27.6665C7.45 27.3114 7.28186 26.9256 7.22796 26.5092C7.17301 26.0898 7.24795 25.6674 7.45277 25.242C7.6123 24.9108 7.81742 24.6418 8.06812 24.435C8.31883 24.2283 8.59547 24.0932 8.89805 24.0299C9.20062 23.9665 9.50899 23.9853 9.82314 24.0862L9.47454 24.81C9.23324 24.7619 8.98399 24.793 8.72678 24.9034C8.4685 25.0107 8.26256 25.2239 8.10894 25.5429C7.97305 25.8251 7.92751 26.108 7.97232 26.3916C8.01608 26.6721 8.14231 26.9357 8.35102 27.1823C8.55868 27.4259 8.84041 27.6333 9.19621 27.8047C9.56019 27.98 9.90471 28.0753 10.2298 28.0908C10.5558 28.1042 10.8442 28.0416 11.0949 27.9029C11.3466 27.7621 11.5414 27.5486 11.6792 27.2623C11.7698 27.0742 11.8193 26.8877 11.8277 26.7028C11.8362 26.5179 11.8046 26.3428 11.7332 26.1773C11.6617 26.0119 11.5509 25.8654 11.4008 25.7377L11.7494 25.0138C12.0078 25.1886 12.2095 25.4105 12.3546 25.6793C12.4987 25.9452 12.5726 26.2415 12.5764 26.5683C12.5792 26.8921 12.4969 27.2278 12.3295 27.5754Z" fill="white"/>
<path d="M15.3973 22.2372L11.309 18.9768L11.7929 18.37L12.4105 18.8624L12.4444 18.8198C12.3016 18.584 12.245 18.3182 12.2746 18.0226C12.3043 17.7269 12.4168 17.4567 12.6121 17.2118C12.6489 17.1657 12.6957 17.1087 12.7527 17.0409C12.8097 16.9731 12.8541 16.9229 12.8859 16.8902L13.5247 17.3997C13.5024 17.4167 13.4555 17.4591 13.384 17.5269C13.3122 17.5916 13.243 17.6656 13.1765 17.749C13.018 17.9477 12.9182 18.1584 12.8771 18.3811C12.8356 18.6005 12.8515 18.8135 12.9248 19.0201C12.9978 19.2234 13.1266 19.3987 13.3111 19.5458L15.8982 21.609L15.3973 22.2372Z" fill="white"/>
<path d="M21.3683 16.2303C20.9992 16.5246 20.6053 16.695 20.1866 16.7415C19.7697 16.7866 19.3572 16.7135 18.9492 16.5222C18.5429 16.3294 18.1714 16.0219 17.8346 15.5996C17.495 15.1737 17.2757 14.7404 17.1768 14.2997C17.0797 13.8575 17.0995 13.4382 17.2362 13.0418C17.3747 12.644 17.6285 12.2979 17.9976 12.0035C18.3666 11.7092 18.7596 11.5395 19.1765 11.4944C19.5952 11.4479 20.0084 11.5219 20.4161 11.7165C20.8255 11.9096 21.2001 12.219 21.5397 12.6449C21.8765 13.0672 22.0927 13.4986 22.1884 13.9389C22.286 14.3779 22.2655 14.7963 22.127 15.1941C21.9902 15.5906 21.7373 15.9359 21.3683 16.2303ZM20.9183 15.666C21.1986 15.4424 21.372 15.1866 21.4384 14.8985C21.5047 14.6105 21.488 14.3146 21.3882 14.0111C21.2883 13.7075 21.1294 13.4191 20.9115 13.1458C20.6936 12.8726 20.4471 12.6526 20.1719 12.4859C19.8968 12.3193 19.6107 12.2354 19.3136 12.2342C19.0166 12.233 18.7279 12.3442 18.4475 12.5678C18.1672 12.7914 17.9945 13.0481 17.9296 13.338C17.8646 13.6278 17.8828 13.9254 17.984 14.2307C18.0853 14.5361 18.2449 14.8254 18.4628 15.0986C18.6807 15.3719 18.9265 15.591 19.2003 15.7559C19.474 15.9207 19.7587 16.0029 20.0543 16.0023C20.3499 16.0017 20.6379 15.8896 20.9183 15.666Z" fill="white"/>
<path d="M24.7945 5.80923L27.8197 12.091L27.0958 12.4396L24.0707 6.15783L24.7945 5.80923Z" fill="white"/>
<path d="M33.2053 2.94705L34.7568 9.74444L33.9735 9.92322L32.422 3.12583L33.2053 2.94705Z" fill="white"/>
</svg>
