<svg width="42" height="42" viewBox="0 0 42 42" fill="none" xmlns="http://www.w3.org/2000/svg">
<path d="M30.3556 0.574951H11.5016C8.58565 0.57807 5.79003 1.7378 3.72815 3.79968C1.66627 5.86157 0.506537 8.65718 0.503418 11.5731V30.4271C0.506537 33.3431 1.66627 36.1387 3.72815 38.2006C5.79003 40.2624 8.58565 41.4222 11.5016 41.4253H30.3556C33.2715 41.4222 36.0671 40.2624 38.129 38.2006C40.1909 36.1387 41.3506 33.3431 41.3537 30.4271V11.5731C41.3506 8.65718 40.1909 5.86157 38.129 3.79968C36.0671 1.7378 33.2715 0.57807 30.3556 0.574951ZM38.2114 30.4271C38.2114 32.5106 37.3837 34.5088 35.9105 35.982C34.4372 37.4553 32.4391 38.2829 30.3556 38.2829H11.5016C9.41809 38.2829 7.41993 37.4553 5.94667 35.982C4.47342 34.5088 3.64575 32.5106 3.64575 30.4271V11.5731C3.64575 9.48962 4.47342 7.49146 5.94667 6.0182C7.41993 4.54495 9.41809 3.71728 11.5016 3.71728H30.3556C32.4391 3.71728 34.4372 4.54495 35.9105 6.0182C37.3837 7.49146 38.2114 9.48962 38.2114 11.5731V30.4271ZM20.9286 11.5731C19.0641 11.5731 17.2415 12.126 15.6912 13.1619C14.141 14.1977 12.9327 15.67 12.2192 17.3926C11.5057 19.1151 11.319 21.0106 11.6827 22.8392C12.0465 24.6679 12.9443 26.3476 14.2627 27.666C15.5811 28.9844 17.2608 29.8822 19.0895 30.246C20.9181 30.6097 22.8136 30.423 24.5361 29.7095C26.2587 28.996 27.731 27.7877 28.7668 26.2375C29.8027 24.6872 30.3556 22.8646 30.3556 21.0001C30.353 18.5007 29.3589 16.1044 27.5916 14.3371C25.8243 12.5697 23.428 11.5757 20.9286 11.5731ZM20.9286 27.2848C19.6856 27.2848 18.4705 26.9162 17.437 26.2256C16.4035 25.5351 15.598 24.5535 15.1223 23.4052C14.6466 22.2568 14.5222 20.9931 14.7647 19.774C15.0072 18.5549 15.6057 17.4351 16.4847 16.5562C17.3636 15.6773 18.4834 15.0787 19.7025 14.8362C20.9216 14.5937 22.1852 14.7182 23.3336 15.1938C24.482 15.6695 25.4635 16.475 26.1541 17.5085C26.8447 18.5421 27.2132 19.7571 27.2132 21.0001C27.2132 22.6669 26.5511 24.2654 25.3725 25.444C24.1939 26.6226 22.5954 27.2848 20.9286 27.2848ZM33.4979 10.7875C33.4979 11.2537 33.3597 11.7093 33.1007 12.0969C32.8418 12.4844 32.4737 12.7865 32.0431 12.9649C31.6124 13.1433 31.1386 13.1899 30.6814 13.099C30.2242 13.0081 29.8043 12.7836 29.4747 12.454C29.1451 12.1244 28.9206 11.7045 28.8297 11.2473C28.7388 10.7901 28.7854 10.3163 28.9638 9.88564C29.1422 9.455 29.4443 9.08693 29.8318 8.82797C30.2194 8.569 30.675 8.43078 31.1412 8.43078C31.7662 8.43078 32.3657 8.67908 32.8076 9.12106C33.2496 9.56304 33.4979 10.1625 33.4979 10.7875Z" fill="white"/>
</svg>
