<svg width="130" height="130" viewBox="0 0 130 130" fill="none" xmlns="http://www.w3.org/2000/svg">
<path d="M61.0057 111.313L58.9422 125.003L57.2844 124.754L59.1262 112.534L52.7624 111.575L52.984 110.104L61.0057 111.313Z" fill="white"/>
<path d="M45.0452 106.742C45.9467 107.176 46.6284 107.749 47.0905 108.462C47.5466 109.177 47.7782 109.979 47.7854 110.867C47.7865 111.758 47.5564 112.683 47.0949 113.641C46.6334 114.599 46.0521 115.36 45.3509 115.923C44.6437 116.487 43.8767 116.823 43.0498 116.93C42.2169 117.04 41.3782 116.891 40.5336 116.484C40.0463 116.249 39.6043 115.936 39.2074 115.545C38.8105 115.154 38.5052 114.682 38.2914 114.129C38.0756 113.58 37.9957 112.951 38.0517 112.242C38.1077 111.534 38.3459 110.743 38.7663 109.87L39.0597 109.261L46.2711 112.734L45.6727 113.977L39.9231 111.208C39.6689 111.736 39.5476 112.258 39.5593 112.773C39.5669 113.287 39.7059 113.757 39.9763 114.182C40.2426 114.606 40.6357 114.942 41.1554 115.193C41.7279 115.468 42.2918 115.565 42.8469 115.482C43.396 115.401 43.8907 115.189 44.3311 114.846C44.7714 114.503 45.1158 114.074 45.3641 113.558L45.7631 112.73C46.1033 112.023 46.2699 111.366 46.2629 110.757C46.2498 110.15 46.0857 109.614 45.7703 109.147C45.453 108.684 45.004 108.312 44.4234 108.033C44.0458 107.851 43.6793 107.739 43.3239 107.698C42.9625 107.659 42.6183 107.694 42.2914 107.801C41.9624 107.913 41.6589 108.102 41.3806 108.368L40.1796 107.31C40.5526 106.909 40.9978 106.613 41.515 106.422C42.0302 106.235 42.5896 106.164 43.1929 106.21C43.7944 106.259 44.4118 106.436 45.0452 106.742Z" fill="white"/>
<path d="M33.5909 99.0569C34.0733 99.5045 34.4267 100.001 34.6513 100.548C34.8727 101.098 34.9382 101.653 34.8476 102.215C34.7539 102.78 34.4772 103.31 34.0174 103.805C33.6127 104.241 33.1988 104.515 32.7757 104.627C32.3494 104.742 31.9206 104.743 31.4891 104.632C31.0576 104.52 30.6331 104.342 30.2158 104.096C29.792 103.85 29.3819 103.587 28.9855 103.305C28.4678 102.935 28.0514 102.632 27.7364 102.395C27.415 102.158 27.153 102.016 26.9504 101.97C26.7444 101.92 26.5541 101.989 26.3793 102.178L26.3426 102.217C25.8889 102.706 25.6702 103.21 25.6864 103.73C25.6993 104.246 25.9751 104.754 26.5136 105.253C27.0719 105.771 27.623 106.055 28.167 106.105C28.711 106.155 29.1762 106.101 29.5625 105.943L30.3047 107.369C29.6774 107.648 29.0789 107.763 28.5095 107.714C27.9336 107.665 27.4016 107.51 26.9135 107.247C26.4189 106.985 25.98 106.676 25.5968 106.321C25.3523 106.094 25.0991 105.804 24.8371 105.45C24.5688 105.096 24.3687 104.693 24.2369 104.238C24.1018 103.781 24.1022 103.28 24.2381 102.736C24.374 102.192 24.7224 101.618 25.2834 101.013L29.9367 95.9983L31.1062 97.0834L30.1498 98.1142L30.2093 98.1694C30.4418 98.0777 30.738 98.0236 31.0977 98.007C31.4574 97.9903 31.8522 98.0584 32.2821 98.2114C32.712 98.3643 33.1482 98.6462 33.5909 99.0569ZM32.4377 99.942C31.9752 99.5128 31.5011 99.242 31.0153 99.1294C30.5263 99.0137 30.0675 99.0245 29.6389 99.1618C29.207 99.2959 28.8439 99.5216 28.5496 99.8387L27.5565 100.909C27.6612 100.896 27.8208 100.942 28.0353 101.049C28.2434 101.156 28.4733 101.293 28.7251 101.459C28.9705 101.625 29.2078 101.79 29.4372 101.953C29.6602 102.117 29.8421 102.249 29.983 102.349C30.3237 102.591 30.6676 102.791 31.0147 102.947C31.3553 103.103 31.6879 103.169 32.0122 103.144C32.3302 103.119 32.6271 102.958 32.903 102.661C33.2801 102.254 33.4148 101.808 33.3073 101.321C33.1934 100.834 32.9036 100.374 32.4377 99.942Z" fill="white"/>
<path d="M25.425 89.7544L16.4325 94.9462L15.6618 93.6114L17.0201 92.8272L16.966 92.7335C16.4264 92.8265 15.8941 92.7383 15.3691 92.469C14.8441 92.1996 14.4262 91.7956 14.1152 91.257C14.0566 91.1555 13.9853 91.0276 13.9013 90.8731C13.8174 90.7186 13.7567 90.6001 13.7195 90.5175L15.1246 89.7063C15.1399 89.7599 15.1843 89.8774 15.2578 90.0587C15.3251 90.2384 15.4117 90.42 15.5176 90.6035C15.77 91.0406 16.0871 91.3779 16.4688 91.6155C16.8444 91.8514 17.2497 91.9765 17.6846 91.9908C18.1134 92.0034 18.5308 91.8925 18.9367 91.6582L24.6273 88.3727L25.425 89.7544Z" fill="white"/>
<path d="M14.048 79.7616L20.1378 78.3717L20.4929 79.9271L10.3695 82.2377L10.0266 80.735L11.6083 80.3739L11.5782 80.2421C11.01 80.1222 10.5148 79.8562 10.0925 79.4441C9.66581 79.033 9.36523 78.4451 9.19073 77.6806C9.03429 76.9952 9.038 76.3633 9.20187 75.7851C9.36135 75.2078 9.69189 74.7117 10.1935 74.2967C10.6907 73.8828 11.3699 73.5775 12.2311 73.381L18.6636 71.9128L19.0187 73.4682L12.6916 74.9123C11.8963 75.0938 11.3239 75.4417 10.9744 75.956C10.6205 76.4713 10.5258 77.0893 10.6903 77.8099C10.8036 78.3064 11.0125 78.7256 11.3171 79.0675C11.6206 79.405 12.0045 79.6387 12.4686 79.7685C12.9328 79.8983 13.4593 79.896 14.048 79.7616Z" fill="white"/>
<path d="M6.18935 48.951L6.92041 47.0883L19.3373 46.9071L19.3966 46.7561L10.4176 38.1776L11.1487 36.3149L24.0365 41.373L23.4635 42.833L13.6718 38.99L13.6224 39.1159L21.8335 46.9863L21.2802 48.3959L9.90784 48.5804L9.85844 48.7062L19.6502 52.5492L19.0772 54.0091L6.18935 48.951Z" fill="white"/>
<path d="M28.7403 35.8373C28.1559 36.5702 27.4686 37.0741 26.6786 37.3492C25.8914 37.6206 25.0606 37.6613 24.1862 37.4712C23.3145 37.2776 22.4594 36.8464 21.6208 36.1777C20.7751 35.5033 20.1592 34.7613 19.7729 33.9518C19.3895 33.1387 19.2425 32.3183 19.332 31.4904C19.4243 30.659 19.7627 29.8769 20.3472 29.144C20.9317 28.4111 21.6175 27.9089 22.4047 27.6374C23.1947 27.3624 24.0273 27.3231 24.9024 27.5195C25.7804 27.7124 26.6423 28.1461 27.4879 28.8205C28.3265 29.4892 28.9358 30.2288 29.3157 31.039C29.6984 31.8457 29.8436 32.6648 29.7513 33.4961C29.6618 34.324 29.3248 35.1044 28.7403 35.8373ZM27.6198 34.9437C28.0638 34.387 28.2864 33.8151 28.2876 33.2281C28.2888 32.6411 28.1257 32.0758 27.7983 31.5323C27.4709 30.9887 27.0358 30.5006 26.4932 30.0678C25.9506 29.6351 25.3761 29.3182 24.7698 29.1171C24.1635 28.9161 23.5725 28.88 22.997 29.009C22.4214 29.138 21.9117 29.4808 21.4677 30.0376C21.0237 30.5943 20.8029 31.1676 20.8052 31.7574C20.8075 32.3472 20.9742 32.9153 21.3051 33.4617C21.6361 34.008 22.0728 34.4976 22.6155 34.9303C23.1581 35.3631 23.7308 35.6786 24.3336 35.8768C24.9364 36.0751 25.5238 36.1083 26.0958 35.9765C26.6679 35.8447 27.1759 35.5004 27.6198 34.9437Z" fill="white"/>
<path d="M36.9819 27.5727L31.1326 18.9933L32.4061 18.1251L33.2896 19.4209L33.3789 19.36C33.2459 18.8288 33.2941 18.2915 33.5234 17.7478C33.7528 17.2042 34.1244 16.7572 34.6383 16.4068C34.7351 16.3408 34.8574 16.2602 35.0051 16.1649C35.1529 16.0696 35.2666 16.0003 35.3461 15.9569L36.2601 17.2975C36.2078 17.3168 36.0939 17.3698 35.9186 17.4567C35.7444 17.5372 35.5698 17.6372 35.3948 17.7565C34.9778 18.0408 34.6651 18.3822 34.4567 18.7806C34.2495 19.1728 34.1551 19.5863 34.1733 20.0211C34.1928 20.4497 34.3345 20.8576 34.5986 21.2448L38.3001 26.674L36.9819 27.5727Z" fill="white"/>
<path d="M50.6652 20.8361C49.7091 21.131 48.8193 21.1744 47.9958 20.9662C47.1752 20.7524 46.4601 20.3222 45.8503 19.6755C45.2434 19.0231 44.7833 18.1888 44.4698 17.1724C44.1563 16.1561 44.0651 15.2032 44.1964 14.3138C44.3306 13.4187 44.6644 12.6508 45.1978 12.0099C45.7341 11.3634 46.4501 10.902 47.3459 10.6257C47.8627 10.4663 48.3996 10.395 48.9566 10.4118C49.5136 10.4287 50.0586 10.5671 50.5916 10.8272C51.1232 11.0829 51.6095 11.4895 52.0502 12.0468C52.491 12.6042 52.8541 13.3458 53.1397 14.2717L53.339 14.9177L45.6905 17.277L45.284 15.9592L51.3821 14.0781C51.2094 13.5183 50.9434 13.0533 50.5839 12.6831C50.2288 12.3115 49.8075 12.0618 49.32 11.9339C48.8368 11.8047 48.3196 11.8251 47.7683 11.9952C47.1611 12.1825 46.6822 12.4953 46.3316 12.9336C45.984 13.3662 45.7655 13.8581 45.6761 14.4092C45.5867 14.9603 45.6263 15.5093 45.795 16.0562L46.066 16.9348C46.2972 17.6841 46.6223 18.2795 47.0414 18.7209C47.4635 19.1566 47.949 19.4384 48.4978 19.5663C49.0453 19.6898 49.6269 19.6566 50.2428 19.4666C50.6433 19.3431 50.9878 19.1755 51.2762 18.9639C51.5676 18.7467 51.7966 18.4874 51.963 18.1861C52.1282 17.8805 52.2222 17.5355 52.2451 17.1511L53.8455 17.1102C53.8446 17.6576 53.7195 18.1772 53.4704 18.6691C53.2199 19.1567 52.858 19.589 52.3848 19.9661C51.9102 20.3389 51.337 20.6289 50.6652 20.8361Z" fill="white"/>
<path d="M75.2953 19.5412L79.3761 6.31141L80.9782 6.80557L77.3357 18.6142L83.4855 20.5112L83.0471 21.9323L75.2953 19.5412Z" fill="white"/>
<path d="M90.4005 26.4407C89.5739 25.877 88.9852 25.2084 88.6345 24.4347C88.29 23.6599 88.1805 22.8325 88.3059 21.9525C88.4376 21.0714 88.803 20.1914 89.4021 19.3126C90.0013 18.4338 90.6895 17.7685 91.4667 17.3165C92.2501 16.8634 93.0587 16.6456 93.8923 16.663C94.7321 16.6792 95.5393 16.9514 96.3138 17.4794C96.7607 17.7841 97.1512 18.1594 97.4853 18.6054C97.8194 19.0514 98.051 19.5638 98.1799 20.1426C98.3115 20.7178 98.2968 21.3514 98.1358 22.0435C97.9749 22.7356 97.6215 23.4819 97.0756 24.2825L96.6948 24.8411L90.0815 20.3322L90.8584 19.1928L96.1311 22.7876C96.4612 22.3036 96.6589 21.8056 96.7242 21.2938C96.7932 20.7845 96.7258 20.2994 96.5218 19.8385C96.3216 19.3802 95.9831 18.9885 95.5065 18.6636C94.9815 18.3056 94.4383 18.1262 93.8771 18.1254C93.3221 18.1233 92.8013 18.2592 92.3147 18.5329C91.8281 18.8066 91.4235 19.1799 91.1011 19.6528L90.5832 20.4124C90.1415 21.0603 89.8787 21.6857 89.7949 22.2886C89.7174 22.8903 89.7998 23.4456 90.042 23.9544C90.2868 24.4594 90.6754 24.8935 91.2079 25.2565C91.5542 25.4926 91.9 25.6575 92.2453 25.7511C92.5968 25.8435 92.9423 25.8608 93.2816 25.8031C93.6235 25.7416 93.9519 25.6001 94.2667 25.3783L95.2965 26.6041C94.8679 26.9446 94.3837 27.1708 93.8437 27.2827C93.3064 27.3909 92.7427 27.3775 92.1529 27.2426C91.5655 27.104 90.9814 26.8367 90.4005 26.4407Z" fill="white"/>
<path d="M100.578 35.7483C100.168 35.2339 99.8923 34.6897 99.7517 34.1159C99.6146 33.5392 99.6327 32.98 99.806 32.4383C99.9828 31.8938 100.335 31.4108 100.864 30.9894C101.329 30.6184 101.779 30.4094 102.214 30.3622C102.653 30.3122 103.077 30.3744 103.487 30.5489C103.897 30.7234 104.29 30.9633 104.666 31.2687C105.049 31.5747 105.415 31.8966 105.765 32.2343C106.222 32.677 106.588 33.039 106.865 33.3202C107.147 33.6022 107.385 33.7814 107.578 33.8577C107.775 33.9375 107.973 33.8973 108.174 33.7372L108.216 33.7035C108.738 33.2876 109.029 32.8217 109.091 32.3059C109.155 31.7936 108.958 31.2503 108.5 30.676C108.025 30.0805 107.522 29.7176 106.992 29.5872C106.461 29.4569 105.993 29.4411 105.588 29.5397L105.066 28.0186C105.728 27.8366 106.337 27.8122 106.893 27.9454C107.455 28.0793 107.958 28.3123 108.402 28.6445C108.852 28.9774 109.239 29.3482 109.565 29.757C109.773 30.0177 109.98 30.3425 110.187 30.7313C110.399 31.1209 110.537 31.5501 110.6 32.019C110.665 32.4913 110.59 32.9864 110.375 33.5041C110.159 34.0218 109.729 34.5377 109.084 35.052L103.736 39.3174L102.741 38.0701L103.84 37.1934L103.79 37.13C103.546 37.1859 103.245 37.1953 102.887 37.1581C102.529 37.121 102.148 36.9948 101.746 36.7795C101.344 36.5642 100.954 36.2205 100.578 35.7483ZM101.85 35.045C102.244 35.5383 102.672 35.8768 103.136 36.0605C103.602 36.2478 104.057 36.3055 104.501 36.2337C104.949 36.1654 105.341 35.9964 105.679 35.7266L106.821 34.8162C106.715 34.8139 106.565 34.744 106.368 34.6065C106.179 34.4696 105.972 34.3004 105.747 34.0987C105.53 33.8978 105.319 33.6993 105.117 33.5034C104.921 33.3081 104.761 33.1505 104.636 33.0307C104.335 32.7402 104.025 32.492 103.705 32.286C103.392 32.0807 103.073 31.9662 102.748 31.9424C102.43 31.9194 102.112 32.0344 101.795 32.2873C101.362 32.6329 101.162 33.0545 101.196 33.5522C101.236 34.0506 101.454 34.5482 101.85 35.045Z" fill="white"/>
<path d="M107.268 46.162L116.934 42.3684L117.497 43.8032L116.038 44.3762L116.077 44.4769C116.624 44.4654 117.138 44.6319 117.617 44.9765C118.096 45.3211 118.449 45.7828 118.676 46.3618C118.719 46.4709 118.77 46.608 118.83 46.7733C118.89 46.9386 118.932 47.0648 118.957 47.152L117.447 47.7447C117.44 47.6894 117.413 47.5667 117.368 47.3764C117.328 47.1887 117.269 46.9962 117.192 46.799C117.007 46.3292 116.744 45.9483 116.402 45.6565C116.066 45.3673 115.684 45.1832 115.256 45.1042C114.834 45.0279 114.404 45.0753 113.968 45.2465L107.851 47.6471L107.268 46.162Z" fill="white"/>
<path d="M117.026 57.7391L110.797 58.2059L110.678 56.615L121.033 55.839L121.148 57.376L119.53 57.4973L119.54 57.6321C120.084 57.8354 120.534 58.1723 120.89 58.6427C121.251 59.1128 121.461 59.7389 121.519 60.5209C121.572 61.222 121.474 61.8462 121.226 62.3936C120.982 62.9406 120.581 63.3819 120.023 63.7175C119.47 64.0527 118.753 64.2533 117.872 64.3193L111.292 64.8124L111.173 63.2215L117.645 62.7365C118.458 62.6755 119.076 62.4168 119.498 61.9603C119.925 61.5035 120.111 60.9066 120.056 60.1696C120.018 59.6617 119.873 59.216 119.623 58.8326C119.373 58.4536 119.029 58.1653 118.589 57.9678C118.149 57.7702 117.628 57.694 117.026 57.7391Z" fill="white"/>
<path d="M120.204 89.3777L119.203 91.1106L106.898 89.4392L106.817 89.5797L114.417 99.4006L113.416 101.134L101.426 94.2111L102.21 92.8528L111.32 98.1123L111.388 97.9952L104.441 88.9888L105.198 87.6774L116.471 89.19L116.539 89.0729L107.429 83.8135L108.214 82.4552L120.204 89.3777Z" fill="white"/>
<path d="M95.9533 98.9838C96.6404 98.3462 97.3951 97.9503 98.2173 97.7961C99.0361 97.6449 99.8637 97.7285 100.7 98.0468C101.533 98.3682 102.314 98.922 103.044 99.7083C103.78 100.501 104.278 101.327 104.54 102.185C104.797 103.046 104.821 103.879 104.609 104.684C104.393 105.493 103.942 106.216 103.255 106.853C102.568 107.491 101.815 107.885 100.996 108.036C100.174 108.191 99.3447 108.105 98.5086 107.781C97.6691 107.459 96.8816 106.902 96.1459 106.109C95.4163 105.323 94.9241 104.501 94.6692 103.643C94.4109 102.788 94.3894 101.956 94.6047 101.148C94.8166 100.343 95.2661 99.6214 95.9533 98.9838ZM96.9281 100.034C96.4061 100.519 96.1007 101.051 96.0121 101.631C95.9234 102.212 96.0004 102.795 96.2432 103.381C96.4859 103.967 96.8433 104.515 97.3154 105.024C97.7875 105.532 98.3083 105.931 98.8779 106.221C99.4475 106.51 100.026 106.634 100.615 106.592C101.203 106.55 101.758 106.287 102.28 105.803C102.802 105.318 103.106 104.784 103.192 104.201C103.277 103.617 103.197 103.031 102.951 102.441C102.706 101.851 102.347 101.302 101.875 100.793C101.402 100.285 100.883 99.8874 100.317 99.6015C99.7501 99.3156 99.1742 99.1952 98.589 99.2403C98.0037 99.2853 97.4501 99.55 96.9281 100.034Z" fill="white"/>
<path d="M86.5708 105.928L91.0761 115.283L89.6874 115.952L89.0069 114.539L88.9095 114.586C88.9618 115.131 88.8341 115.655 88.5263 116.158C88.2185 116.662 87.7844 117.048 87.224 117.318C87.1185 117.369 86.9855 117.43 86.8252 117.503C86.6649 117.575 86.5422 117.626 86.4571 117.657L85.7531 116.196C85.8077 116.184 85.9282 116.149 86.1145 116.089C86.2987 116.035 86.4863 115.963 86.6771 115.871C87.1319 115.652 87.492 115.361 87.7574 114.998C88.0207 114.641 88.1757 114.246 88.2225 113.813C88.2671 113.387 88.1877 112.962 87.9844 112.54L85.1334 106.62L86.5708 105.928Z" fill="white"/>
<path d="M72.0354 110.551C73.0247 110.402 73.911 110.492 74.6944 110.82C75.4739 111.154 76.117 111.686 76.6236 112.416C77.1264 113.152 77.4571 114.046 77.6156 115.097C77.7741 116.149 77.7222 117.105 77.4598 117.965C77.1937 118.83 76.7492 119.539 76.1263 120.094C75.4996 120.653 74.7228 121.002 73.7958 121.142C73.261 121.223 72.7195 121.213 72.1712 121.114C71.623 121.014 71.1047 120.796 70.6164 120.459C70.1288 120.127 69.7086 119.653 69.3559 119.036C69.0031 118.419 68.7545 117.631 68.6101 116.673L68.5094 116.005L76.424 114.812L76.6296 116.176L70.3192 117.127C70.4065 117.706 70.6003 118.206 70.9006 118.625C71.1964 119.046 71.5758 119.355 72.0388 119.554C72.4973 119.754 73.0118 119.811 73.5822 119.725C74.2106 119.63 74.7308 119.392 75.1427 119.011C75.551 118.635 75.8403 118.181 76.0109 117.65C76.1814 117.118 76.2241 116.569 76.1387 116.003L76.0017 115.094C75.8848 114.319 75.6521 113.682 75.3034 113.183C74.951 112.689 74.5129 112.338 73.9893 112.13C73.4664 111.926 72.8863 111.872 72.249 111.968C71.8345 112.031 71.4689 112.145 71.1522 112.311C70.8316 112.483 70.5666 112.705 70.3571 112.978C70.1482 113.256 70.0038 113.583 69.9239 113.959L68.3353 113.761C68.4178 113.22 68.6189 112.725 68.9386 112.276C69.259 111.831 69.6812 111.457 70.2053 111.155C70.7302 110.857 71.3402 110.656 72.0354 110.551Z" fill="white"/>
</svg>
