<svg width="1420" height="1024" viewBox="0 0 1420 1024" fill="none" xmlns="http://www.w3.org/2000/svg">
<g opacity="0.1" clip-path="url(#clip0_177_1353)">
<line x1="0.25" x2="0.25" y2="2407" stroke="white" stroke-width="0.5"/>
<line x1="43.26" x2="43.26" y2="2407" stroke="white" stroke-width="0.5"/>
<line x1="86.27" x2="86.27" y2="2408" stroke="white" stroke-width="0.5"/>
<line x1="129.28" x2="129.28" y2="2408" stroke="white" stroke-width="0.5"/>
<line x1="172.29" x2="172.29" y2="2408" stroke="white" stroke-width="0.5"/>
<line x1="215.3" x2="215.3" y2="2408" stroke="white" stroke-width="0.5"/>
<line x1="258.31" x2="258.31" y2="2408" stroke="white" stroke-width="0.5"/>
<line x1="301.32" x2="301.32" y2="2408" stroke="white" stroke-width="0.5"/>
<line x1="344.33" x2="344.33" y2="2408" stroke="white" stroke-width="0.5"/>
<line x1="387.34" x2="387.34" y2="2407" stroke="white" stroke-width="0.5"/>
<line x1="430.35" x2="430.35" y2="2407" stroke="white" stroke-width="0.5"/>
<line x1="473.36" x2="473.36" y2="2407" stroke="white" stroke-width="0.5"/>
<line x1="516.37" x2="516.37" y2="2407" stroke="white" stroke-width="0.5"/>
<line x1="559.38" x2="559.38" y2="2407" stroke="white" stroke-width="0.5"/>
<line x1="602.39" x2="602.39" y2="2407" stroke="white" stroke-width="0.5"/>
<line x1="645.4" x2="645.4" y2="2407" stroke="white" stroke-width="0.5"/>
<line x1="688.41" x2="688.41" y2="2407" stroke="white" stroke-width="0.5"/>
<line x1="731.42" x2="731.42" y2="2407" stroke="white" stroke-width="0.5"/>
<line x1="774.43" x2="774.43" y2="2408" stroke="white" stroke-width="0.5"/>
<line x1="817.44" x2="817.44" y2="2408" stroke="white" stroke-width="0.5"/>
<line x1="860.45" x2="860.45" y2="2408" stroke="white" stroke-width="0.5"/>
<line x1="903.46" x2="903.46" y2="2408" stroke="white" stroke-width="0.5"/>
<line x1="946.47" x2="946.47" y2="2408" stroke="white" stroke-width="0.5"/>
<line x1="989.48" x2="989.48" y2="2408" stroke="white" stroke-width="0.5"/>
<line x1="1032.49" x2="1032.49" y2="2408" stroke="white" stroke-width="0.5"/>
<line x1="1075.5" x2="1075.5" y2="2407" stroke="white" stroke-width="0.5"/>
<line x1="1118.51" x2="1118.51" y2="2407" stroke="white" stroke-width="0.5"/>
<line x1="1161.52" x2="1161.52" y2="2407" stroke="white" stroke-width="0.5"/>
<line x1="1204.53" x2="1204.53" y2="2407" stroke="white" stroke-width="0.5"/>
<line x1="1247.54" x2="1247.54" y2="2407" stroke="white" stroke-width="0.5"/>
<line x1="1290.55" x2="1290.55" y2="2407" stroke="white" stroke-width="0.5"/>
<line x1="1333.56" x2="1333.56" y2="2407" stroke="white" stroke-width="0.5"/>
<line x1="1376.57" x2="1376.57" y2="2407" stroke="white" stroke-width="0.5"/>
<line x1="1419.58" x2="1419.58" y2="2408" stroke="white" stroke-width="0.5"/>
<line y1="43.7598" x2="1713" y2="43.7598" stroke="white" stroke-width="0.5"/>
<line y1="87.77" x2="1713" y2="87.77" stroke="white" stroke-width="0.5"/>
<line y1="131.78" x2="1713" y2="131.78" stroke="white" stroke-width="0.5"/>
<line y1="175.79" x2="1713" y2="175.79" stroke="white" stroke-width="0.5"/>
<line y1="219.8" x2="1714" y2="219.8" stroke="white" stroke-width="0.5"/>
<line y1="263.81" x2="1713" y2="263.81" stroke="white" stroke-width="0.5"/>
<line y1="307.82" x2="1713" y2="307.82" stroke="white" stroke-width="0.5"/>
<line y1="351.83" x2="1713" y2="351.83" stroke="white" stroke-width="0.5"/>
<line y1="395.84" x2="1713" y2="395.84" stroke="white" stroke-width="0.5"/>
<line y1="439.85" x2="1713" y2="439.85" stroke="white" stroke-width="0.5"/>
<line y1="483.86" x2="1713" y2="483.86" stroke="white" stroke-width="0.5"/>
<line y1="527.87" x2="1713" y2="527.87" stroke="white" stroke-width="0.5"/>
<line y1="571.88" x2="1713" y2="571.88" stroke="white" stroke-width="0.5"/>
<line y1="615.89" x2="1713" y2="615.89" stroke="white" stroke-width="0.5"/>
<line y1="659.9" x2="1713" y2="659.9" stroke="white" stroke-width="0.5"/>
<line y1="703.91" x2="1713" y2="703.91" stroke="white" stroke-width="0.5"/>
<line y1="747.92" x2="1713" y2="747.92" stroke="white" stroke-width="0.5"/>
<line y1="791.93" x2="1713" y2="791.93" stroke="white" stroke-width="0.5"/>
<line y1="835.94" x2="1713" y2="835.94" stroke="white" stroke-width="0.5"/>
<line y1="879.95" x2="1713" y2="879.95" stroke="white" stroke-width="0.5"/>
<line y1="923.96" x2="1713" y2="923.96" stroke="white" stroke-width="0.5"/>
<line y1="967.97" x2="1713" y2="967.97" stroke="white" stroke-width="0.5"/>
<line y1="1011.98" x2="1713" y2="1011.98" stroke="white" stroke-width="0.5"/>
</g>
<defs>
<clipPath id="clip0_177_1353">
<rect width="1420" height="2484" fill="white"/>
</clipPath>
</defs>
</svg>
