<svg width="443" height="114" viewBox="0 0 443 114" fill="none" xmlns="http://www.w3.org/2000/svg">
<g filter="url(#filter0_diii_1_4)">
<path d="M424 6H19C14.5817 6 11 9.58172 11 14V90.1733C11 94.5916 14.5817 98.1733 19 98.1733H424C428.418 98.1733 432 94.5916 432 90.1733V14C432 9.58172 428.418 6 424 6Z" fill="url(#paint0_linear_1_4)" fill-opacity="0.2"/>
<path d="M424 7.2933H19C15.296 7.2933 12.2933 10.296 12.2933 14V90.1733C12.2933 93.8773 15.296 96.88 19 96.88H424C427.704 96.88 430.706 93.8773 430.706 90.1733V14C430.706 10.296 427.704 7.2933 424 7.2933Z" stroke="white" stroke-opacity="0.07" stroke-width="2.58667"/>
<path style="mix-blend-mode:overlay" d="M424 7.2933H19C15.296 7.2933 12.2933 10.296 12.2933 14V90.1733C12.2933 93.8773 15.296 96.88 19 96.88H424C427.704 96.88 430.706 93.8773 430.706 90.1733V14C430.706 10.296 427.704 7.2933 424 7.2933Z" stroke="url(#paint1_linear_1_4)" stroke-opacity="0.2" stroke-width="2.58667"/>
<path d="M148.281 56.8059C148.35 56.8756 148.406 56.9583 148.443 57.0493C148.481 57.1404 148.501 57.238 148.501 57.3365C148.501 57.4351 148.481 57.5327 148.443 57.6237C148.406 57.7148 148.35 57.7975 148.281 57.8672L146.031 60.1172C145.926 60.2222 145.792 60.2937 145.646 60.3227C145.501 60.3517 145.35 60.3368 145.213 60.28C145.076 60.2232 144.959 60.127 144.876 60.0035C144.794 59.8801 144.75 59.735 144.75 59.5865V58.0865C143.691 58.0717 142.65 57.8082 141.711 57.3174C140.772 56.8266 139.962 56.1222 139.345 55.2609L135.434 49.7859C134.948 49.1063 134.307 48.5523 133.564 48.1698C132.821 47.7873 131.997 47.5874 131.162 47.5865H129C128.801 47.5865 128.61 47.5075 128.47 47.3669C128.329 47.2262 128.25 47.0354 128.25 46.8365C128.25 46.6376 128.329 46.4469 128.47 46.3062C128.61 46.1655 128.801 46.0865 129 46.0865H131.162C132.236 46.0874 133.295 46.3443 134.25 46.8358C135.205 47.3274 136.03 48.0395 136.655 48.9131L140.566 54.3881C141.043 55.0557 141.67 55.6022 142.397 55.984C143.124 56.3657 143.929 56.5721 144.75 56.5865V55.0865C144.75 54.9381 144.794 54.793 144.876 54.6695C144.959 54.5461 145.076 54.4499 145.213 54.3931C145.35 54.3362 145.501 54.3214 145.646 54.3504C145.792 54.3794 145.926 54.4509 146.031 54.5559L148.281 56.8059ZM139.406 50.1178C139.486 50.175 139.577 50.2159 139.673 50.2382C139.769 50.2604 139.868 50.2635 139.965 50.2473C140.063 50.2311 140.156 50.1959 140.239 50.1438C140.323 50.0916 140.395 50.0236 140.453 49.9434L140.565 49.7868C141.042 49.1188 141.669 48.5718 142.396 48.1897C143.123 47.8076 143.929 47.601 144.75 47.5865V49.0865C144.75 49.235 144.794 49.3801 144.876 49.5035C144.959 49.627 145.076 49.7232 145.213 49.78C145.35 49.8368 145.501 49.8517 145.646 49.8227C145.792 49.7937 145.926 49.7222 146.031 49.6172L148.281 47.3672C148.35 47.2975 148.406 47.2148 148.443 47.1237C148.481 47.0327 148.501 46.9351 148.501 46.8365C148.501 46.738 148.481 46.6404 148.443 46.5493C148.406 46.4583 148.35 46.3756 148.281 46.3059L146.031 44.0559C145.926 43.9509 145.792 43.8794 145.646 43.8504C145.501 43.8214 145.35 43.8362 145.213 43.8931C145.076 43.9499 144.959 44.0461 144.876 44.1695C144.794 44.293 144.75 44.4381 144.75 44.5865V46.0865C143.691 46.1014 142.65 46.3649 141.711 46.8556C140.772 47.3464 139.962 48.0509 139.345 48.9122L139.233 49.0687C139.175 49.1489 139.134 49.2397 139.111 49.3359C139.089 49.4321 139.085 49.5318 139.101 49.6293C139.118 49.7268 139.153 49.8201 139.205 49.9039C139.257 49.9878 139.326 50.0604 139.406 50.1178ZM136.594 54.0553C136.514 53.998 136.423 53.9571 136.327 53.9349C136.231 53.9127 136.132 53.9096 136.035 53.9258C135.937 53.942 135.844 53.9771 135.761 54.0293C135.677 54.0814 135.605 54.1495 135.547 54.2297L135.435 54.3862C134.949 55.0661 134.308 55.6204 133.564 56.0031C132.821 56.3857 131.998 56.5857 131.162 56.5865H129C128.801 56.5865 128.61 56.6655 128.47 56.8062C128.329 56.9469 128.25 57.1376 128.25 57.3365C128.25 57.5354 128.329 57.7262 128.47 57.8669C128.61 58.0075 128.801 58.0865 129 58.0865H131.162C132.236 58.0856 133.295 57.8288 134.25 57.3372C135.205 56.8457 136.03 56.1336 136.655 55.26L136.767 55.1034C136.825 55.0233 136.866 54.9325 136.888 54.8364C136.911 54.7403 136.914 54.6407 136.898 54.5433C136.882 54.446 136.847 54.3527 136.795 54.269C136.742 54.1852 136.674 54.1126 136.594 54.0553Z" fill="#999999"/>
<path d="M166.75 46.0864V58.0864C166.75 58.2853 166.829 58.4761 166.97 58.6168C167.11 58.7574 167.301 58.8364 167.5 58.8364C167.699 58.8364 167.89 58.7574 168.03 58.6168C168.171 58.4761 168.25 58.2853 168.25 58.0864V46.0864C168.25 45.8875 168.171 45.6967 168.03 45.5561C167.89 45.4154 167.699 45.3364 167.5 45.3364C167.301 45.3364 167.11 45.4154 166.97 45.5561C166.829 45.6967 166.75 45.8875 166.75 46.0864ZM163 45.3364C163.199 45.3364 163.39 45.4154 163.53 45.5561C163.671 45.6967 163.75 45.8875 163.75 46.0864V58.0864C163.75 58.2853 163.671 58.4761 163.53 58.6168C163.39 58.7574 163.199 58.8364 163 58.8364C162.801 58.8364 162.61 58.7574 162.47 58.6168C162.329 58.4761 162.25 58.2853 162.25 58.0864V46.0864C162.25 45.8875 162.329 45.6967 162.47 45.5561C162.61 45.4154 162.801 45.3364 163 45.3364ZM171.187 50.8358L179.455 45.5717C179.68 45.4279 179.939 45.3471 180.206 45.3378C180.473 45.3284 180.738 45.3909 180.972 45.5187C181.207 45.6465 181.403 45.8348 181.539 46.0642C181.676 46.2935 181.749 46.5553 181.75 46.8224V57.3505C181.749 57.6162 181.677 57.8768 181.542 58.1052C181.406 58.3336 181.211 58.5214 180.978 58.6489C180.743 58.778 180.478 58.8415 180.21 58.8328C179.942 58.824 179.681 58.7434 179.455 58.5992L171.187 53.3352C170.977 53.2015 170.803 53.0168 170.683 52.7981C170.563 52.5795 170.5 52.334 170.5 52.0846C170.5 51.8351 170.563 51.5896 170.683 51.371C170.803 51.1524 170.977 50.9676 171.187 50.8339V50.8358Z" fill="#999999"/>
<path d="M221.5 29.7427C217.081 29.7427 212.761 31.0531 209.086 33.5083C205.412 35.9634 202.548 39.4531 200.857 43.5358C199.166 47.6186 198.723 52.1112 199.586 56.4455C200.448 60.7797 202.576 64.761 205.701 67.8858C208.825 71.0107 212.807 73.1387 217.141 74.0008C221.475 74.863 225.968 74.4205 230.051 72.7294C234.133 71.0382 237.623 68.1744 240.078 64.4999C242.533 60.8255 243.844 56.5056 243.844 52.0864C243.838 46.1624 241.481 40.4828 237.293 36.2939C233.104 32.105 227.424 29.7489 221.5 29.7427ZM230.212 53.5001L219.04 61.2345C218.782 61.4128 218.48 61.5172 218.167 61.5363C217.854 61.5555 217.542 61.4886 217.264 61.343C216.987 61.1974 216.754 60.9786 216.592 60.7103C216.43 60.442 216.344 60.1344 216.344 59.8208V44.352C216.344 44.0385 216.43 43.7309 216.592 43.4626C216.754 43.1943 216.987 42.9755 217.264 42.8299C217.542 42.6842 217.854 42.6174 218.167 42.6365C218.48 42.6556 218.782 42.76 219.04 42.9384L230.212 50.6728C230.441 50.8309 230.627 51.0421 230.757 51.2883C230.886 51.5346 230.953 51.8084 230.953 52.0864C230.953 52.3644 230.886 52.6383 230.757 52.8845C230.627 53.1307 230.441 53.342 230.212 53.5001Z" fill="white"/>
<path d="M276.25 46.0864V58.0864C276.25 58.2853 276.171 58.4761 276.03 58.6168C275.89 58.7574 275.699 58.8364 275.5 58.8364C275.301 58.8364 275.11 58.7574 274.97 58.6168C274.829 58.4761 274.75 58.2853 274.75 58.0864V46.0864C274.75 45.8875 274.829 45.6967 274.97 45.5561C275.11 45.4154 275.301 45.3364 275.5 45.3364C275.699 45.3364 275.89 45.4154 276.03 45.5561C276.171 45.6967 276.25 45.8875 276.25 46.0864ZM280 45.3364C279.801 45.3364 279.61 45.4154 279.47 45.5561C279.329 45.6967 279.25 45.8875 279.25 46.0864V58.0864C279.25 58.2853 279.329 58.4761 279.47 58.6168C279.61 58.7574 279.801 58.8364 280 58.8364C280.199 58.8364 280.39 58.7574 280.53 58.6168C280.671 58.4761 280.75 58.2853 280.75 58.0864V46.0864C280.75 45.8875 280.671 45.6967 280.53 45.5561C280.39 45.4154 280.199 45.3364 280 45.3364ZM271.813 50.8358L263.545 45.5717C263.32 45.4279 263.061 45.3471 262.794 45.3378C262.527 45.3284 262.262 45.3909 262.028 45.5187C261.793 45.6465 261.597 45.8348 261.461 46.0642C261.324 46.2935 261.251 46.5553 261.25 46.8224V57.3505C261.251 57.6162 261.323 57.8768 261.458 58.1052C261.594 58.3336 261.789 58.5214 262.022 58.6489C262.257 58.778 262.522 58.8415 262.79 58.8328C263.058 58.824 263.319 58.7434 263.545 58.5992L271.813 53.3352C272.023 53.2015 272.197 53.0168 272.317 52.7981C272.437 52.5795 272.5 52.334 272.5 52.0846C272.5 51.8351 272.437 51.5896 272.317 51.371C272.197 51.1524 272.023 50.9676 271.813 50.8339V50.8358Z" fill="#999999"/>
<path d="M295.25 52.0865C295.252 50.2969 295.964 48.5812 297.229 47.3158C298.495 46.0503 300.21 45.3385 302 45.3365H311V43.8365C311 43.6881 311.044 43.543 311.126 43.4195C311.209 43.2961 311.326 43.1999 311.463 43.1431C311.6 43.0862 311.751 43.0714 311.897 43.1004C312.042 43.1294 312.176 43.2009 312.281 43.3059L314.531 45.5559C314.6 45.6256 314.656 45.7083 314.694 45.7993C314.731 45.8904 314.751 45.988 314.751 46.0865C314.751 46.1851 314.731 46.2827 314.694 46.3737C314.656 46.4648 314.6 46.5475 314.531 46.6172L312.281 48.8672C312.176 48.9722 312.042 49.0437 311.897 49.0727C311.751 49.1017 311.6 49.0868 311.463 49.03C311.326 48.9732 311.209 48.877 311.126 48.7535C311.044 48.6301 311 48.485 311 48.3365V46.8365H302C300.608 46.838 299.274 47.3916 298.289 48.3759C297.305 49.3601 296.752 50.6946 296.75 52.0865C296.75 52.2854 296.671 52.4762 296.53 52.6169C296.39 52.7575 296.199 52.8365 296 52.8365C295.801 52.8365 295.61 52.7575 295.47 52.6169C295.329 52.4762 295.25 52.2854 295.25 52.0865ZM314 51.3365C313.801 51.3365 313.61 51.4155 313.47 51.5562C313.329 51.6969 313.25 51.8876 313.25 52.0865C313.249 53.4785 312.695 54.813 311.711 55.7972C310.727 56.7814 309.392 57.335 308 57.3365H299V55.8365C299 55.6881 298.956 55.543 298.874 55.4195C298.791 55.2961 298.674 55.1999 298.537 55.1431C298.4 55.0862 298.249 55.0714 298.104 55.1004C297.958 55.1294 297.824 55.2009 297.719 55.3059L295.469 57.5559C295.4 57.6256 295.344 57.7083 295.307 57.7993C295.269 57.8904 295.25 57.988 295.25 58.0865C295.25 58.1851 295.269 58.2827 295.307 58.3737C295.344 58.4648 295.4 58.5475 295.469 58.6172L297.719 60.8672C297.824 60.9722 297.958 61.0437 298.104 61.0727C298.249 61.1017 298.4 61.0868 298.537 61.03C298.674 60.9732 298.791 60.877 298.874 60.7535C298.956 60.6301 299 60.485 299 60.3365V58.8365H308C309.79 58.8345 311.505 58.1227 312.771 56.8573C314.036 55.5919 314.748 53.8761 314.75 52.0865C314.75 51.8876 314.671 51.6969 314.53 51.5562C314.39 51.4155 314.199 51.3365 314 51.3365ZM305.75 55.0865C305.949 55.0865 306.14 55.0075 306.28 54.8669C306.421 54.7262 306.5 54.5354 306.5 54.3365V49.8365C306.5 49.7086 306.468 49.5828 306.405 49.4711C306.343 49.3593 306.253 49.2653 306.145 49.1981C306.036 49.1308 305.912 49.0925 305.784 49.0867C305.656 49.081 305.529 49.108 305.414 49.1653L303.914 49.9153C303.737 50.0043 303.601 50.1603 303.538 50.3491C303.476 50.5378 303.49 50.7438 303.579 50.9217C303.668 51.0996 303.824 51.2348 304.013 51.2977C304.202 51.3606 304.408 51.3459 304.586 51.2568L305 51.0497V54.3365C305 54.5354 305.079 54.7262 305.22 54.8669C305.36 55.0075 305.551 55.0865 305.75 55.0865Z" fill="#999999"/>
</g>
<defs>
<filter id="filter0_diii_1_4" x="0.65331" y="0.82664" width="441.693" height="174.947" filterUnits="userSpaceOnUse" color-interpolation-filters="sRGB">
<feFlood flood-opacity="0" result="BackgroundImageFix"/>
<feColorMatrix in="SourceAlpha" type="matrix" values="0 0 0 0 0 0 0 0 0 0 0 0 0 0 0 0 0 0 127 0" result="hardAlpha"/>
<feOffset dy="5.17333"/>
<feGaussianBlur stdDeviation="5.17333"/>
<feComposite in2="hardAlpha" operator="out"/>
<feColorMatrix type="matrix" values="0 0 0 0 0 0 0 0 0 0 0 0 0 0 0 0 0 0 0.05 0"/>
<feBlend mode="normal" in2="BackgroundImageFix" result="effect1_dropShadow_1_4"/>
<feBlend mode="normal" in="SourceGraphic" in2="effect1_dropShadow_1_4" result="shape"/>
<feColorMatrix in="SourceAlpha" type="matrix" values="0 0 0 0 0 0 0 0 0 0 0 0 0 0 0 0 0 0 127 0" result="hardAlpha"/>
<feOffset dy="51.7333"/>
<feGaussianBlur stdDeviation="25.8667"/>
<feComposite in2="hardAlpha" operator="arithmetic" k2="-1" k3="1"/>
<feColorMatrix type="matrix" values="0 0 0 0 0 0 0 0 0 0 0 0 0 0 0 0 0 0 0.1 0"/>
<feBlend mode="normal" in2="shape" result="effect2_innerShadow_1_4"/>
<feColorMatrix in="SourceAlpha" type="matrix" values="0 0 0 0 0 0 0 0 0 0 0 0 0 0 0 0 0 0 127 0" result="hardAlpha"/>
<feOffset dy="12.9333"/>
<feGaussianBlur stdDeviation="12.9333"/>
<feComposite in2="hardAlpha" operator="arithmetic" k2="-1" k3="1"/>
<feColorMatrix type="matrix" values="0 0 0 0 0 0 0 0 0 0 0 0 0 0 0 0 0 0 0.05 0"/>
<feBlend mode="normal" in2="effect2_innerShadow_1_4" result="effect3_innerShadow_1_4"/>
<feColorMatrix in="SourceAlpha" type="matrix" values="0 0 0 0 0 0 0 0 0 0 0 0 0 0 0 0 0 0 127 0" result="hardAlpha"/>
<feOffset dy="77.6"/>
<feGaussianBlur stdDeviation="77.6"/>
<feComposite in2="hardAlpha" operator="arithmetic" k2="-1" k3="1"/>
<feColorMatrix type="matrix" values="0 0 0 0 1 0 0 0 0 1 0 0 0 0 1 0 0 0 0.15 0"/>
<feBlend mode="normal" in2="effect3_innerShadow_1_4" result="effect4_innerShadow_1_4"/>
</filter>
<linearGradient id="paint0_linear_1_4" x1="221.5" y1="6" x2="221.5" y2="98.173" gradientUnits="userSpaceOnUse">
<stop stop-opacity="0.1"/>
<stop offset="0.692708" stop-opacity="0.0677083"/>
<stop offset="1"/>
</linearGradient>
<linearGradient id="paint1_linear_1_4" x1="170.191" y1="69.9329" x2="183.387" y2="-15.4353" gradientUnits="userSpaceOnUse">
<stop stop-color="white" stop-opacity="0"/>
<stop offset="1" stop-color="white"/>
</linearGradient>
</defs>
</svg>
