<svg width="84" height="84" viewBox="0 0 84 84" fill="none" xmlns="http://www.w3.org/2000/svg">
<path d="M51.6457 5.06517C51.6826 4.71975 51.5807 4.42178 51.3399 4.17127C51.0991 3.92076 50.7729 3.74854 50.3614 3.6546C50.0604 3.58592 49.786 3.5745 49.5381 3.62035C49.2924 3.6667 49.087 3.76067 48.922 3.90226C48.7592 4.04435 48.6531 4.22382 48.6036 4.44067C48.5622 4.62211 48.5697 4.78795 48.6262 4.9382C48.6854 5.08673 48.7738 5.21981 48.8913 5.33741C49.0093 5.45281 49.1372 5.55533 49.275 5.64499C49.4134 5.73244 49.5418 5.80715 49.6604 5.86913L50.3083 6.21256C50.4747 6.29943 50.657 6.40855 50.8551 6.53991C51.0555 6.67178 51.2391 6.83125 51.4059 7.01831C51.5755 7.20367 51.7005 7.42077 51.7811 7.66963C51.8616 7.91848 51.8655 8.20222 51.7928 8.52085C51.709 8.88816 51.537 9.19809 51.2768 9.45066C51.0188 9.70372 50.6862 9.87574 50.279 9.96671C49.874 10.0582 49.4104 10.0443 48.8882 9.92514C48.4015 9.81403 47.9979 9.63927 47.6775 9.40086C47.3593 9.16296 47.1305 8.88027 46.9911 8.55279C46.8539 8.22582 46.8144 7.87344 46.8727 7.49565L47.7224 7.68958C47.6859 7.9513 47.7237 8.18342 47.8358 8.38592C47.9506 8.58672 48.1148 8.75457 48.3285 8.88947C48.5448 9.02266 48.788 9.12006 49.0579 9.18167C49.3721 9.25339 49.6659 9.26689 49.9391 9.22217C50.2129 9.17524 50.4438 9.07662 50.6317 8.9263C50.8202 8.77376 50.9427 8.57358 50.9993 8.32576C51.0508 8.10007 51.0296 7.90202 50.9358 7.73162C50.842 7.56122 50.7023 7.40829 50.5168 7.27281C50.3312 7.13733 50.1265 7.00913 49.9027 6.88821L49.1208 6.45834C48.6246 6.18445 48.2539 5.87055 48.0088 5.51662C47.7637 5.16269 47.6934 4.75671 47.7979 4.29868C47.8848 3.9181 48.0634 3.60968 48.3339 3.37342C48.607 3.13546 48.9363 2.97782 49.3218 2.90052C49.7099 2.8215 50.1209 2.83149 50.5546 2.93047C50.9927 3.03047 51.3642 3.19791 51.6691 3.43278C51.9745 3.66545 52.196 3.93948 52.3335 4.25488C52.4732 4.57079 52.5095 4.90148 52.4423 5.24698L51.6457 5.06517Z" fill="white"/>
<path d="M55.8294 12.3295C55.3877 12.1168 55.0576 11.8293 54.839 11.4671C54.6204 11.1049 54.5134 10.6995 54.5179 10.2507C54.5224 9.80199 54.6379 9.34246 54.8644 8.87215C55.0948 8.39366 55.3861 8.01374 55.7382 7.7324C56.0934 7.45 56.4792 7.28186 56.8956 7.22796C57.315 7.17301 57.7374 7.24795 58.1627 7.45277C58.494 7.6123 58.763 7.81742 58.9697 8.06812C59.1765 8.31883 59.3115 8.59547 59.3749 8.89805C59.4383 9.20062 59.4195 9.50899 59.3186 9.82314L58.5947 9.47454C58.6429 9.23324 58.6118 8.98399 58.5014 8.72678C58.394 8.46851 58.1809 8.26256 57.8619 8.10894C57.5797 7.97305 57.2968 7.92751 57.0132 7.97232C56.7327 8.01608 56.4691 8.14231 56.2225 8.35102C55.9789 8.55868 55.7714 8.84041 55.6001 9.19621C55.4248 9.56019 55.3294 9.90471 55.314 10.2298C55.3005 10.5558 55.3632 10.8442 55.5019 11.0949C55.6427 11.3466 55.8562 11.5414 56.1425 11.6792C56.3306 11.7698 56.5171 11.8193 56.702 11.8277C56.8869 11.8362 57.062 11.8046 57.2274 11.7332C57.3929 11.6617 57.5394 11.5509 57.6671 11.4008L58.391 11.7494C58.2162 12.0078 57.9943 12.2095 57.7254 12.3546C57.4596 12.4987 57.1633 12.5726 56.8365 12.5764C56.5127 12.5792 56.177 12.4969 55.8294 12.3295Z" fill="white"/>
<path d="M61.1681 15.3978L64.4284 11.3095L65.0353 11.7934L64.5428 12.4109L64.5854 12.4449C64.8213 12.3021 65.087 12.2455 65.3827 12.2751C65.6783 12.3048 65.9486 12.4173 66.1935 12.6126C66.2396 12.6494 66.2966 12.6962 66.3644 12.7532C66.4322 12.8102 66.4824 12.8546 66.515 12.8864L66.0056 13.5252C65.9886 13.5029 65.9461 13.456 65.8783 13.3845C65.8137 13.3127 65.7397 13.2435 65.6563 13.177C65.4576 13.0185 65.2469 12.9187 65.0242 12.8775C64.8047 12.8361 64.5917 12.852 64.3852 12.9253C64.1818 12.9983 64.0066 13.1271 63.8594 13.3116L61.7963 15.8987L61.1681 15.3978Z" fill="white"/>
<path d="M67.175 21.3678C66.8807 20.9987 66.7102 20.6048 66.6638 20.1861C66.6187 19.7692 66.6918 19.3567 66.8831 18.9487C67.0759 18.5424 67.3834 18.1709 67.8057 17.8341C68.2316 17.4945 68.6649 17.2753 69.1056 17.1763C69.5478 17.0792 69.967 17.099 70.3635 17.2357C70.7613 17.3742 71.1074 17.628 71.4017 17.9971C71.6961 18.3662 71.8658 18.7591 71.9108 19.1761C71.9573 19.5947 71.8833 20.0079 71.6888 20.4156C71.4957 20.825 71.1862 21.1996 70.7604 21.5392C70.3381 21.876 69.9067 22.0922 69.4663 22.188C69.0274 22.2855 68.609 22.265 68.2111 22.1265C67.8147 21.9897 67.4693 21.7368 67.175 21.3678ZM67.7393 20.9178C67.9629 21.1981 68.2187 21.3715 68.5067 21.4379C68.7948 21.5042 69.0906 21.4875 69.3942 21.3877C69.6978 21.2878 69.9862 21.1289 70.2594 20.911C70.5327 20.6931 70.7527 20.4466 70.9193 20.1714C71.086 19.8963 71.1699 19.6102 71.1711 19.3131C71.1722 19.0161 71.061 18.7274 70.8374 18.4471C70.6139 18.1667 70.3572 17.994 70.0673 17.9291C69.7775 17.8641 69.4799 17.8823 69.1745 17.9835C68.8692 18.0848 68.5799 18.2444 68.3066 18.4623C68.0334 18.6802 67.8143 18.926 67.6494 19.1998C67.4845 19.4735 67.4024 19.7582 67.403 20.0538C67.4036 20.3494 67.5157 20.6374 67.7393 20.9178Z" fill="white"/>
<path d="M77.596 24.795L71.3143 27.8202L70.9657 27.0963L77.2474 24.0712L77.596 24.795Z" fill="white"/>
<path d="M80.4582 33.2058L73.6608 34.7573L73.4821 33.974L80.2794 32.4225L80.4582 33.2058Z" fill="white"/>
<path d="M78.3401 51.6462C78.6855 51.6831 78.9835 51.5812 79.234 51.3404C79.4845 51.0996 79.6567 50.7734 79.7507 50.3618C79.8194 50.0609 79.8308 49.7865 79.7849 49.5386C79.7386 49.2929 79.6446 49.0875 79.503 48.9225C79.3609 48.7597 79.1814 48.6536 78.9646 48.6041C78.7832 48.5627 78.6173 48.5702 78.4671 48.6267C78.3185 48.6859 78.1855 48.7743 78.0679 48.8918C77.9525 49.0097 77.8499 49.1377 77.7603 49.2755C77.6728 49.4138 77.5981 49.5423 77.5361 49.6608L77.1927 50.3088C77.1058 50.4752 76.9967 50.6575 76.8654 50.8556C76.7335 51.056 76.574 51.2396 76.387 51.4064C76.2016 51.5759 75.9845 51.701 75.7356 51.7815C75.4868 51.8621 75.203 51.866 74.8844 51.7933C74.5171 51.7094 74.2072 51.5374 73.9546 51.2773C73.7015 51.0193 73.5295 50.6867 73.4386 50.2795C73.3471 49.8745 73.3609 49.4109 73.4801 48.8887C73.5912 48.4019 73.766 47.9983 74.0044 47.678C74.2423 47.3598 74.525 47.131 74.8525 46.9916C75.1795 46.8543 75.5318 46.8149 75.9096 46.8732L75.7157 47.7228C75.454 47.6864 75.2219 47.7242 75.0194 47.8363C74.8186 47.9511 74.6507 48.1153 74.5158 48.3289C74.3826 48.5453 74.2852 48.7885 74.2236 49.0584C74.1519 49.3726 74.1384 49.6664 74.1831 49.9396C74.23 50.2134 74.3287 50.4443 74.479 50.6322C74.6315 50.8207 74.8317 50.9432 75.0795 50.9997C75.3052 51.0513 75.5032 51.0301 75.6736 50.9363C75.844 50.8425 75.997 50.7028 76.1325 50.5172C76.2679 50.3317 76.3961 50.127 76.5171 49.9031L76.9469 49.1213C77.2208 48.6251 77.5347 48.2544 77.8887 48.0093C78.2426 47.7642 78.6486 47.6939 79.1066 47.7984C79.4872 47.8853 79.7956 48.0639 80.0318 48.3343C80.2698 48.6075 80.4274 48.9368 80.5048 49.3222C80.5838 49.7104 80.5738 50.1214 80.4748 50.555C80.3748 50.9932 80.2074 51.3647 79.9725 51.6696C79.7398 51.975 79.4658 52.1964 79.1504 52.334C78.8345 52.4737 78.5038 52.51 78.1583 52.4427L78.3401 51.6462Z" fill="white"/>
<path d="M71.0753 55.8298C71.288 55.3882 71.5755 55.058 71.9376 54.8395C72.2998 54.6209 72.7053 54.5139 73.1541 54.5184C73.6028 54.5229 74.0623 54.6384 74.5326 54.8649C75.0111 55.0953 75.391 55.3866 75.6724 55.7387C75.9548 56.0939 76.1229 56.4797 76.1768 56.8961C76.2318 57.3155 76.1568 57.7379 75.952 58.1632C75.7925 58.4945 75.5874 58.7635 75.3367 58.9702C75.086 59.177 74.8093 59.312 74.5067 59.3754C74.2042 59.4388 73.8958 59.42 73.5816 59.3191L73.9302 58.5952C74.1715 58.6434 74.4208 58.6123 74.678 58.5019C74.9363 58.3945 75.1422 58.1813 75.2958 57.8623C75.4317 57.5802 75.4773 57.2973 75.4325 57.0137C75.3887 56.7332 75.2625 56.4696 75.0538 56.223C74.8461 55.9794 74.5644 55.7719 74.2086 55.6006C73.8446 55.4253 73.5001 55.3299 73.175 55.3145C72.849 55.301 72.5606 55.3637 72.3099 55.5024C72.0582 55.6432 71.8634 55.8567 71.7256 56.143C71.635 56.3311 71.5855 56.5176 71.577 56.7025C71.5686 56.8874 71.6001 57.0625 71.6716 57.2279C71.7431 57.3933 71.8539 57.5399 72.004 57.6676L71.6554 58.3915C71.397 58.2167 71.1953 57.9948 71.0502 57.7259C70.9061 57.4601 70.8322 57.1638 70.8284 56.8369C70.8256 56.5132 70.9079 56.1775 71.0753 55.8298Z" fill="white"/>
<path d="M68.007 61.1681L72.0953 64.4284L71.6113 65.0353L70.9938 64.5428L70.9599 64.5854C71.1027 64.8213 71.1593 65.087 71.1297 65.3827C71.1 65.6783 70.9875 65.9486 70.7922 66.1935C70.7554 66.2396 70.7086 66.2966 70.6516 66.3644C70.5946 66.4322 70.5502 66.4824 70.5184 66.515L69.8796 66.0056C69.9019 65.9886 69.9488 65.9461 70.0203 65.8783C70.0921 65.8137 70.1613 65.7397 70.2278 65.6563C70.3863 65.4576 70.4861 65.2469 70.5272 65.0242C70.5687 64.8047 70.5528 64.5917 70.4795 64.3852C70.4065 64.1819 70.2777 64.0066 70.0932 63.8594L67.506 61.7963L68.007 61.1681Z" fill="white"/>
<path d="M62.037 67.175C62.4061 66.8807 62.8 66.7103 63.2187 66.6638C63.6356 66.6187 64.048 66.6918 64.4561 66.8831C64.8623 67.0759 65.2339 67.3834 65.5706 67.8057C65.9103 68.2316 66.1295 68.6649 66.2284 69.1056C66.3256 69.5478 66.3058 69.967 66.1691 70.3635C66.0306 70.7613 65.7768 71.1074 65.4077 71.4017C65.0386 71.6961 64.6456 71.8658 64.2287 71.9108C63.8101 71.9573 63.3969 71.8833 62.9892 71.6888C62.5798 71.4957 62.2052 71.1862 61.8656 70.7604C61.5288 70.3381 61.3126 69.9067 61.2168 69.4663C61.1193 69.0274 61.1398 68.609 61.2783 68.2111C61.415 67.8147 61.6679 67.4693 62.037 67.175ZM62.487 67.7393C62.2067 67.9629 62.0333 68.2187 61.9669 68.5067C61.9005 68.7948 61.9173 69.0906 62.0171 69.3942C62.117 69.6978 62.2758 69.9862 62.4938 70.2594C62.7117 70.5327 62.9582 70.7527 63.2334 70.9193C63.5085 71.086 63.7946 71.1699 64.0916 71.1711C64.3887 71.1722 64.6774 71.061 64.9577 70.8375C65.2381 70.6139 65.4107 70.3572 65.4757 70.0673C65.5407 69.7775 65.5225 69.4799 65.4213 69.1745C65.32 68.8692 65.1604 68.5799 64.9425 68.3066C64.7246 68.0334 64.4787 67.8143 64.205 67.6494C63.9313 67.4845 63.6466 67.4024 63.351 67.403C63.0554 67.4036 62.7674 67.5157 62.487 67.7393Z" fill="white"/>
<path d="M58.6097 77.596L55.5846 71.3143L56.3085 70.9657L59.3336 77.2474L58.6097 77.596Z" fill="white"/>
<path d="M50.199 80.4582L48.6475 73.6608L49.4308 73.482L50.9823 80.2794L50.199 80.4582Z" fill="white"/>
<path d="M31.7591 78.3401C31.7222 78.6855 31.8241 78.9835 32.0649 79.234C32.3057 79.4845 32.6319 79.6567 33.0434 79.7507C33.3444 79.8194 33.6188 79.8308 33.8667 79.7849C34.1124 79.7386 34.3178 79.6446 34.4828 79.503C34.6456 79.3609 34.7517 79.1815 34.8012 78.9646C34.8426 78.7832 34.8351 78.6173 34.7786 78.4671C34.7194 78.3185 34.631 78.1855 34.5135 78.0679C34.3955 77.9525 34.2676 77.8499 34.1298 77.7603C33.9914 77.6728 33.863 77.5981 33.7444 77.5361L33.0965 77.1927C32.9301 77.1058 32.7478 76.9967 32.5496 76.8654C32.3493 76.7335 32.1657 76.574 31.9989 76.387C31.8293 76.2016 31.7043 75.9845 31.6237 75.7356C31.5432 75.4868 31.5393 75.2031 31.612 74.8844C31.6958 74.5171 31.8678 74.2072 32.128 73.9546C32.386 73.7015 32.7185 73.5295 33.1258 73.4386C33.5307 73.3471 33.9943 73.3609 34.5165 73.4801C35.0033 73.5912 35.4069 73.766 35.7273 74.0044C36.0455 74.2423 36.2743 74.525 36.4137 74.8525C36.5509 75.1795 36.5904 75.5318 36.5321 75.9096L35.6824 75.7157C35.7189 75.454 35.6811 75.2219 35.569 75.0194C35.4542 74.8186 35.29 74.6507 35.0763 74.5158C34.86 74.3826 34.6168 74.2852 34.3468 74.2236C34.0326 74.1519 33.7389 74.1384 33.4656 74.1831C33.1919 74.23 32.961 74.3287 32.7731 74.479C32.5846 74.6315 32.4621 74.8317 32.4055 75.0795C32.354 75.3052 32.3751 75.5033 32.469 75.6737C32.5628 75.8441 32.7024 75.997 32.888 76.1325C33.0736 76.2679 33.2783 76.3961 33.5021 76.5171L34.284 76.9469C34.7802 77.2208 35.1508 77.5347 35.396 77.8887C35.6411 78.2426 35.7114 78.6486 35.6069 79.1066C35.52 79.4872 35.3414 79.7956 35.0709 80.0318C34.7978 80.2698 34.4685 80.4274 34.083 80.5048C33.6948 80.5838 33.2839 80.5738 32.8502 80.4748C32.4121 80.3748 32.0406 80.2074 31.7357 79.9725C31.4303 79.7398 31.2088 79.4658 31.0713 79.1504C30.9316 78.8345 30.8953 78.5038 30.9625 78.1583L31.7591 78.3401Z" fill="white"/>
<path d="M27.5754 71.0753C28.0171 71.288 28.3472 71.5755 28.5658 71.9376C28.7843 72.2998 28.8914 72.7053 28.8869 73.1541C28.8824 73.6028 28.7669 74.0623 28.5404 74.5326C28.3099 75.0111 28.0187 75.391 27.6665 75.6724C27.3114 75.9548 26.9256 76.1229 26.5092 76.1768C26.0898 76.2318 25.6674 76.1568 25.242 75.952C24.9108 75.7925 24.6418 75.5874 24.435 75.3367C24.2283 75.086 24.0932 74.8093 24.0299 74.5067C23.9665 74.2042 23.9853 73.8958 24.0862 73.5816L24.81 73.9302C24.7619 74.1715 24.793 74.4208 24.9034 74.678C25.0107 74.9363 25.2239 75.1422 25.5429 75.2958C25.8251 75.4317 26.108 75.4773 26.3916 75.4325C26.6721 75.3887 26.9357 75.2625 27.1823 75.0538C27.4259 74.8461 27.6333 74.5644 27.8047 74.2086C27.98 73.8446 28.0753 73.5001 28.0908 73.175C28.1042 72.849 28.0416 72.5606 27.9029 72.3099C27.7621 72.0582 27.5486 71.8634 27.2623 71.7256C27.0742 71.635 26.8877 71.5855 26.7028 71.577C26.5179 71.5686 26.3428 71.6001 26.1774 71.6716C26.0119 71.7431 25.8654 71.8539 25.7377 72.004L25.0138 71.6554C25.1886 71.397 25.4105 71.1953 25.6793 71.0502C25.9452 70.9061 26.2415 70.8322 26.5683 70.8284C26.8921 70.8256 27.2278 70.9079 27.5754 71.0753Z" fill="white"/>
<path d="M22.2367 68.0075L18.9764 72.0958L18.3695 71.6118L18.8619 70.9943L18.8194 70.9604C18.5835 71.1032 18.3178 71.1598 18.0221 71.1301C17.7264 71.1005 17.4562 70.988 17.2113 70.7927C17.1652 70.7559 17.1082 70.709 17.0404 70.6521C16.9726 70.5951 16.9224 70.5507 16.8898 70.5189L17.3992 69.8801C17.4162 69.9024 17.4587 69.9493 17.5265 70.0208C17.5911 70.0926 17.6651 70.1618 17.7485 70.2283C17.9472 70.3868 18.1579 70.4866 18.3806 70.5277C18.6001 70.5692 18.8131 70.5533 19.0196 70.48C19.2229 70.407 19.3982 70.2782 19.5454 70.0937L21.6085 67.5065L22.2367 68.0075Z" fill="white"/>
<path d="M16.2298 62.037C16.5241 62.4061 16.6945 62.8 16.741 63.2187C16.7861 63.6356 16.713 64.048 16.5217 64.4561C16.3289 64.8623 16.0214 65.2339 15.5991 65.5706C15.1732 65.9103 14.7399 66.1295 14.2992 66.2285C13.857 66.3256 13.4377 66.3058 13.0413 66.1691C12.6435 66.0306 12.2974 65.7768 12.0031 65.4077C11.7087 65.0386 11.539 64.6456 11.4939 64.2287C11.4474 63.8101 11.5215 63.3969 11.716 62.9892C11.9091 62.5798 12.2185 62.2052 12.6444 61.8656C13.0667 61.5288 13.4981 61.3126 13.9385 61.2168C14.3774 61.1193 14.7958 61.1398 15.1937 61.2783C15.5901 61.415 15.9355 61.6679 16.2298 62.037ZM15.6655 62.487C15.4419 62.2067 15.1861 62.0333 14.898 61.9669C14.61 61.9005 14.3142 61.9173 14.0106 62.0171C13.707 62.117 13.4186 62.2758 13.1454 62.4938C12.8721 62.7117 12.6521 62.9582 12.4855 63.2334C12.3188 63.5085 12.2349 63.7946 12.2337 64.0916C12.2325 64.3887 12.3438 64.6774 12.5673 64.9577C12.7909 65.2381 13.0476 65.4107 13.3375 65.4757C13.6273 65.5407 13.9249 65.5225 14.2302 65.4213C14.5356 65.32 14.8249 65.1604 15.0981 64.9425C15.3714 64.7246 15.5905 64.4787 15.7554 64.205C15.9203 63.9313 16.0024 63.6466 16.0018 63.351C16.0012 63.0554 15.8891 62.7674 15.6655 62.487Z" fill="white"/>
<path d="M5.80923 58.6097L12.091 55.5846L12.4396 56.3085L6.15783 59.3336L5.80923 58.6097Z" fill="white"/>
<path d="M2.94656 50.199L9.74395 48.6475L9.92273 49.4308L3.12534 50.9823L2.94656 50.199Z" fill="white"/>
<path d="M5.06468 31.7591C4.71926 31.7222 4.4213 31.8241 4.17079 32.0649C3.92028 32.3057 3.74805 32.6319 3.65412 33.0434C3.58543 33.3444 3.57401 33.6188 3.61986 33.8667C3.66621 34.1124 3.76018 34.3178 3.90177 34.4828C4.04387 34.6456 4.22334 34.7517 4.44018 34.8012C4.62162 34.8426 4.78746 34.8351 4.93771 34.7786C5.08625 34.7194 5.21932 34.631 5.33693 34.5135C5.45232 34.3955 5.55485 34.2676 5.64451 34.1298C5.73195 33.9914 5.80667 33.863 5.86864 33.7444L6.21208 33.0965C6.29895 32.9301 6.40806 32.7478 6.53943 32.5496C6.6713 32.3493 6.83076 32.1657 7.01783 31.9989C7.20318 31.8293 7.42029 31.7043 7.66914 31.6237C7.918 31.5432 8.20174 31.5393 8.52037 31.612C8.88767 31.6958 9.19761 31.8678 9.45017 32.128C9.70324 32.386 9.87526 32.7186 9.96622 33.1258C10.0577 33.5308 10.0438 33.9944 9.92465 34.5165C9.81354 35.0033 9.63879 35.4069 9.40037 35.7273C9.16247 36.0455 8.87978 36.2743 8.5523 36.4137C8.22533 36.5509 7.87295 36.5904 7.49516 36.5321L7.68909 35.6824C7.95081 35.7189 8.18293 35.6811 8.38543 35.569C8.58623 35.4542 8.75408 35.29 8.88898 35.0763C9.02217 34.86 9.11957 34.6168 9.18119 34.3469C9.2529 34.0327 9.2664 33.7389 9.22169 33.4657C9.17476 33.1919 9.07613 32.961 8.92581 32.7731C8.77328 32.5846 8.5731 32.4621 8.32528 32.4055C8.09958 32.354 7.90154 32.3752 7.73114 32.469C7.56074 32.5628 7.4078 32.7025 7.27232 32.888C7.13685 33.0736 7.00865 33.2783 6.88772 33.5021L6.45785 34.284C6.18397 34.7802 5.87006 35.1509 5.51613 35.396C5.1622 35.6411 4.75622 35.7114 4.2982 35.6069C3.91761 35.52 3.60919 35.3414 3.37294 35.0709C3.13497 34.7978 2.97734 34.4685 2.90003 34.083C2.82102 33.6948 2.831 33.2839 2.92999 32.8502C3.02999 32.4121 3.19742 32.0406 3.4323 31.7357C3.66496 31.4303 3.93899 31.2088 4.2544 31.0713C4.5703 30.9316 4.901 30.8953 5.2465 30.9625L5.06468 31.7591Z" fill="white"/>
<path d="M12.3295 27.5754C12.1168 28.0171 11.8293 28.3472 11.4671 28.5658C11.1049 28.7843 10.6995 28.8914 10.2507 28.8869C9.80199 28.8824 9.34246 28.7669 8.87215 28.5404C8.39366 28.3099 8.01374 28.0187 7.7324 27.6665C7.45 27.3114 7.28186 26.9256 7.22796 26.5092C7.17301 26.0898 7.24795 25.6674 7.45277 25.242C7.6123 24.9108 7.81742 24.6418 8.06812 24.435C8.31883 24.2283 8.59547 24.0932 8.89805 24.0299C9.20062 23.9665 9.50899 23.9853 9.82314 24.0862L9.47454 24.81C9.23324 24.7619 8.98399 24.793 8.72678 24.9034C8.4685 25.0107 8.26256 25.2239 8.10894 25.5429C7.97305 25.8251 7.92751 26.108 7.97232 26.3916C8.01608 26.6721 8.14231 26.9357 8.35102 27.1823C8.55868 27.4259 8.84041 27.6333 9.19621 27.8047C9.56019 27.98 9.90471 28.0753 10.2298 28.0908C10.5558 28.1042 10.8442 28.0416 11.0949 27.9029C11.3466 27.7621 11.5414 27.5486 11.6792 27.2623C11.7698 27.0742 11.8193 26.8877 11.8277 26.7028C11.8362 26.5179 11.8046 26.3428 11.7332 26.1773C11.6617 26.0119 11.5509 25.8654 11.4008 25.7377L11.7494 25.0138C12.0078 25.1886 12.2095 25.4105 12.3546 25.6793C12.4987 25.9452 12.5726 26.2415 12.5764 26.5683C12.5792 26.8921 12.4969 27.2278 12.3295 27.5754Z" fill="white"/>
<path d="M15.3978 22.2372L11.3095 18.9768L11.7934 18.37L12.4109 18.8624L12.4449 18.8198C12.3021 18.584 12.2455 18.3182 12.2751 18.0226C12.3048 17.7269 12.4173 17.4567 12.6126 17.2118C12.6494 17.1657 12.6962 17.1087 12.7532 17.0409C12.8102 16.9731 12.8546 16.9229 12.8864 16.8902L13.5252 17.3997C13.5029 17.4167 13.456 17.4591 13.3845 17.5269C13.3127 17.5916 13.2435 17.6656 13.177 17.749C13.0185 17.9477 12.9187 18.1584 12.8775 18.3811C12.8361 18.6005 12.852 18.8135 12.9253 19.0201C12.9983 19.2234 13.1271 19.3987 13.3116 19.5458L15.8987 21.609L15.3978 22.2372Z" fill="white"/>
<path d="M21.3678 16.2303C20.9987 16.5246 20.6048 16.695 20.1861 16.7415C19.7692 16.7866 19.3567 16.7135 18.9487 16.5222C18.5425 16.3294 18.1709 16.0219 17.8341 15.5996C17.4945 15.1737 17.2753 14.7404 17.1763 14.2997C17.0792 13.8575 17.099 13.4382 17.2357 13.0418C17.3742 12.644 17.628 12.2979 17.9971 12.0035C18.3662 11.7092 18.7591 11.5395 19.1761 11.4944C19.5947 11.4479 20.0079 11.5219 20.4156 11.7165C20.825 11.9096 21.1996 12.219 21.5392 12.6449C21.876 13.0672 22.0922 13.4986 22.188 13.9389C22.2855 14.3779 22.265 14.7963 22.1265 15.1941C21.9898 15.5906 21.7368 15.9359 21.3678 16.2303ZM20.9178 15.666C21.1981 15.4424 21.3715 15.1866 21.4379 14.8985C21.5042 14.6105 21.4875 14.3146 21.3877 14.0111C21.2878 13.7075 21.1289 13.4191 20.911 13.1458C20.6931 12.8726 20.4466 12.6526 20.1714 12.4859C19.8963 12.3193 19.6102 12.2354 19.3131 12.2342C19.0161 12.233 18.7274 12.3442 18.4471 12.5678C18.1667 12.7914 17.994 13.0481 17.9291 13.338C17.8641 13.6278 17.8823 13.9254 17.9835 14.2307C18.0848 14.5361 18.2444 14.8254 18.4623 15.0986C18.6802 15.3719 18.926 15.591 19.1998 15.7559C19.4735 15.9207 19.7582 16.0029 20.0538 16.0023C20.3494 16.0017 20.6374 15.8896 20.9178 15.666Z" fill="white"/>
<path d="M24.795 5.80923L27.8202 12.091L27.0963 12.4396L24.0712 6.15783L24.795 5.80923Z" fill="white"/>
<path d="M33.2058 2.94705L34.7573 9.74444L33.974 9.92322L32.4225 3.12583L33.2058 2.94705Z" fill="white"/>
</svg>
