<svg width="42" height="43" viewBox="0 0 42 43" fill="none" xmlns="http://www.w3.org/2000/svg">
<path d="M39.7167 11.0021C37.2173 10.9995 34.821 10.0054 33.0536 8.2381C31.2863 6.47075 30.2923 4.07447 30.2897 1.57507C30.2897 1.15837 30.1241 0.758741 29.8295 0.46409C29.5348 0.169439 29.1352 0.00390625 28.7185 0.00390625H20.8627C20.446 0.00390625 20.0463 0.169439 19.7517 0.46409C19.457 0.758741 19.2915 1.15837 19.2915 1.57507V27.4993C19.2912 28.2022 19.1023 28.8921 18.7445 29.4971C18.3867 30.1021 17.8731 30.5999 17.2573 30.9388C16.6415 31.2777 15.946 31.4451 15.2435 31.4236C14.541 31.4021 13.8571 31.1925 13.2631 30.8167C12.6692 30.4408 12.187 29.9125 11.8668 29.2867C11.5467 28.661 11.4003 27.9609 11.4429 27.2593C11.4855 26.5577 11.7156 25.8804 12.1092 25.2981C12.5028 24.7157 13.0454 24.2497 13.6805 23.9485C13.9491 23.821 14.1761 23.6199 14.3349 23.3685C14.4938 23.1172 14.5781 22.8259 14.578 22.5285V14.1444C14.5781 13.9147 14.5278 13.6878 14.4308 13.4797C14.3337 13.2715 14.1922 13.0872 14.0162 12.9397C13.8402 12.7921 13.634 12.685 13.4121 12.6257C13.1902 12.5665 12.958 12.5566 12.7319 12.5968C5.72251 13.8459 0.4375 20.2523 0.4375 27.4993C0.4375 31.458 2.01006 35.2545 4.80925 38.0537C7.60843 40.8528 11.4049 42.4254 15.3636 42.4254C19.3222 42.4254 23.1187 40.8528 25.9179 38.0537C28.7171 35.2545 30.2897 31.458 30.2897 27.4993V19.7004C33.1996 21.2187 36.4345 22.0079 39.7167 22.0002C40.1334 22.0002 40.533 21.8347 40.8276 21.5401C41.1223 21.2454 41.2878 20.8458 41.2878 20.4291V12.5732C41.2878 12.1565 41.1223 11.7569 40.8276 11.4623C40.533 11.1676 40.1334 11.0021 39.7167 11.0021ZM38.1455 18.7872C35.0751 18.5151 32.1351 17.4193 29.6357 15.6154C29.4007 15.4465 29.1237 15.3458 28.8352 15.3243C28.5467 15.3028 28.2578 15.3614 28.0004 15.4936C27.7431 15.6258 27.5273 15.8266 27.3767 16.0737C27.2262 16.3207 27.1468 16.6046 27.1473 16.8939V27.4993C27.1473 30.6246 25.9058 33.6218 23.696 35.8317C21.4861 38.0416 18.4888 39.2831 15.3636 39.2831C12.2383 39.2831 9.24109 38.0416 7.03121 35.8317C4.82133 33.6218 3.57983 30.6246 3.57983 27.4993C3.57983 22.4127 6.84786 17.8504 11.4357 16.1869V21.6212C10.42 22.2998 9.59749 23.23 9.04828 24.3211C8.49907 25.4122 8.2419 26.6269 8.30185 27.8469C8.3618 29.067 8.73682 30.2507 9.39034 31.2827C10.0439 32.3146 10.9536 33.1597 12.0309 33.7355C13.1082 34.3113 14.3163 34.5981 15.5374 34.5681C16.7586 34.538 17.9511 34.1921 18.9988 33.5641C20.0465 32.936 20.9136 32.0473 21.5156 30.9844C22.1176 29.9215 22.4339 28.7208 22.4338 27.4993V3.14624H27.2455C27.5989 5.91362 28.8609 8.4854 30.8336 10.4581C32.8063 12.4308 35.3781 13.6929 38.1455 14.0462V18.7872Z" fill="white"/>
</svg>
