<svg width="45" height="36" viewBox="0 0 45 36" fill="none" xmlns="http://www.w3.org/2000/svg">
<path d="M29.9523 16.6924L20.5253 10.4077C20.2886 10.2498 20.0135 10.1591 19.7293 10.1454C19.4452 10.1316 19.1626 10.1952 18.9117 10.3295C18.6609 10.4638 18.4513 10.6637 18.3051 10.9078C18.159 11.152 18.082 11.4312 18.0821 11.7157V24.285C18.082 24.5696 18.159 24.8488 18.3051 25.0929C18.4513 25.337 18.6609 25.5369 18.9117 25.6712C19.1626 25.8055 19.4452 25.8692 19.7293 25.8554C20.0135 25.8416 20.2886 25.7509 20.5253 25.593L29.9523 19.3084C30.1678 19.1649 30.3446 18.9705 30.4668 18.7423C30.589 18.5141 30.653 18.2592 30.653 18.0004C30.653 17.7415 30.589 17.4866 30.4668 17.2584C30.3446 17.0302 30.1678 16.8358 29.9523 16.6924ZM21.2245 21.3489V14.6616L26.2483 18.0004L21.2245 21.3489ZM43.6784 6.51514C43.4934 5.79112 43.1388 5.12148 42.644 4.56146C42.1492 4.00144 41.5283 3.56709 40.8326 3.29425C34.1002 0.693969 23.3848 0.717537 22.7956 0.717537C22.2065 0.717537 11.4911 0.693969 4.75866 3.29425C4.06295 3.56709 3.44209 4.00144 2.94729 4.56146C2.45249 5.12148 2.09794 5.79112 1.91288 6.51514C1.40422 8.47517 0.799316 12.0574 0.799316 18.0004C0.799316 23.9433 1.40422 27.5256 1.91288 29.4856C2.09766 30.21 2.45209 30.88 2.9469 31.4404C3.44172 32.0008 4.06272 32.4354 4.75866 32.7085C11.2083 35.1968 21.303 35.2832 22.666 35.2832H22.9253C24.2883 35.2832 34.3889 35.1968 40.8326 32.7085C41.5286 32.4354 42.1496 32.0008 42.6444 31.4404C43.1392 30.88 43.4936 30.21 43.6784 29.4856C44.1871 27.5216 44.792 23.9433 44.792 18.0004C44.792 12.0574 44.1871 8.47517 43.6784 6.51514ZM40.6362 28.7079C40.5764 28.9488 40.4603 29.1722 40.2975 29.3596C40.1346 29.547 39.9297 29.6932 39.6994 29.7861C33.4835 32.186 22.9115 32.1428 22.7858 32.1428C22.6601 32.1428 12.1078 32.1782 5.89579 29.7861C5.66555 29.6932 5.46062 29.547 5.29778 29.3596C5.13494 29.1722 5.01883 28.9488 4.95898 28.7079C4.49156 26.9148 3.94165 23.6114 3.94165 18.0004C3.94165 12.3893 4.49156 9.08596 4.95505 7.30269C5.01379 7.0603 5.12939 6.83538 5.2923 6.64652C5.4552 6.45766 5.66072 6.3103 5.89186 6.21662C12.1078 3.82452 22.6778 3.85987 22.8055 3.85987C22.9331 3.85987 33.4835 3.82452 39.6955 6.21662C39.9257 6.30954 40.1307 6.4557 40.2935 6.64312C40.4564 6.83054 40.5725 7.05388 40.6323 7.29483C41.0997 9.08596 41.6497 12.3893 41.6497 18.0004C41.6497 23.6114 41.0997 26.9148 40.6362 28.6981V28.7079Z" fill="white"/>
</svg>
