<svg width="32" height="32" viewBox="0 0 32 32" fill="none" xmlns="http://www.w3.org/2000/svg">
<path d="M25.168 18.9664L16.3713 27.7631C16.2806 27.8539 16.1728 27.926 16.0541 27.9752C15.9355 28.0244 15.8083 28.0497 15.6798 28.0497C15.5514 28.0497 15.4242 28.0244 15.3055 27.9752C15.1869 27.926 15.0791 27.8539 14.9883 27.7631L6.19171 18.9664C6.00831 18.783 5.90527 18.5343 5.90527 18.2749C5.90527 18.0156 6.00831 17.7668 6.19171 17.5834C6.37511 17.4 6.62385 17.297 6.88322 17.297C7.14259 17.297 7.39133 17.4 7.57473 17.5834L14.7024 24.7123V5.56871C14.7024 5.30949 14.8054 5.06088 14.9887 4.87758C15.172 4.69428 15.4206 4.59131 15.6798 4.59131C15.9391 4.59131 16.1877 4.69428 16.371 4.87758C16.5543 5.06088 16.6572 5.30949 16.6572 5.56871V24.7123L23.7849 17.5834C23.9683 17.4 24.2171 17.297 24.4765 17.297C24.7358 17.297 24.9846 17.4 25.168 17.5834C25.3514 17.7668 25.4544 18.0156 25.4544 18.2749C25.4544 18.5343 25.3514 18.783 25.168 18.9664Z" fill="#E60D0D"/>
</svg>
