<svg width="32" height="39" viewBox="0 0 32 39" fill="none" xmlns="http://www.w3.org/2000/svg">
<path d="M31.101 24.0904L16.9455 38.2459C16.7994 38.3921 16.6259 38.5081 16.435 38.5873C16.2441 38.6664 16.0394 38.7072 15.8327 38.7072C15.626 38.7072 15.4213 38.6664 15.2304 38.5873C15.0395 38.5081 14.866 38.3921 14.7199 38.2459L0.564443 24.0904C0.269316 23.7953 0.103516 23.395 0.103516 22.9776C0.103516 22.5603 0.269316 22.16 0.564443 21.8649C0.85957 21.5697 1.25985 21.4039 1.67722 21.4039C2.09459 21.4039 2.49487 21.5697 2.79 21.8649L14.2599 33.3367V2.53084C14.2599 2.1137 14.4256 1.71364 14.7205 1.41868C15.0155 1.12372 15.4156 0.958008 15.8327 0.958008C16.2498 0.958008 16.6499 1.12372 16.9449 1.41868C17.2398 1.71364 17.4055 2.1137 17.4055 2.53084V33.3367L28.8754 21.8649C29.1705 21.5697 29.5708 21.4039 29.9882 21.4039C30.4055 21.4039 30.8058 21.5697 31.101 21.8649C31.3961 22.16 31.5619 22.5603 31.5619 22.9776C31.5619 23.395 31.3961 23.7953 31.101 24.0904Z" fill="white"/>
</svg>
