<svg width="18" height="14" viewBox="0 0 18 14" fill="none" xmlns="http://www.w3.org/2000/svg">
<path d="M16.3999 0.75H1.3999C1.23414 0.75 1.07517 0.815848 0.957961 0.933058C0.84075 1.05027 0.774902 1.20924 0.774902 1.375V12C0.774902 12.3315 0.906598 12.6495 1.14102 12.8839C1.37544 13.1183 1.69338 13.25 2.0249 13.25H15.7749C16.1064 13.25 16.4244 13.1183 16.6588 12.8839C16.8932 12.6495 17.0249 12.3315 17.0249 12V1.375C17.0249 1.20924 16.9591 1.05027 16.8418 0.933058C16.7246 0.815848 16.5657 0.75 16.3999 0.75ZM6.61162 7L2.0249 11.2039V2.79609L6.61162 7ZM7.53662 7.84766L8.47412 8.71094C8.58943 8.81679 8.74025 8.87552 8.89678 8.87552C9.0533 8.87552 9.20413 8.81679 9.31943 8.71094L10.2569 7.84766L14.7882 12H3.00693L7.53662 7.84766ZM11.1882 7L15.7749 2.79531V11.2047L11.1882 7Z" fill="#058AE3"/>
</svg>
