<svg width="18" height="18" viewBox="0 0 18 18" fill="none" xmlns="http://www.w3.org/2000/svg">
<path opacity="0.2" d="M15.4284 6.85749L10.1684 10.6075H7.83133L2.57129 6.85749L8.99986 2.57178L15.4284 6.85749Z" fill="#08ACF6"/>
<path d="M15.7263 6.41144L9.29774 2.12572C9.20971 2.06699 9.10625 2.03564 9.00042 2.03564C8.89459 2.03564 8.79113 2.06699 8.7031 2.12572L2.27453 6.41144C2.20114 6.4604 2.14098 6.52673 2.09939 6.60453C2.05781 6.68233 2.03608 6.7692 2.03613 6.85742V13.8217C2.03613 14.1059 2.14902 14.3784 2.34995 14.5793C2.55088 14.7803 2.8234 14.8931 3.10756 14.8931H14.8933C15.1774 14.8931 15.45 14.7803 15.6509 14.5793C15.8518 14.3784 15.9647 14.1059 15.9647 13.8217V6.85742C15.9648 6.7692 15.943 6.68233 15.9014 6.60453C15.8599 6.52673 15.7997 6.4604 15.7263 6.41144ZM6.90578 10.6074L3.10756 13.286V7.89738L6.90578 10.6074ZM8.00198 11.1431H9.99886L13.791 13.8217H4.20979L8.00198 11.1431ZM11.0951 10.6074L14.8933 7.89738V13.286L11.0951 10.6074ZM9.00042 3.21523L14.4855 6.87215L9.99886 10.0717H8.00332L3.51671 6.87215L9.00042 3.21523Z" fill="#08ACF6"/>
</svg>
