<svg width="24" height="25" viewBox="0 0 24 25" fill="none" xmlns="http://www.w3.org/2000/svg">
<path d="M21 12.8699C21 13.0688 20.921 13.2596 20.7803 13.4002C20.6397 13.5409 20.4489 13.6199 20.25 13.6199H3.75C3.55109 13.6199 3.36032 13.5409 3.21967 13.4002C3.07902 13.2596 3 13.0688 3 12.8699C3 12.671 3.07902 12.4802 3.21967 12.3395C3.36032 12.1989 3.55109 12.1199 3.75 12.1199H20.25C20.4489 12.1199 20.6397 12.1989 20.7803 12.3395C20.921 12.4802 21 12.671 21 12.8699ZM3.75 7.61987H20.25C20.4489 7.61987 20.6397 7.54086 20.7803 7.4002C20.921 7.25955 21 7.06879 21 6.86987C21 6.67096 20.921 6.4802 20.7803 6.33954C20.6397 6.19889 20.4489 6.11987 20.25 6.11987H3.75C3.55109 6.11987 3.36032 6.19889 3.21967 6.33954C3.07902 6.4802 3 6.67096 3 6.86987C3 7.06879 3.07902 7.25955 3.21967 7.4002C3.36032 7.54086 3.55109 7.61987 3.75 7.61987ZM20.25 18.1199H3.75C3.55109 18.1199 3.36032 18.1989 3.21967 18.3395C3.07902 18.4802 3 18.671 3 18.8699C3 19.0688 3.07902 19.2596 3.21967 19.4002C3.36032 19.5409 3.55109 19.6199 3.75 19.6199H20.25C20.4489 19.6199 20.6397 19.5409 20.7803 19.4002C20.921 19.2596 21 19.0688 21 18.8699C21 18.671 20.921 18.4802 20.7803 18.3395C20.6397 18.1989 20.4489 18.1199 20.25 18.1199Z" fill="white"/>
</svg>
