<svg width="50" height="49" viewBox="0 0 50 49" fill="none" xmlns="http://www.w3.org/2000/svg">
<rect width="49" height="49" rx="24.5" transform="matrix(-1 0 0 1 49.9336 0)" fill="white"/>
<path d="M20.6298 33.9858C20.535 34.0807 20.4597 34.1933 20.4084 34.3172C20.3571 34.4411 20.3307 34.574 20.3307 34.7081C20.3307 34.8422 20.3571 34.975 20.4084 35.099C20.4597 35.2229 20.535 35.3355 20.6298 35.4303C20.7247 35.5252 20.8373 35.6004 20.9612 35.6517C21.0851 35.7031 21.2179 35.7295 21.3521 35.7295C21.4862 35.7295 21.619 35.7031 21.7429 35.6517C21.8669 35.6004 21.9795 35.5252 22.0743 35.4303L32.2826 25.222C32.3775 25.1272 32.4528 25.0146 32.5042 24.8907C32.5556 24.7667 32.582 24.6339 32.582 24.4998C32.582 24.3656 32.5556 24.2328 32.5042 24.1088C32.4528 23.9849 32.3775 23.8723 32.2826 23.7775L22.0743 13.5692C21.8828 13.3776 21.623 13.27 21.3521 13.27C21.0812 13.27 20.8214 13.3776 20.6298 13.5692C20.4383 13.7607 20.3307 14.0205 20.3307 14.2914C20.3307 14.5623 20.4383 14.8221 20.6298 15.0137L30.1172 24.4998L20.6298 33.9858Z" fill="black"/>
</svg>
