<svg width="49" height="49" viewBox="0 0 49 49" fill="none" xmlns="http://www.w3.org/2000/svg">
<rect width="49" height="49" rx="24.5" fill="white"/>
<path d="M29.3038 33.9858C29.3986 34.0807 29.4739 34.1933 29.5252 34.3172C29.5765 34.4411 29.6029 34.574 29.6029 34.7081C29.6029 34.8422 29.5765 34.975 29.5252 35.099C29.4739 35.2229 29.3986 35.3355 29.3038 35.4303C29.2089 35.5252 29.0963 35.6004 28.9724 35.6517C28.8485 35.7031 28.7157 35.7295 28.5815 35.7295C28.4474 35.7295 28.3146 35.7031 28.1907 35.6517C28.0667 35.6004 27.9541 35.5252 27.8593 35.4303L17.651 25.222C17.556 25.1272 17.4808 25.0146 17.4294 24.8907C17.378 24.7667 17.3516 24.6339 17.3516 24.4998C17.3516 24.3656 17.378 24.2328 17.4294 24.1088C17.4808 23.9849 17.556 23.8723 17.651 23.7775L27.8593 13.5692C28.0508 13.3776 28.3106 13.27 28.5815 13.27C28.8524 13.27 29.1122 13.3776 29.3038 13.5692C29.4953 13.7607 29.6029 14.0205 29.6029 14.2914C29.6029 14.5623 29.4953 14.8221 29.3038 15.0137L19.8164 24.4998L29.3038 33.9858Z" fill="black"/>
</svg>
