<svg width="24" height="25" viewBox="0 0 24 25" fill="none" xmlns="http://www.w3.org/2000/svg">
<path d="M17.25 6.08643V18.0864C17.25 18.2853 17.171 18.4761 17.0303 18.6168C16.8897 18.7574 16.6989 18.8364 16.5 18.8364C16.3011 18.8364 16.1103 18.7574 15.9697 18.6168C15.829 18.4761 15.75 18.2853 15.75 18.0864V6.08643C15.75 5.88751 15.829 5.69675 15.9697 5.5561C16.1103 5.41544 16.3011 5.33643 16.5 5.33643C16.6989 5.33643 16.8897 5.41544 17.0303 5.5561C17.171 5.69675 17.25 5.88751 17.25 6.08643ZM21 5.33643C20.8011 5.33643 20.6103 5.41544 20.4697 5.5561C20.329 5.69675 20.25 5.88751 20.25 6.08643V18.0864C20.25 18.2853 20.329 18.4761 20.4697 18.6168C20.6103 18.7574 20.8011 18.8364 21 18.8364C21.1989 18.8364 21.3897 18.7574 21.5303 18.6168C21.671 18.4761 21.75 18.2853 21.75 18.0864V6.08643C21.75 5.88751 21.671 5.69675 21.5303 5.5561C21.3897 5.41544 21.1989 5.33643 21 5.33643ZM12.8128 10.8358L4.545 5.57174C4.32002 5.4279 4.06054 5.34709 3.79367 5.33776C3.5268 5.32843 3.26232 5.39091 3.02784 5.51869C2.79336 5.64647 2.59748 5.83485 2.46066 6.06417C2.32383 6.29349 2.25108 6.55533 2.25 6.82236V17.3505C2.25061 17.6162 2.32253 17.8768 2.45825 18.1052C2.59396 18.3336 2.78851 18.5214 3.02156 18.6489C3.25662 18.778 3.52206 18.8415 3.79009 18.8328C4.05811 18.824 4.31886 18.7434 4.545 18.5992L12.8128 13.3352C13.0235 13.2015 13.1969 13.0168 13.3171 12.7981C13.4373 12.5795 13.5003 12.334 13.5003 12.0846C13.5003 11.8351 13.4373 11.5896 13.3171 11.371C13.1969 11.1524 13.0235 10.9676 12.8128 10.8339V10.8358Z" fill="#999999"/>
</svg>
