<svg width="18" height="18" viewBox="0 0 18 18" fill="none" xmlns="http://www.w3.org/2000/svg">
<path opacity="0.2" d="M14.8887 12.6214C14.7847 13.3989 14.4018 14.1122 13.8113 14.6285C13.2208 15.1449 12.4628 15.4292 11.6784 15.4286C9.26307 15.4286 6.94663 14.4691 5.23871 12.7612C3.53079 11.0532 2.57129 8.7368 2.57129 6.32143C2.57069 5.53701 2.855 4.77908 3.37135 4.18857C3.8877 3.59807 4.60095 3.2152 5.37843 3.11116C5.49337 3.09751 5.60963 3.12145 5.70982 3.17939C5.81002 3.23733 5.88875 3.32616 5.93424 3.43259L7.34919 6.59331C7.38396 6.67449 7.39811 6.763 7.3904 6.85098C7.38269 6.93895 7.35335 7.02365 7.305 7.09755L5.87397 8.79911C5.82321 8.87571 5.79319 8.96416 5.78685 9.05583C5.78051 9.1475 5.79807 9.23925 5.83781 9.3221C6.3916 10.4558 7.56348 11.6136 8.70053 12.1621C8.78382 12.2016 8.87599 12.2188 8.96794 12.2119C9.05989 12.2049 9.14844 12.1741 9.22486 12.1225L10.899 10.6962C10.9732 10.6468 11.0585 10.6168 11.1472 10.6087C11.236 10.6006 11.3253 10.6148 11.4072 10.65L14.5653 12.065C14.6722 12.1101 14.7615 12.1888 14.8199 12.2892C14.8782 12.3896 14.9024 12.5062 14.8887 12.6214Z" fill="#058AE3"/>
<path d="M10.0899 3.50445C10.1081 3.43647 10.1395 3.37273 10.1823 3.31688C10.2252 3.26103 10.2786 3.21417 10.3395 3.17898C10.4005 3.14378 10.4678 3.12093 10.5375 3.11175C10.6073 3.10256 10.6782 3.10721 10.7462 3.12544C11.7393 3.38455 12.6454 3.90373 13.3712 4.62948C14.0969 5.35523 14.6161 6.26133 14.8752 7.25445C14.8934 7.32243 14.8981 7.39333 14.8889 7.46311C14.8797 7.53288 14.8569 7.60017 14.8217 7.66111C14.7865 7.72205 14.7396 7.77546 14.6838 7.81829C14.6279 7.86112 14.5642 7.89252 14.4962 7.91071C14.4509 7.92259 14.4044 7.92867 14.3576 7.92879C14.2395 7.92878 14.1248 7.88978 14.0312 7.81785C13.9376 7.74592 13.8703 7.64509 13.8399 7.53102C13.6286 6.72029 13.2049 5.9806 12.6125 5.38818C12.02 4.79575 11.2803 4.37204 10.4696 4.1607C10.4016 4.14259 10.3378 4.11124 10.2818 4.06844C10.2259 4.02565 10.179 3.97225 10.1437 3.9113C10.1085 3.85035 10.0856 3.78304 10.0763 3.71323C10.0671 3.64342 10.0717 3.57248 10.0899 3.50445ZM9.93391 6.30356C10.8573 6.54999 11.4506 7.14329 11.6971 8.06673C11.7275 8.1808 11.7947 8.28164 11.8883 8.35357C11.9819 8.4255 12.0967 8.4645 12.2147 8.4645C12.2615 8.46438 12.3081 8.45831 12.3533 8.44642C12.4213 8.42823 12.4851 8.39683 12.5409 8.35401C12.5967 8.31118 12.6436 8.25777 12.6788 8.19682C12.714 8.13588 12.7368 8.0686 12.746 7.99882C12.7552 7.92905 12.7506 7.85815 12.7323 7.79017C12.3895 6.50713 11.4935 5.61115 10.2105 5.26829C10.0732 5.23162 9.92695 5.25098 9.80394 5.32213C9.68094 5.39327 9.59123 5.51036 9.55455 5.64765C9.51788 5.78493 9.53724 5.93116 9.60839 6.05417C9.67953 6.17718 9.79662 6.26689 9.93391 6.30356ZM15.421 12.6886C15.3016 13.596 14.8559 14.4289 14.1673 15.0317C13.4787 15.6346 12.5942 15.9661 11.679 15.9645C6.36203 15.9645 2.03614 11.6386 2.03614 6.32164C2.0345 5.40644 2.36606 4.52192 2.96891 3.83331C3.57175 3.1447 4.40465 2.69908 5.31203 2.57968C5.54149 2.55166 5.77385 2.5986 5.97443 2.7135C6.17502 2.82839 6.33306 3.00508 6.42498 3.21718L7.83926 6.37454V6.38258C7.90963 6.54494 7.9387 6.7222 7.92386 6.89852C7.90902 7.07485 7.85074 7.24476 7.75422 7.39307C7.74217 7.41115 7.72944 7.42789 7.71605 7.44463L6.32185 9.09731C6.82342 10.1165 7.88949 11.1732 8.92208 11.6761L10.552 10.2893C10.568 10.2758 10.5848 10.2633 10.6022 10.2518C10.7504 10.1529 10.9209 10.0926 11.0983 10.0762C11.2756 10.0599 11.4543 10.088 11.6181 10.158L11.6268 10.162L14.7815 11.5757C14.9939 11.6672 15.171 11.8252 15.2863 12.0258C15.4016 12.2264 15.4488 12.4589 15.421 12.6886ZM14.3576 12.5547C14.3576 12.5547 14.3529 12.5547 14.3502 12.5547L11.2029 11.1451L9.5723 12.5319C9.55648 12.5453 9.53994 12.5578 9.52275 12.5694C9.36856 12.6723 9.19034 12.7334 9.00548 12.7468C8.82062 12.7601 8.63545 12.7253 8.46806 12.6457C7.21382 12.0397 5.96359 10.7989 5.3569 9.55803C5.27656 9.39186 5.24051 9.20775 5.25224 9.02356C5.26397 8.83936 5.32309 8.66132 5.42386 8.50669C5.43522 8.48853 5.44798 8.47129 5.46203 8.45512L6.85757 6.80044L5.45132 3.65312C5.45105 3.65044 5.45105 3.64775 5.45132 3.64508C4.80193 3.72979 4.2057 4.04831 3.77427 4.541C3.34284 5.0337 3.10581 5.66676 3.10757 6.32164C3.11005 8.59416 4.0139 10.7729 5.62082 12.3798C7.22774 13.9867 9.40647 14.8906 11.679 14.8931C12.3335 14.8953 12.9664 14.6591 13.4593 14.2286C13.9523 13.7981 14.2716 13.2028 14.3576 12.554V12.5547Z" fill="#058AE3"/>
</svg>
