<svg width="55" height="56" viewBox="0 0 55 56" fill="none" xmlns="http://www.w3.org/2000/svg">
<path d="M27.5 5.74268C23.0808 5.74268 18.7609 7.05311 15.0865 9.50828C11.4121 11.9634 8.54822 15.4531 6.85708 19.5358C5.16593 23.6186 4.72345 28.1112 5.58559 32.4455C6.44773 36.7797 8.57576 40.761 11.7006 43.8858C14.8254 47.0107 18.8067 49.1387 23.141 50.0008C27.4752 50.863 31.9678 50.4205 36.0506 48.7294C40.1334 47.0382 43.623 44.1744 46.0782 40.4999C48.5333 36.8255 49.8438 32.5056 49.8438 28.0864C49.8375 22.1624 47.4814 16.4828 43.2925 12.2939C39.1036 8.10501 33.424 5.74893 27.5 5.74268ZM36.2119 29.5001L25.04 37.2345C24.7821 37.4128 24.4803 37.5172 24.1674 37.5363C23.8544 37.5555 23.5421 37.4886 23.2644 37.343C22.9867 37.1974 22.7541 36.9786 22.5918 36.7103C22.4295 36.442 22.3438 36.1344 22.3438 35.8208V20.352C22.3438 20.0385 22.4295 19.7309 22.5918 19.4626C22.7541 19.1943 22.9867 18.9755 23.2644 18.8299C23.5421 18.6842 23.8544 18.6174 24.1674 18.6365C24.4803 18.6556 24.7821 18.76 25.04 18.9384L36.2119 26.6728C36.4406 26.8309 36.6275 27.0421 36.7566 27.2883C36.8857 27.5346 36.9531 27.8084 36.9531 28.0864C36.9531 28.3644 36.8857 28.6383 36.7566 28.8845C36.6275 29.1307 36.4406 29.342 36.2119 29.5001Z" fill="white"/>
</svg>
