<svg width="45" height="36" viewBox="0 0 45 36" fill="none" xmlns="http://www.w3.org/2000/svg">
<path d="M29.2956 16.831L19.8686 10.5464C19.6319 10.3885 19.3568 10.2978 19.0726 10.284C18.7884 10.2703 18.5058 10.3339 18.255 10.4682C18.0042 10.6025 17.7945 10.8024 17.6484 11.0465C17.5023 11.2906 17.4252 11.5699 17.4254 11.8544V24.4237C17.4252 24.7082 17.5023 24.9874 17.6484 25.2316C17.7945 25.4757 18.0042 25.6756 18.255 25.8099C18.5058 25.9442 18.7884 26.0078 19.0726 25.9941C19.3568 25.9803 19.6319 25.8896 19.8686 25.7317L29.2956 19.447C29.5111 19.3036 29.6878 19.1092 29.8101 18.881C29.9323 18.6528 29.9963 18.3979 29.9963 18.139C29.9963 17.8802 29.9323 17.6253 29.8101 17.3971C29.6878 17.1689 29.5111 16.9745 29.2956 16.831ZM20.5677 21.4876V14.8003L25.5916 18.139L20.5677 21.4876ZM43.0217 6.65381C42.8366 5.92979 42.4821 5.26015 41.9873 4.70013C41.4925 4.14011 40.8716 3.70576 40.1759 3.43292C33.4435 0.832641 22.7281 0.856209 22.1389 0.856209C21.5497 0.856209 10.8344 0.832641 4.10192 3.43292C3.40621 3.70576 2.78535 4.14011 2.29055 4.70013C1.79575 5.26015 1.4412 5.92979 1.25614 6.65381C0.747477 8.61384 0.142578 12.1961 0.142578 18.139C0.142578 24.082 0.747477 27.6642 1.25614 29.6243C1.44092 30.3486 1.79535 31.0187 2.29016 31.5791C2.78498 32.1394 3.40599 32.5741 4.10192 32.8471C10.5516 35.3355 20.6463 35.4219 22.0093 35.4219H22.2685C23.6315 35.4219 33.7322 35.3355 40.1759 32.8471C40.8718 32.5741 41.4928 32.1394 41.9877 31.5791C42.4825 31.0187 42.8369 30.3486 43.0217 29.6243C43.5303 27.6603 44.1352 24.082 44.1352 18.139C44.1352 12.1961 43.5303 8.61384 43.0217 6.65381ZM39.9795 28.8465C39.9197 29.0875 39.8036 29.3108 39.6407 29.4983C39.4779 29.6857 39.2729 29.8318 39.0427 29.9248C32.8268 32.3247 22.2548 32.2815 22.1291 32.2815C22.0034 32.2815 11.451 32.3169 5.23905 29.9248C5.00882 29.8318 4.80388 29.6857 4.64104 29.4983C4.4782 29.3108 4.3621 29.0875 4.30224 28.8465C3.83482 27.0534 3.28491 23.7501 3.28491 18.139C3.28491 12.528 3.83482 9.22464 4.29831 7.44136C4.35706 7.19897 4.47266 6.97405 4.63556 6.78519C4.79846 6.59634 5.00398 6.44897 5.23512 6.35529C11.451 3.96319 22.0211 3.99854 22.1487 3.99854C22.2764 3.99854 32.8268 3.96319 39.0388 6.35529C39.269 6.44821 39.4739 6.59437 39.6368 6.78179C39.7996 6.96921 39.9157 7.19255 39.9756 7.43351C40.443 9.22464 40.9929 12.528 40.9929 18.139C40.9929 23.7501 40.443 27.0534 39.9795 28.8367V28.8465Z" fill="white"/>
</svg>
