<svg width="24" height="25" viewBox="0 0 24 25" fill="none" xmlns="http://www.w3.org/2000/svg">
<path d="M6.75 6.08643V18.0864C6.75 18.2853 6.82902 18.4761 6.96967 18.6168C7.11032 18.7574 7.30109 18.8364 7.5 18.8364C7.69891 18.8364 7.88968 18.7574 8.03033 18.6168C8.17098 18.4761 8.25 18.2853 8.25 18.0864V6.08643C8.25 5.88751 8.17098 5.69675 8.03033 5.5561C7.88968 5.41544 7.69891 5.33643 7.5 5.33643C7.30109 5.33643 7.11032 5.41544 6.96967 5.5561C6.82902 5.69675 6.75 5.88751 6.75 6.08643ZM3 5.33643C3.19891 5.33643 3.38968 5.41544 3.53033 5.5561C3.67098 5.69675 3.75 5.88751 3.75 6.08643V18.0864C3.75 18.2853 3.67098 18.4761 3.53033 18.6168C3.38968 18.7574 3.19891 18.8364 3 18.8364C2.80109 18.8364 2.61032 18.7574 2.46967 18.6168C2.32902 18.4761 2.25 18.2853 2.25 18.0864V6.08643C2.25 5.88751 2.32902 5.69675 2.46967 5.5561C2.61032 5.41544 2.80109 5.33643 3 5.33643ZM11.1872 10.8358L19.455 5.57174C19.68 5.4279 19.9395 5.34709 20.2063 5.33776C20.4732 5.32843 20.7377 5.39091 20.9722 5.51869C21.2066 5.64647 21.4025 5.83485 21.5393 6.06417C21.6762 6.29349 21.7489 6.55533 21.75 6.82236V17.3505C21.7494 17.6162 21.6775 17.8768 21.5418 18.1052C21.406 18.3336 21.2115 18.5214 20.9784 18.6489C20.7434 18.778 20.4779 18.8415 20.2099 18.8328C19.9419 18.824 19.6811 18.7434 19.455 18.5992L11.1872 13.3352C10.9765 13.2015 10.8031 13.0168 10.6829 12.7981C10.5627 12.5795 10.4997 12.334 10.4997 12.0846C10.4997 11.8351 10.5627 11.5896 10.6829 11.371C10.8031 11.1524 10.9765 10.9676 11.1872 10.8339V10.8358Z" fill="#999999"/>
</svg>
