<svg width="24" height="25" viewBox="0 0 24 25" fill="none" xmlns="http://www.w3.org/2000/svg">
<path d="M2.2501 12.0865C2.25209 10.2969 2.96388 8.58119 4.22932 7.31575C5.49476 6.05031 7.2105 5.33851 9.0001 5.33653H18.0001V3.83653C18 3.68811 18.0439 3.54299 18.1263 3.41954C18.2087 3.2961 18.3259 3.19988 18.463 3.14306C18.6001 3.08625 18.751 3.07139 18.8966 3.10038C19.0421 3.12937 19.1758 3.20089 19.2807 3.3059L21.5307 5.5559C21.6005 5.62556 21.6558 5.70827 21.6935 5.79932C21.7313 5.89037 21.7507 5.98797 21.7507 6.08653C21.7507 6.18509 21.7313 6.28269 21.6935 6.37373C21.6558 6.46478 21.6005 6.5475 21.5307 6.61715L19.2807 8.86715C19.1758 8.97216 19.0421 9.04369 18.8966 9.07268C18.751 9.10166 18.6001 9.08681 18.463 9.03C18.3259 8.97318 18.2087 8.87696 18.1263 8.75351C18.0439 8.63007 18 8.48495 18.0001 8.33653V6.83653H9.0001C7.60817 6.83802 6.27368 7.39162 5.28944 8.37586C4.30519 9.36011 3.75159 10.6946 3.7501 12.0865C3.7501 12.2854 3.67108 12.4762 3.53043 12.6169C3.38978 12.7575 3.19901 12.8365 3.0001 12.8365C2.80119 12.8365 2.61042 12.7575 2.46977 12.6169C2.32912 12.4762 2.2501 12.2854 2.2501 12.0865ZM21.0001 11.3365C20.8012 11.3365 20.6104 11.4155 20.4698 11.5562C20.3291 11.6969 20.2501 11.8876 20.2501 12.0865C20.2486 13.4785 19.695 14.813 18.7108 15.7972C17.7265 16.7814 16.392 17.335 15.0001 17.3365H6.0001V15.8365C6.00022 15.6881 5.9563 15.543 5.87389 15.4195C5.79149 15.2961 5.67431 15.1999 5.53719 15.1431C5.40008 15.0862 5.24919 15.0714 5.10362 15.1004C4.95806 15.1294 4.82437 15.2009 4.71948 15.3059L2.46948 17.5559C2.39974 17.6256 2.34442 17.7083 2.30668 17.7993C2.26894 17.8904 2.24951 17.988 2.24951 18.0865C2.24951 18.1851 2.26894 18.2827 2.30668 18.3737C2.34442 18.4648 2.39974 18.5475 2.46948 18.6172L4.71948 20.8672C4.82437 20.9722 4.95806 21.0437 5.10362 21.0727C5.24919 21.1017 5.40008 21.0868 5.53719 21.03C5.67431 20.9732 5.79149 20.877 5.87389 20.7535C5.9563 20.6301 6.00022 20.485 6.0001 20.3365V18.8365H15.0001C16.7897 18.8345 18.5054 18.1227 19.7709 16.8573C21.0363 15.5919 21.7481 13.8761 21.7501 12.0865C21.7501 11.8876 21.6711 11.6969 21.5304 11.5562C21.3898 11.4155 21.199 11.3365 21.0001 11.3365ZM12.7501 15.0865C12.949 15.0865 13.1398 15.0075 13.2804 14.8669C13.4211 14.7262 13.5001 14.5354 13.5001 14.3365V9.83653C13.5002 9.70862 13.4676 9.58281 13.4053 9.47107C13.3431 9.35932 13.2533 9.26535 13.1445 9.19808C13.0357 9.13081 12.9115 9.09249 12.7838 9.08675C12.656 9.08101 12.5289 9.10804 12.4145 9.16528L10.9145 9.91528C10.7366 10.0043 10.6013 10.1603 10.5385 10.3491C10.4756 10.5378 10.4903 10.7438 10.5793 10.9217C10.6683 11.0996 10.8244 11.2348 11.0131 11.2977C11.2018 11.3606 11.4078 11.3459 11.5857 11.2568L12.0001 11.0497V14.3365C12.0001 14.5354 12.0791 14.7262 12.2198 14.8669C12.3604 15.0075 12.5512 15.0865 12.7501 15.0865Z" fill="#999999"/>
</svg>
