<svg width="24" height="25" viewBox="0 0 24 25" fill="none" xmlns="http://www.w3.org/2000/svg">
<path d="M22.2806 16.8059C22.3504 16.8756 22.4057 16.9583 22.4434 17.0493C22.4812 17.1404 22.5006 17.238 22.5006 17.3365C22.5006 17.4351 22.4812 17.5327 22.4434 17.6237C22.4057 17.7148 22.3504 17.7975 22.2806 17.8672L20.0306 20.1172C19.9257 20.2222 19.792 20.2937 19.6465 20.3227C19.5009 20.3517 19.35 20.3368 19.2129 20.28C19.0758 20.2232 18.9586 20.127 18.8762 20.0035C18.7938 19.8801 18.7499 19.735 18.75 19.5865V18.0865C17.6908 18.0717 16.6499 17.8082 15.7111 17.3174C14.7724 16.8266 13.962 16.1222 13.3453 15.2609L9.43406 9.7859C8.94789 9.10628 8.30677 8.55228 7.56382 8.1698C6.82088 7.78733 5.99749 7.58738 5.16188 7.58653H3C2.80109 7.58653 2.61032 7.50751 2.46967 7.36686C2.32902 7.22621 2.25 7.03544 2.25 6.83653C2.25 6.63762 2.32902 6.44685 2.46967 6.3062C2.61032 6.16555 2.80109 6.08653 3 6.08653H5.16188C6.23615 6.08742 7.29474 6.34428 8.24996 6.83583C9.20518 7.32738 10.0295 8.03946 10.6547 8.91309L14.5659 14.3881C15.0434 15.0557 15.6704 15.6022 16.397 15.984C17.1235 16.3657 17.9294 16.5721 18.75 16.5865V15.0865C18.7499 14.9381 18.7938 14.793 18.8762 14.6695C18.9586 14.5461 19.0758 14.4499 19.2129 14.3931C19.35 14.3362 19.5009 14.3214 19.6465 14.3504C19.792 14.3794 19.9257 14.4509 20.0306 14.5559L22.2806 16.8059ZM13.4062 10.1178C13.4864 10.175 13.577 10.2159 13.673 10.2382C13.7689 10.2604 13.8683 10.2635 13.9655 10.2473C14.0626 10.2311 14.1557 10.1959 14.2392 10.1438C14.3228 10.0916 14.3953 10.0236 14.4525 9.9434L14.565 9.78684C15.0423 9.11877 15.6695 8.57178 16.3962 8.18969C17.1229 7.8076 17.9291 7.60103 18.75 7.58653V9.08653C18.7499 9.23495 18.7938 9.38007 18.8762 9.50351C18.9586 9.62696 19.0758 9.72318 19.2129 9.78C19.35 9.83681 19.5009 9.85166 19.6465 9.82268C19.792 9.79369 19.9257 9.72216 20.0306 9.61715L22.2806 7.36715C22.3504 7.2975 22.4057 7.21478 22.4434 7.12373C22.4812 7.03269 22.5006 6.93509 22.5006 6.83653C22.5006 6.73797 22.4812 6.64037 22.4434 6.54932C22.4057 6.45827 22.3504 6.37556 22.2806 6.3059L20.0306 4.0559C19.9257 3.95089 19.792 3.87937 19.6465 3.85038C19.5009 3.82139 19.35 3.83625 19.2129 3.89306C19.0758 3.94988 18.9586 4.0461 18.8762 4.16954C18.7938 4.29299 18.7499 4.43811 18.75 4.58653V6.08653C17.6908 6.10141 16.6499 6.36485 15.7111 6.85564C14.7724 7.34644 13.962 8.05085 13.3453 8.91215L13.2328 9.06872C13.1751 9.1489 13.1338 9.2397 13.1112 9.3359C13.0887 9.4321 13.0854 9.53181 13.1015 9.62929C13.1176 9.72678 13.1528 9.82012 13.2051 9.90395C13.2574 9.98777 13.3258 10.0604 13.4062 10.1178ZM10.5938 14.0553C10.5136 13.998 10.423 13.9571 10.327 13.9349C10.2311 13.9127 10.1317 13.9096 10.0345 13.9258C9.93736 13.942 9.84434 13.9771 9.76078 14.0293C9.67722 14.0814 9.60475 14.1495 9.5475 14.2297L9.435 14.3862C8.94883 15.0661 8.30761 15.6204 7.56448 16.0031C6.82136 16.3857 5.99773 16.5857 5.16188 16.5865H3C2.80109 16.5865 2.61032 16.6655 2.46967 16.8062C2.32902 16.9469 2.25 17.1376 2.25 17.3365C2.25 17.5354 2.32902 17.7262 2.46967 17.8669C2.61032 18.0075 2.80109 18.0865 3 18.0865H5.16188C6.23615 18.0856 7.29474 17.8288 8.24996 17.3372C9.20518 16.8457 10.0295 16.1336 10.6547 15.26L10.7672 15.1034C10.8248 15.0233 10.866 14.9325 10.8884 14.8364C10.9109 14.7403 10.9142 14.6407 10.898 14.5433C10.8819 14.446 10.8468 14.3527 10.7945 14.269C10.7423 14.1852 10.6741 14.1126 10.5938 14.0553Z" fill="#999999"/>
</svg>
