<svg width="14" height="11" viewBox="0 0 14 11" fill="none" xmlns="http://www.w3.org/2000/svg">
<path d="M13.6456 1.845C13.5867 1.61459 13.4739 1.40149 13.3164 1.22327C13.159 1.04505 12.9614 0.90683 12.74 0.820002C10.5975 -0.00749767 7.1875 2.37746e-06 7 2.37746e-06C6.8125 2.37746e-06 3.4025 -0.00749767 1.26 0.820002C1.0386 0.90683 0.841021 1.04505 0.683559 1.22327C0.526097 1.40149 0.413266 1.61459 0.354375 1.845C0.1925 2.46875 0 3.60875 0 5.5C0 7.39125 0.1925 8.53125 0.354375 9.155C0.413178 9.38553 0.525969 9.59875 0.683436 9.77709C0.840904 9.95542 1.03853 10.0937 1.26 10.1806C3.3125 10.9725 6.525 11 6.95875 11H7.04125C7.475 11 10.6894 10.9725 12.74 10.1806C12.9615 10.0937 13.1591 9.95542 13.3166 9.77709C13.474 9.59875 13.5868 9.38553 13.6456 9.155C13.8075 8.53 14 7.39125 14 5.5C14 3.60875 13.8075 2.46875 13.6456 1.845ZM9.03687 5.9075L6.53687 7.6575C6.46209 7.70989 6.37439 7.7408 6.28328 7.74688C6.19218 7.75296 6.10115 7.73398 6.02006 7.69199C5.93898 7.65 5.87095 7.58661 5.82334 7.50869C5.77573 7.43078 5.75037 7.34131 5.75 7.25V3.75C5.75003 3.65854 5.77514 3.56883 5.82261 3.49064C5.87008 3.41246 5.93809 3.3488 6.01923 3.30658C6.10038 3.26437 6.19155 3.24522 6.28282 3.25122C6.37409 3.25722 6.46196 3.28815 6.53687 3.34063L9.03687 5.09063C9.10264 5.13674 9.15632 5.19803 9.19339 5.26928C9.23045 5.34054 9.2498 5.41968 9.2498 5.5C9.2498 5.58032 9.23045 5.65946 9.19339 5.73072C9.15632 5.80198 9.10264 5.86326 9.03687 5.90938V5.9075Z" fill="white"/>
</svg>
