<svg width="51" height="51" viewBox="0 0 51 51" fill="none" xmlns="http://www.w3.org/2000/svg">
<path opacity="0.2" d="M44.5017 14.0481C44.3808 13.5637 44.1461 13.115 43.8172 12.7393C43.4883 12.3636 43.0746 12.0717 42.6104 11.8878C36.0351 9.3582 25.139 9.42694 25.139 9.42694C25.139 9.42694 14.243 9.3582 7.6598 11.8976C7.19559 12.0815 6.78189 12.3734 6.45299 12.7491C6.12408 13.1248 5.88944 13.5735 5.76851 14.058C5.3168 15.8177 4.71387 19.2644 4.71387 25.1386C4.71387 31.0128 5.3168 34.4596 5.77637 36.2291C5.8979 36.7109 6.13197 37.1571 6.45938 37.5309C6.78678 37.9048 7.19818 38.1956 7.6598 38.3796C14.243 40.919 25.139 40.8503 25.139 40.8503C25.139 40.8503 36.0351 40.919 42.6183 38.3796C43.0813 38.1966 43.4943 37.9062 43.8231 37.5323C44.152 37.1584 44.3872 36.7117 44.5096 36.2291C44.9691 34.4615 45.5721 31.0128 45.5721 25.1386C45.5721 19.2644 44.9613 15.8177 44.5017 14.0481ZM21.9967 31.4233V18.8539L31.4237 25.1386L21.9967 31.4233Z" fill="white"/>
<path d="M32.2956 23.8308L22.8686 17.5461C22.6319 17.3882 22.3568 17.2976 22.0726 17.2838C21.7884 17.27 21.5058 17.3337 21.255 17.468C21.0042 17.6022 20.7945 17.8021 20.6484 18.0463C20.5023 18.2904 20.4252 18.5696 20.4254 18.8541V31.4235C20.4252 31.708 20.5023 31.9872 20.6484 32.2313C20.7945 32.4755 21.0042 32.6754 21.255 32.8096C21.5058 32.9439 21.7884 33.0076 22.0726 32.9938C22.3568 32.98 22.6319 32.8894 22.8686 32.7315L32.2956 26.4468C32.5111 26.3034 32.6878 26.1089 32.8101 25.8807C32.9323 25.6525 32.9963 25.3977 32.9963 25.1388C32.9963 24.8799 32.9323 24.6251 32.8101 24.3969C32.6878 24.1687 32.5111 23.9742 32.2956 23.8308ZM23.5677 28.4873V21.8001L28.5916 25.1388L23.5677 28.4873ZM46.0217 13.6536C45.8366 12.9296 45.4821 12.2599 44.9873 11.6999C44.4925 11.1399 43.8716 10.7055 43.1759 10.4327C36.4435 7.8324 25.7281 7.85596 25.1389 7.85596C24.5497 7.85596 13.8344 7.8324 7.10192 10.4327C6.40621 10.7055 5.78535 11.1399 5.29055 11.6999C4.79575 12.2599 4.4412 12.9296 4.25614 13.6536C3.74748 15.6136 3.14258 19.1959 3.14258 25.1388C3.14258 31.0817 3.74748 34.664 4.25614 36.624C4.44092 37.3484 4.79535 38.0184 5.29016 38.5788C5.78498 39.1392 6.40599 39.5739 7.10192 39.8469C13.5516 42.3352 23.6463 42.4216 25.0093 42.4216H25.2685C26.6315 42.4216 36.7322 42.3352 43.1759 39.8469C43.8718 39.5739 44.4928 39.1392 44.9877 38.5788C45.4825 38.0184 45.8369 37.3484 46.0217 36.624C46.5303 34.6601 47.1352 31.0817 47.1352 25.1388C47.1352 19.1959 46.5303 15.6136 46.0217 13.6536ZM42.9795 35.8463C42.9197 36.0873 42.8036 36.3106 42.6407 36.498C42.4779 36.6854 42.2729 36.8316 42.0427 36.9245C35.8268 39.3245 25.2548 39.2813 25.1291 39.2813C25.0034 39.2813 14.451 39.3166 8.23905 36.9245C8.00882 36.8316 7.80388 36.6854 7.64104 36.498C7.4782 36.3106 7.3621 36.0873 7.30224 35.8463C6.83482 34.0532 6.28491 30.7498 6.28491 25.1388C6.28491 19.5278 6.83482 16.2244 7.29831 14.4411C7.35706 14.1987 7.47266 13.9738 7.63556 13.7849C7.79846 13.5961 8.00398 13.4487 8.23512 13.355C14.451 10.9629 25.0211 10.9983 25.1487 10.9983C25.2764 10.9983 35.8268 10.9629 42.0388 13.355C42.269 13.448 42.4739 13.5941 42.6368 13.7815C42.7996 13.969 42.9157 14.1923 42.9756 14.4333C43.443 16.2244 43.9929 19.5278 43.9929 25.1388C43.9929 30.7498 43.443 34.0532 42.9795 35.8365V35.8463Z" fill="white"/>
</svg>
